<?xml version="1.0" encoding="utf-8"?>
<!-- Generator: Adobe Illustrator 21.0.0, SVG Export Plug-In . SVG Version: 6.00 Build 0)  -->
<svg version="1.1" id="imatrix" xmlns="http://www.w3.org/2000/svg" xmlns:xlink="http://www.w3.org/1999/xlink" x="0px" y="0px"
	 viewBox="0 0 80 60" style="enable-background:new 0 0 80 60;" xml:space="preserve">
<style type="text/css">
	.st0{fill:#FFFFFF;}
</style>
<g>
	<path class="st0" d="M5,31.8v6.4H2.4V22.8h5.7c1.7,0,3,0.4,4,1.2c0.9,0.8,1.4,1.9,1.4,3.3c0,0.8-0.2,1.5-0.6,2.1
		c-0.4,0.6-1,1-1.8,1.4c0.9,0.3,1.5,0.7,1.9,1.3c0.4,0.6,0.6,1.4,0.6,2.3v1.3c0,0.5,0.1,0.9,0.2,1.3c0.1,0.4,0.3,0.8,0.6,1v0.2h-2.6
		c-0.3-0.2-0.5-0.6-0.5-1.1s-0.1-1-0.1-1.5v-1.2c0-0.8-0.2-1.4-0.7-1.9c-0.5-0.5-1.1-0.7-1.9-0.7H5z M5,29.7h3c1,0,1.8-0.2,2.2-0.6
		c0.5-0.4,0.7-1,0.7-1.8c0-0.8-0.2-1.4-0.7-1.8c-0.5-0.4-1.2-0.7-2.1-0.7H5V29.7z"/>
	<path class="st0" d="M26,31.2h-6.7v4.9h7.8v2.1H16.7V22.8H27v2.1h-7.7v4.3H26V31.2z"/>
	<path class="st0" d="M38.6,31.6h-6.7v6.6h-2.6V22.8h10.4v2.1h-7.8v4.7h6.7V31.6z"/>
	<path class="st0" d="M44.4,36.1h7.1v2.1h-9.6V22.8h2.6V36.1z"/>
	<path class="st0" d="M62.8,31.2h-6.7v4.9h7.8v2.1H53.5V22.8h10.3v2.1h-7.7v4.3h6.7V31.2z"/>
	<path class="st0" d="M71.2,28.5l3.2-5.7h3l-4.7,7.6l4.9,7.7h-3.1l-3.3-5.8l-3.3,5.8h-3l4.8-7.7L65,22.8h3L71.2,28.5z"/>
</g>
</svg>
