<?xml version="1.0" encoding="utf-8"?>
<!-- Generator: Adobe Illustrator 21.0.0, SVG Export Plug-In . SVG Version: 6.00 Build 0)  -->
<svg version="1.1" id="imatrix" xmlns="http://www.w3.org/2000/svg" xmlns:xlink="http://www.w3.org/1999/xlink" x="0px" y="0px"
	 viewBox="0 0 76.1 23.9" style="enable-background:new 0 0 76.1 23.9;" xml:space="preserve">
<style type="text/css">
	.st0{fill:#519BE5;}
	.st1{fill:#3F79BD;}
</style>
<title>Монтажная область 1</title>
<g>
	<path class="st0" d="M2.8,9.6V16H0.3V0.6h5.7c1.7,0,3,0.4,4,1.2c0.9,0.8,1.4,1.9,1.4,3.3c0,0.8-0.2,1.5-0.6,2.1
		c-0.4,0.6-1,1-1.8,1.4c0.9,0.3,1.5,0.7,1.9,1.3c0.4,0.6,0.6,1.4,0.6,2.3v1.3c0,0.5,0.1,0.9,0.2,1.3c0.1,0.4,0.3,0.8,0.6,1V16H9.4
		c-0.3-0.2-0.5-0.6-0.5-1.1s-0.1-1-0.1-1.5v-1.2c0-0.8-0.2-1.4-0.7-1.9C7.7,9.9,7,9.6,6.3,9.6H2.8z M2.8,7.6h3c1,0,1.8-0.2,2.2-0.6
		c0.5-0.4,0.7-1,0.7-1.8c0-0.8-0.2-1.4-0.7-1.8C7.6,2.9,6.9,2.7,5.9,2.7H2.8V7.6z"/>
	<path class="st0" d="M23.9,9.1h-6.7v4.9h7.8V16H14.6V0.6h10.3v2.1h-7.7V7h6.7V9.1z"/>
	<path class="st0" d="M36.4,9.4h-6.7V16h-2.6V0.6h10.4v2.1h-7.8v4.7h6.7V9.4z"/>
	<path class="st0" d="M42.2,13.9h7.1V16h-9.6V0.6h2.6V13.9z"/>
	<path class="st0" d="M60.6,9.1h-6.7v4.9h7.8V16H51.3V0.6h10.3v2.1h-7.7V7h6.7V9.1z"/>
	<path class="st0" d="M69.1,6.3l3.2-5.7h3l-4.7,7.6l4.9,7.7h-3.1l-3.3-5.8L65.8,16h-3l4.8-7.7l-4.7-7.6h3L69.1,6.3z"/>
</g>
<g>
	<path class="st1" d="M1.4,21.4v2.1H0.4v-5.6h2.2c0.6,0,1.1,0.2,1.4,0.5c0.3,0.3,0.5,0.7,0.5,1.3c0,0.5-0.2,0.9-0.5,1.3
		c-0.3,0.3-0.8,0.5-1.4,0.5H1.4z M1.4,20.6h1.2c0.3,0,0.6-0.1,0.8-0.3c0.2-0.2,0.3-0.4,0.3-0.7s-0.1-0.5-0.3-0.7
		c-0.2-0.2-0.4-0.3-0.8-0.3H1.4V20.6z"/>
	<path class="st1" d="M9.8,21.2c0,0.7-0.2,1.2-0.6,1.7s-1,0.7-1.7,0.7c-0.7,0-1.2-0.2-1.6-0.7s-0.6-1-0.6-1.7v-1
		c0-0.7,0.2-1.2,0.6-1.7c0.4-0.4,1-0.7,1.6-0.7c0.7,0,1.2,0.2,1.7,0.7c0.4,0.4,0.6,1,0.6,1.7V21.2z M8.9,20.2c0-0.5-0.1-0.8-0.4-1.1
		s-0.6-0.4-1-0.4c-0.4,0-0.7,0.1-1,0.4c-0.2,0.3-0.4,0.7-0.4,1.1v1c0,0.5,0.1,0.9,0.4,1.2c0.2,0.3,0.6,0.4,1,0.4
		c0.4,0,0.8-0.1,1-0.4s0.4-0.7,0.4-1.2V20.2z"/>
	<path class="st1" d="M15.2,21.2c0,0.7-0.2,1.2-0.6,1.7s-1,0.7-1.7,0.7c-0.7,0-1.2-0.2-1.6-0.7s-0.6-1-0.6-1.7v-1
		c0-0.7,0.2-1.2,0.6-1.7c0.4-0.4,1-0.7,1.6-0.7c0.7,0,1.2,0.2,1.7,0.7c0.4,0.4,0.6,1,0.6,1.7V21.2z M14.2,20.2
		c0-0.5-0.1-0.8-0.4-1.1s-0.6-0.4-1-0.4c-0.4,0-0.7,0.1-1,0.4c-0.2,0.3-0.4,0.7-0.4,1.1v1c0,0.5,0.1,0.9,0.4,1.2
		c0.2,0.3,0.6,0.4,1,0.4c0.4,0,0.8-0.1,1-0.4s0.4-0.7,0.4-1.2V20.2z"/>
	<path class="st1" d="M17.1,22.7h2.6v0.7h-3.5v-5.6h0.9V22.7z"/>
	<path class="st1" d="M26.4,21.6L26.4,21.6c0,0.6-0.2,1-0.5,1.4c-0.4,0.4-0.9,0.5-1.5,0.5c-0.6,0-1.2-0.2-1.6-0.7
		c-0.4-0.4-0.6-1-0.6-1.7v-1.1c0-0.7,0.2-1.2,0.6-1.7c0.4-0.4,0.9-0.7,1.6-0.7c0.7,0,1.2,0.2,1.6,0.5s0.6,0.8,0.6,1.4l0,0h-0.9
		c0-0.4-0.1-0.7-0.3-0.9s-0.5-0.3-0.9-0.3c-0.4,0-0.7,0.2-0.9,0.5s-0.3,0.7-0.3,1.1v1.1c0,0.5,0.1,0.8,0.3,1.1
		c0.2,0.3,0.5,0.5,0.9,0.5c0.4,0,0.7-0.1,0.9-0.3c0.2-0.2,0.3-0.5,0.3-0.9H26.4z"/>
	<path class="st1" d="M31.6,21.2c0,0.7-0.2,1.2-0.6,1.7s-1,0.7-1.7,0.7c-0.7,0-1.2-0.2-1.6-0.7s-0.6-1-0.6-1.7v-1
		c0-0.7,0.2-1.2,0.6-1.7c0.4-0.4,1-0.7,1.6-0.7c0.7,0,1.2,0.2,1.7,0.7c0.4,0.4,0.6,1,0.6,1.7V21.2z M30.7,20.2
		c0-0.5-0.1-0.8-0.4-1.1s-0.6-0.4-1-0.4c-0.4,0-0.7,0.1-1,0.4c-0.2,0.3-0.4,0.7-0.4,1.1v1c0,0.5,0.1,0.9,0.4,1.2
		c0.2,0.3,0.6,0.4,1,0.4c0.4,0,0.8-0.1,1-0.4s0.4-0.7,0.4-1.2V20.2z"/>
	<path class="st1" d="M37,23.5h-0.9l-2.5-4.1l0,0v4h-0.9v-5.6h0.9L36,22l0,0v-4H37V23.5z"/>
	<path class="st1" d="M42,18.7h-1.7v4.8h-0.9v-4.8h-1.7v-0.7H42V18.7z"/>
	<path class="st1" d="M43.7,21.2v2.3h-0.9v-5.6h2.1c0.6,0,1.1,0.1,1.4,0.4c0.3,0.3,0.5,0.7,0.5,1.2c0,0.3-0.1,0.5-0.2,0.7
		c-0.1,0.2-0.4,0.4-0.7,0.5c0.3,0.1,0.5,0.3,0.7,0.5c0.1,0.2,0.2,0.5,0.2,0.8v0.5c0,0.2,0,0.3,0.1,0.5c0,0.2,0.1,0.3,0.2,0.4v0.1h-1
		c-0.1-0.1-0.2-0.2-0.2-0.4c0-0.2,0-0.4,0-0.5v-0.4c0-0.3-0.1-0.5-0.2-0.7c-0.2-0.2-0.4-0.3-0.7-0.3H43.7z M43.7,20.4h1.1
		c0.4,0,0.6-0.1,0.8-0.2c0.2-0.1,0.3-0.4,0.3-0.7c0-0.3-0.1-0.5-0.3-0.7s-0.4-0.2-0.8-0.2h-1.1V20.4z"/>
	<path class="st1" d="M52.2,21.2c0,0.7-0.2,1.2-0.6,1.7c-0.4,0.4-1,0.7-1.7,0.7c-0.7,0-1.2-0.2-1.6-0.7s-0.6-1-0.6-1.7v-1
		c0-0.7,0.2-1.2,0.6-1.7c0.4-0.4,1-0.7,1.6-0.7c0.7,0,1.2,0.2,1.7,0.7c0.4,0.4,0.6,1,0.6,1.7V21.2z M51.3,20.2
		c0-0.5-0.1-0.8-0.4-1.1s-0.6-0.4-1-0.4c-0.4,0-0.7,0.1-1,0.4s-0.4,0.7-0.4,1.1v1c0,0.5,0.1,0.9,0.4,1.2s0.6,0.4,1,0.4
		c0.4,0,0.8-0.1,1-0.4c0.2-0.3,0.4-0.7,0.4-1.2V20.2z"/>
	<path class="st1" d="M54.2,22.7h2.6v0.7h-3.5v-5.6h0.9V22.7z"/>
	<path class="st1" d="M58.4,22.7h2.6v0.7h-3.5v-5.6h0.9V22.7z"/>
	<path class="st1" d="M65.1,21h-2.4v1.8h2.8v0.7h-3.7v-5.6h3.7v0.7h-2.8v1.6h2.4V21z"/>
	<path class="st1" d="M67.2,21.2v2.3h-0.9v-5.6h2.1c0.6,0,1.1,0.1,1.4,0.4c0.3,0.3,0.5,0.7,0.5,1.2c0,0.3-0.1,0.5-0.2,0.7
		c-0.1,0.2-0.4,0.4-0.7,0.5c0.3,0.1,0.5,0.3,0.7,0.5c0.1,0.2,0.2,0.5,0.2,0.8v0.5c0,0.2,0,0.3,0.1,0.5c0,0.2,0.1,0.3,0.2,0.4v0.1h-1
		c-0.1-0.1-0.2-0.2-0.2-0.4c0-0.2,0-0.4,0-0.5v-0.4c0-0.3-0.1-0.5-0.2-0.7c-0.2-0.2-0.4-0.3-0.7-0.3H67.2z M67.2,20.4h1.1
		c0.4,0,0.6-0.1,0.8-0.2c0.2-0.1,0.3-0.4,0.3-0.7c0-0.3-0.1-0.5-0.3-0.7s-0.4-0.2-0.8-0.2h-1.1V20.4z"/>
	<path class="st1" d="M74.4,22c0-0.2-0.1-0.4-0.3-0.6c-0.2-0.1-0.5-0.3-0.9-0.4c-0.6-0.2-1.1-0.4-1.4-0.6c-0.3-0.3-0.5-0.6-0.5-1.1
		c0-0.4,0.2-0.8,0.6-1.1s0.8-0.4,1.4-0.4c0.6,0,1.1,0.2,1.5,0.5c0.4,0.3,0.5,0.7,0.5,1.2l0,0h-0.9c0-0.3-0.1-0.5-0.3-0.7
		s-0.5-0.3-0.8-0.3c-0.3,0-0.6,0.1-0.8,0.2c-0.2,0.1-0.3,0.3-0.3,0.6c0,0.2,0.1,0.4,0.3,0.5s0.5,0.3,1,0.4c0.6,0.2,1.1,0.4,1.4,0.7
		c0.3,0.3,0.5,0.6,0.5,1.1c0,0.5-0.2,0.8-0.6,1.1s-0.9,0.4-1.5,0.4c-0.6,0-1.1-0.2-1.5-0.5c-0.4-0.3-0.7-0.7-0.6-1.3l0,0h0.9
		c0,0.3,0.1,0.6,0.4,0.8s0.5,0.3,0.9,0.3c0.3,0,0.6-0.1,0.8-0.2S74.4,22.3,74.4,22z"/>
</g>
</svg>
