<?xml version="1.0" encoding="utf-8"?>
<!-- Generator: Adobe Illustrator 21.0.0, SVG Export Plug-In . SVG Version: 6.00 Build 0)  -->
<svg version="1.1" id="imatrix" xmlns="http://www.w3.org/2000/svg" xmlns:xlink="http://www.w3.org/1999/xlink" x="0px" y="0px"
	 viewBox="0 0 46.8 60" style="enable-background:new 0 0 46.8 60;" xml:space="preserve">
<style type="text/css">
	.st0{fill:#FFFFFF;}
	.st1{fill:#00AB67;}
	.st2{fill:none;}
	.st3{fill:#008348;}
</style>
<title>Монтажная область 1</title>
<rect x="2.6" y="1.3" class="st0" width="42" height="42"/>
<g>
	<path d="M2.2,55.6h3.2v0.6H3.1v0.7h2.2v0.6H3.1v0.7h2.3v0.6H2.2L2.2,55.6L2.2,55.6z"/>
	<path d="M6.1,55.6H7v2.6h2.1v0.6H6.1L6.1,55.6L6.1,55.6z"/>
	<path d="M9.7,55.6h3.2v0.6h-2.3v0.7h2.2v0.6h-2.2v0.7H13v0.6H9.7L9.7,55.6L9.7,55.6z"/>
	<path d="M16.5,56.8c-0.1-0.5-0.5-0.7-1-0.7c-0.9,0-1.1,0.6-1.1,1.1s0.2,1.1,1.1,1.1c0.5,0,0.9-0.2,1-0.7h1
		c-0.1,0.9-0.9,1.3-2.1,1.3c-1.3,0-2.1-0.5-2.1-1.7c0-1.2,0.8-1.7,2.1-1.7c0.8,0,1.9,0.2,2,1.3L16.5,56.8L16.5,56.8z"/>
	<path d="M19,56.2h-1.3v-0.6h3.5v0.6H20v2.6H19L19,56.2L19,56.2z"/>
	<path d="M21.7,55.6h2.5c1,0,1.1,0.5,1.1,0.9c0,0.4-0.2,0.6-0.6,0.8v0c0.4,0.1,0.5,0.5,0.5,0.9c0,0.2,0,0.5,0.2,0.7h-1
		c-0.1-0.1-0.1-0.3-0.1-0.6c0-0.4-0.2-0.6-0.5-0.6h-1.2v1.2h-0.9L21.7,55.6L21.7,55.6z M22.6,57h1.3c0.2,0,0.5-0.1,0.5-0.4
		c0-0.3-0.3-0.4-0.5-0.4h-1.2L22.6,57L22.6,57z"/>
	<path d="M27.9,55.5c1.9,0,2.2,1,2.2,1.7c0,0.7-0.3,1.7-2.2,1.7c-1.9,0-2.2-1-2.2-1.7C25.8,56.5,26,55.5,27.9,55.5z M27.9,58.2
		c0.9,0,1.2-0.6,1.2-1.1c0-0.5-0.3-1.1-1.2-1.1c-0.9,0-1.2,0.6-1.2,1.1C26.8,57.7,27.1,58.2,27.9,58.2z"/>
	<path d="M33.6,55.6h0.9v3.2h-1l-1.9-2.2h0v2.2h-0.9v-3.2h1.1l1.8,2.2h0V55.6z"/>
	<path d="M35.2,55.6h0.9v3.2h-0.9V55.6z"/>
	<path d="M39.9,56.8c-0.1-0.5-0.5-0.7-1-0.7c-0.9,0-1.1,0.6-1.1,1.1s0.2,1.1,1.1,1.1c0.5,0,0.9-0.2,1-0.7h1
		c-0.1,0.9-0.9,1.3-2.1,1.3c-1.3,0-2.1-0.5-2.1-1.7c0-1.2,0.8-1.7,2.1-1.7c0.8,0,1.9,0.2,2,1.3L39.9,56.8L39.9,56.8z"/>
	<path d="M43.8,56.5c-0.1-0.4-0.5-0.5-0.9-0.5c-0.4,0-0.6,0.2-0.6,0.4c0,0.2,0.2,0.3,0.4,0.3l1.2,0.2c0.6,0.1,1.1,0.3,1.1,0.9
		c0,0.6-0.4,1.1-1.8,1.1c-0.8,0-1.9-0.1-2-1.1h1.1c0,0.4,0.5,0.5,0.9,0.5c0.4,0,0.7-0.1,0.7-0.4c0-0.2-0.2-0.3-0.6-0.4l-0.9-0.1
		c-0.6-0.1-1.2-0.3-1.2-0.9c0-0.7,0.6-1,1.7-1c0.7,0,1.8,0.1,1.8,1L43.8,56.5L43.8,56.5z"/>
</g>
<rect x="2.2" y="52.7" class="st1" width="42.8" height="1.6"/>
<g>
	<path d="M3.9,51.2H2.2v-5h5.6v0.9H3.9v1.1h3.4v0.9H3.9V51.2z"/>
	<path d="M15.1,49.5c0,1.3-1.2,1.9-3.2,1.9c-0.7,0-1.8-0.1-2.5-0.6C9,50.4,8.9,50,8.8,49.5v-3.3h1.7v3.2c0,0.7,0.6,1,1.4,1
		c1.1,0,1.6-0.3,1.6-0.9v-3.3h1.7L15.1,49.5L15.1,49.5z"/>
	<path d="M20.1,51.2h-1.6v-4.1h-2.4v-0.9h6.4v0.9h-2.4L20.1,51.2L20.1,51.2z"/>
	<path d="M29.7,49.5c0,1.3-1.2,1.9-3.2,1.9c-0.7,0-1.8-0.1-2.5-0.6c-0.4-0.3-0.6-0.7-0.6-1.2v-3.3H25v3.2c0,0.7,0.6,1,1.4,1
		c1.1,0,1.6-0.3,1.6-0.9v-3.3h1.7V49.5z"/>
	<path d="M31.3,46.3h4c2.1,0,2.5,1,2.5,1.4c0,0.5-0.4,1-1.2,1.2c0.6,0.2,1,0.3,1,1.3c0,0.7,0,0.9,0.3,1v0.1H36
		c-0.1-0.2-0.2-0.5-0.2-1c0-0.7-0.1-0.9-1.3-0.9h-1.7v1.9h-1.6V46.3z M34.8,48.4c0.8,0,1.3-0.2,1.3-0.7c0-0.3-0.2-0.6-1.1-0.6h-2
		v1.3L34.8,48.4L34.8,48.4z"/>
	<path d="M44.9,47.1h-4.2v1h3.8v0.9h-3.8v1.3H45v0.9h-5.9v-5h5.8V47.1z"/>
</g>
<rect x="3" y="1.7" class="st2" width="41.1" height="41.1"/>
<path class="st3" d="M44.1,0.9H3H2.2v0.8v41.1v0.8H3h41.1H45v-0.8V1.7V0.9H44.1z M44.1,42.8H3V1.7h41.1V42.8z"/>
<g>
	<polygon class="st1" points="21,13.8 17.5,17.2 17.5,17.8 21.6,13.8 	"/>
	<polygon class="st1" points="20.4,31.6 20,31.6 17.6,34 17.6,34.5 17.6,34.6 20.5,31.6 	"/>
	<path class="st1" d="M43.3,41.6V3.8V2.5H27.9H3.8v26.9v4.3V42l39.5,0L43.3,41.6z M43,41.7h-3.3l3.3-3.3V41.7z M43,37.8l-3.9,3.9
		h-3.6l7.5-7.5L43,37.8L43,37.8z M43,33.6l-8.1,8.1h-3.6L43,30L43,33.6L43,33.6z M43,29.4L30.8,41.7h-3.6L43,25.8L43,29.4L43,29.4z
		 M43,25.2L26.6,41.7H23l20-20.1V25.2z M43,8.4L30.7,20.8l0.2,0.2l0.1,0.1L43,9v3.6L32.3,23.4v0.1v0.5V24L43,13.2v3.6L32.3,27.6v0.1
		v0.5L43,17.4V21L22.4,41.7h-3.6l10-10.1h-0.5h-0.1l-10,10.1h-0.7h-1.8h0v-1.1l0,0v0v-0.5V40l0,0v-3.6l0,0v-0.1v-0.5l0,0v-3.6l0,0
		v-0.6l0,0v-1.8h1.8v0h0.6l0,0h3.6l0,0h0.5h0.1l0,0h3.6l0,0H26h0.5h0l0,0h3.6l0,0h0.1h0.2v-0.2v-0.1l0,0v-3.6l0,0v0v-0.5v-0.1l0,0
		v-3.6l0,0v-0.1v-0.5l0,0v-0.6h-3L43,4.8L43,8.4L43,8.4z M32.4,2.9h3.6l-3.7,3.7v0.6l4.3-4.3h3.6l-7.9,7.9v0.6l8.5-8.5H43v1.3
		L26.8,20.5h-3.6l6.7-6.8h-0.6l-6.7,6.8H19l6.7-6.8h-0.6l-6.7,6.8h-2.7v-0.9l0,0V19l0,0v-3.6l0,0v-0.6l0,0V12h2.8l0,0h0.6l0,0h3.6
		l0,0h0.6l0,0h3.6l0,0h0.6l0,0h2.9l0-2.9l0,0V8.5l0,0l0-3.6l0,0V4.3V3.1V2.9l1.9,0v0L32.4,2.9z"/>
	<polygon class="st1" points="24.7,31.6 24.2,31.6 24.1,31.6 17.6,38.2 17.6,38.3 17.6,38.7 17.6,38.8 24.7,31.6 	"/>
</g>
<g>
	<polygon class="st3" points="30.4,21.6 30.4,22 30.4,25.3 30.4,25.8 30.4,29.1 30.4,29.6 30.4,29.8 30.2,29.8 29.7,29.8 26.4,29.8 
		26,29.8 22.7,29.8 22.2,29.8 18.9,29.8 18.5,29.8 15.8,29.8 15.8,32.5 15.8,33 15.8,36.3 15.8,36.8 15.8,40.1 15.8,40.6 15.8,41.7 
		17.6,41.7 17.6,38.7 17.6,38.3 17.6,35 17.6,34.5 17.6,31.6 20.4,31.6 20.9,31.6 24.2,31.6 24.7,31.6 27.9,31.6 28.4,31.6 
		31.7,31.6 32.2,31.6 32.3,31.6 32.3,31.5 32.3,31 32.3,27.7 32.3,27.2 32.3,23.9 32.3,23.4 32.3,22.4 31.1,21.3 30.9,21 30.4,20.5 
			"/>
	<polygon class="st3" points="32.2,12.6 32.2,12.1 32.2,8.8 32.2,8.3 32.2,5 32.2,4.6 32.2,2.9 32.2,2.9 30.4,2.9 30.4,3.1 
		30.4,6.4 30.4,6.9 30.4,10.2 30.4,10.7 30.4,12 29.1,12 28.6,12 25.3,12 24.9,12 21.6,12 21.1,12 15.8,12 15.8,17.4 15.8,17.9 
		15.8,20.5 16.4,20.5 16.9,20.5 17.5,20.5 17.5,19.9 17.5,19.4 17.5,16.1 17.5,15.6 17.5,13.8 19.4,13.8 19.8,13.8 23.1,13.8 
		23.6,13.8 26.9,13.8 27.3,13.8 30.6,13.8 31.1,13.8 32.2,13.8 	"/>
</g>
</svg>
