<?xml version="1.0" encoding="utf-8"?>
<!-- Generator: Adobe Illustrator 21.0.0, SVG Export Plug-In . SVG Version: 6.00 Build 0)  -->
<svg version="1.1" id="imatrix" xmlns="http://www.w3.org/2000/svg" xmlns:xlink="http://www.w3.org/1999/xlink" x="0px" y="0px"
	 viewBox="0 0 80 60" style="enable-background:new 0 0 80 60;" xml:space="preserve">
<style type="text/css">
	.st0{fill:#FFFFFF;}
</style>
<title>Монтажная область 1</title>
<g>
	<g>
		<path class="st0" d="M3.7,36.3h5.5v1H5.3v1.1H9v1H5.3v1.3h4v1H3.7L3.7,36.3L3.7,36.3z"/>
		<path class="st0" d="M10.3,36.3h1.6v4.4h3.6v1.1h-5.2L10.3,36.3L10.3,36.3z"/>
		<path class="st0" d="M16.5,36.3H22v1h-3.9v1.1h3.7v1h-3.7v1.3h4v1h-5.6L16.5,36.3L16.5,36.3z"/>
		<path class="st0" d="M28.1,38.4c-0.1-0.8-0.9-1.2-1.7-1.2c-1.5,0-1.8,1.1-1.8,1.8c0,0.7,0.3,1.8,1.8,1.8c0.8,0,1.5-0.3,1.7-1.2
			h1.8c-0.2,1.6-1.6,2.2-3.5,2.2c-2.2,0-3.5-0.9-3.5-2.9c0-2,1.3-2.9,3.5-2.9c1.4,0,3.2,0.3,3.5,2.2L28.1,38.4L28.1,38.4z"/>
		<path class="st0" d="M32.4,37.4h-2.2v-1h6v1H34v4.4h-1.6L32.4,37.4L32.4,37.4z"/>
		<path class="st0" d="M36.9,36.3h4.3c1.6,0,1.9,0.9,1.9,1.5c0,0.7-0.3,1.1-1,1.3v0c0.7,0.1,0.8,0.9,0.8,1.5c0,0.3,0,0.9,0.3,1.2
			h-1.8c-0.1-0.3-0.2-0.5-0.2-1c0-0.8-0.4-1-0.9-1h-2v2h-1.6L36.9,36.3L36.9,36.3z M38.5,38.8h2.1c0.4,0,0.8-0.2,0.8-0.7
			c0-0.5-0.5-0.7-0.9-0.7h-2L38.5,38.8L38.5,38.8z"/>
		<path class="st0" d="M47.5,36.2c3.2,0,3.7,1.7,3.7,2.9c0,1.1-0.5,2.9-3.7,2.9s-3.7-1.7-3.7-2.9C43.8,37.9,44.3,36.2,47.5,36.2z
			 M47.5,40.9c1.5,0,2-1,2-1.8c0-0.8-0.5-1.8-2-1.8c-1.5,0-2,1-2,1.8C45.5,39.9,46.1,40.9,47.5,40.9z"/>
		<path class="st0" d="M57.2,36.3h1.6v5.5H57L53.7,38h0v3.8h-1.6v-5.5H54l3.1,3.8h0V36.3z"/>
		<path class="st0" d="M60,36.3h1.6v5.5H60V36.3z"/>
		<path class="st0" d="M67.9,38.4c-0.1-0.8-0.9-1.2-1.7-1.2c-1.5,0-1.9,1.1-1.9,1.8c0,0.7,0.3,1.8,1.9,1.8c0.8,0,1.5-0.3,1.7-1.2
			h1.8c-0.2,1.6-1.6,2.2-3.5,2.2c-2.2,0-3.5-0.9-3.5-2.9c0-2,1.3-2.9,3.5-2.9c1.4,0,3.2,0.3,3.5,2.2L67.9,38.4L67.9,38.4z"/>
		<path class="st0" d="M74.6,37.9c-0.1-0.7-0.8-0.8-1.5-0.8c-0.7,0-1.1,0.3-1.1,0.6c0,0.3,0.3,0.5,0.7,0.5l2,0.3
			c1.1,0.2,1.9,0.5,1.9,1.5c0,1-0.7,1.8-3.1,1.8c-1.4,0-3.3-0.2-3.3-1.9H72c0,0.8,0.8,0.9,1.5,0.9c0.8,0,1.3-0.2,1.3-0.7
			c0-0.4-0.4-0.5-1-0.6l-1.5-0.2c-1-0.1-2-0.4-2-1.5c0-1.2,1.1-1.7,2.9-1.7c1.2,0,3,0.2,3.1,1.7L74.6,37.9L74.6,37.9z"/>
	</g>
	<rect x="3.7" y="31.5" class="st0" width="73" height="2.7"/>
	<g>
		<path class="st0" d="M6.5,29H3.7v-8.5h9.5V22H6.5v1.9h5.9v1.5H6.5V29z"/>
		<path class="st0" d="M25.7,26c0,2.2-2.1,3.2-5.5,3.2c-1.2,0-3-0.2-4.2-1c-0.7-0.5-1-1.2-1-2.1v-5.6h2.8V26c0,1.2,1.1,1.7,2.4,1.7
			c1.9,0,2.7-0.6,2.7-1.6v-5.6h2.8L25.7,26L25.7,26z"/>
		<path class="st0" d="M34.1,29h-2.8v-7h-4v-1.5h10.8V22h-4L34.1,29L34.1,29z"/>
		<path class="st0" d="M50.5,26c0,2.2-2.1,3.2-5.5,3.2c-1.2,0-3-0.2-4.2-1c-0.7-0.5-1-1.2-1-2.1v-5.6h2.8V26c0,1.2,1.1,1.7,2.4,1.7
			c1.9,0,2.7-0.6,2.7-1.6v-5.6h2.8V26z"/>
		<path class="st0" d="M53.2,20.5H60c3.5,0,4.2,1.7,4.2,2.4c0,0.9-0.7,1.7-2.1,2c1.1,0.3,1.7,0.6,1.7,2.1c0,1.2,0,1.5,0.6,1.7V29
			h-3.1c-0.2-0.4-0.3-0.8-0.3-1.7c0-1.2-0.1-1.6-2.2-1.6H56V29h-2.7V20.5z M59.2,24.2c1.4,0,2.2-0.3,2.2-1.2c0-0.4-0.3-1.1-2-1.1H56
			v2.3L59.2,24.2L59.2,24.2z"/>
		<path class="st0" d="M76.5,22h-7.1v1.8h6.5v1.5h-6.5v2.2h7.3V29h-10v-8.5h9.8V22z"/>
	</g>
</g>
</svg>
