<?xml version="1.0" encoding="utf-8"?>
<!-- Generator: Adobe Illustrator 21.1.0, SVG Export Plug-In . SVG Version: 6.00 Build 0)  -->
<svg version="1.1" id="Шар_1" xmlns="http://www.w3.org/2000/svg" xmlns:xlink="http://www.w3.org/1999/xlink" x="0px" y="0px"
	 viewBox="0 0 669.3 169.3" style="enable-background:new 0 0 669.3 169.3;" xml:space="preserve">
<style type="text/css">
	.st0{fill:#E8E7E7;}
	.st1{opacity:0.75;fill:#E8E7E7;enable-background:new    ;}
	.st2{opacity:0.5;fill:#E8E7E7;enable-background:new    ;}
</style>
<g>
	<path class="st0" d="M118.6,103.1c0,12.1-9.8,21.9-21.9,21.9s-21.9-9.8-21.9-21.9s9.8-21.9,21.9-21.9l0,0
		C108.8,81.2,118.6,91,118.6,103.1z"/>
	<path class="st1" d="M31.7,120.4c6.5,22.2,31.4,49.6,66.6,48.9c-30.9-17-50-46.8-40.3-81.5c9.4-33.6,37.6-48.7,64.3-51.2
		C69.4,20,16.3,67.9,31.7,120.4z"/>
	<path class="st2" d="M8.5,37.8C-3.5,58.7-5.7,95.7,21,118.5c-10.1-33.2-1.8-68.1,31.7-87.7c32.4-19,64.9-11.6,86.6,4.1
		C112.5-12.5,36.8-11.7,8.5,37.8z"/>
	<g>
		<path class="st0" d="M137.1,99.4l15.5-1.5c0.9,5.2,2.8,9,5.7,11.4c2.8,2.4,6.7,3.7,11.5,3.7c5.1,0,9-1.1,11.6-3.3
			c2.6-2.2,3.9-4.7,3.9-7.6c0-1.9-0.5-3.4-1.6-4.8c-1.1-1.3-3-2.4-5.7-3.4c-1.9-0.6-6.1-1.8-12.7-3.4c-8.5-2.1-14.5-4.7-17.9-7.8
			c-4.8-4.3-7.3-9.6-7.3-15.8c0-4,1.1-7.8,3.4-11.3c2.3-3.5,5.5-6.1,9.8-8c4.3-1.8,9.4-2.7,15.5-2.7c9.9,0,17.3,2.2,22.3,6.5
			s7.6,10.1,7.9,17.3l-16,0.8c-0.7-4-2.1-7-4.4-8.7c-2.2-1.8-5.6-2.7-10.1-2.7c-4.6,0-8.2,0.9-10.8,2.8c-1.7,1.2-2.5,2.8-2.5,4.9
			c0,1.9,0.8,3.5,2.4,4.8c2,1.7,6.9,3.4,14.6,5.3s13.5,3.7,17.2,5.7s6.6,4.6,8.7,8c2.1,3.4,3.1,7.6,3.1,12.5c0,4.5-1.3,8.7-3.8,12.7
			c-2.5,3.9-6.1,6.9-10.6,8.8c-4.6,1.9-10.3,2.9-17.1,2.9c-10,0-17.6-2.3-22.9-6.9C141.3,115,138.2,108.3,137.1,99.4z"/>
		<path class="st0" d="M213.3,68h13.9v7.8c5-6.1,10.9-9.1,17.8-9.1c3.7,0,6.8,0.8,9.5,2.3c2.7,1.5,4.9,3.8,6.6,6.8
			c2.5-3,5.2-5.3,8.1-6.8s6-2.3,9.3-2.3c4.2,0,7.7,0.9,10.6,2.6s5.1,4.2,6.5,7.5c1,2.4,1.6,6.4,1.6,11.8v36.5h-15.1V92.5
			c0-5.7-0.5-9.3-1.6-11c-1.4-2.1-3.5-3.2-6.4-3.2c-2.1,0-4.1,0.6-6,1.9s-3.2,3.2-4,5.7s-1.2,6.4-1.2,11.8v27.4h-15.1V93.8
			c0-5.5-0.3-9.1-0.8-10.7s-1.4-2.8-2.5-3.6c-1.1-0.8-2.7-1.2-4.6-1.2c-2.3,0-4.4,0.6-6.3,1.9c-1.9,1.3-3.2,3.1-4,5.4
			s-1.2,6.3-1.2,11.8v27.7h-15.1L213.3,68L213.3,68z"/>
		<path class="st0" d="M323.5,85.4L309.8,83c1.5-5.5,4.2-9.6,7.9-12.2c3.8-2.6,9.3-4,16.8-4c6.7,0,11.7,0.8,15,2.4s5.6,3.6,7,6.1
			c1.3,2.5,2,7,2,13.5l-0.2,17.6c0,5,0.2,8.7,0.7,11.1s1.4,4.9,2.7,7.7h-14.9c-0.4-1-0.9-2.5-1.5-4.5c-0.3-0.9-0.4-1.5-0.5-1.8
			c-2.6,2.5-5.3,4.4-8.3,5.6c-2.9,1.3-6.1,1.9-9.4,1.9c-5.9,0-10.5-1.6-13.9-4.8c-3.4-3.2-5.1-7.2-5.1-12.1c0-3.2,0.8-6.1,2.3-8.6
			s3.7-4.5,6.5-5.8s6.8-2.5,12-3.5c7.1-1.3,11.9-2.6,14.7-3.7v-1.5c0-2.9-0.7-5-2.1-6.2s-4.1-1.9-8.1-1.9c-2.7,0-4.8,0.5-6.3,1.6
			C325.6,80.9,324.4,82.8,323.5,85.4z M343.7,97.7c-1.9,0.6-5,1.4-9.2,2.3s-6.9,1.8-8.2,2.6c-2,1.4-3,3.2-3,5.3
			c0,2.1,0.8,3.9,2.4,5.5c1.6,1.5,3.6,2.3,6,2.3c2.7,0,5.3-0.9,7.8-2.7c1.8-1.4,3-3,3.6-5c0.4-1.3,0.6-3.7,0.6-7.4L343.7,97.7
			L343.7,97.7z"/>
		<path class="st0" d="M387.8,125.1h-15.1V68h14v8.1c2.4-3.8,4.6-6.4,6.5-7.6s4.1-1.8,6.5-1.8c3.4,0,6.7,0.9,9.9,2.8L405,82.7
			c-2.5-1.6-4.9-2.5-7.1-2.5c-2.1,0-3.9,0.6-5.4,1.7c-1.5,1.2-2.6,3.3-3.5,6.3c-0.8,3-1.3,9.4-1.3,19.1L387.8,125.1L387.8,125.1z"/>
		<path class="st0" d="M446.8,68v12h-10.3v23c0,4.7,0.1,7.4,0.3,8.1c0.2,0.8,0.6,1.4,1.3,1.9c0.7,0.5,1.5,0.8,2.6,0.8
			c1.4,0,3.4-0.5,6.1-1.5l1.3,11.7c-3.5,1.5-7.5,2.3-11.9,2.3c-2.7,0-5.2-0.5-7.4-1.4c-2.2-0.9-3.8-2.1-4.8-3.5
			c-1-1.5-1.7-3.4-2.1-5.9c-0.3-1.8-0.5-5.3-0.5-10.6V80.1h-6.9V68h6.9V56.7l15.1-8.8V68H446.8z"/>
		<path class="st0" d="M457.5,125.1V46.3H473l32.2,52.6V46.3H520V125h-16l-31.7-51.3V125L457.5,125.1L457.5,125.1z"/>
		<path class="st0" d="M536.8,125.1V46.3h58.4v13.3h-42.5v17.5h39.5v13.3h-39.5v21.4h44v13.3C596.7,125.1,536.8,125.1,536.8,125.1z"
			/>
		<path class="st0" d="M627.9,125.1V59.6h-23.4V46.3h62.6v13.3h-23.3V125L627.9,125.1L627.9,125.1z"/>
	</g>
</g>
</svg>
