<?xml version="1.0" encoding="utf-8"?>
<!-- Generator: Adobe Illustrator 16.0.3, SVG Export Plug-In . SVG Version: 6.00 Build 0)  -->
<!DOCTYPE svg PUBLIC "-//W3C//DTD SVG 1.1//EN" "http://www.w3.org/Graphics/SVG/1.1/DTD/svg11.dtd">
<svg version="1.1" id="Layer_1" xmlns="http://www.w3.org/2000/svg" xmlns:xlink="http://www.w3.org/1999/xlink" x="0px" y="0px"
	 width="708.661px" height="198.425px" viewBox="70.844 326.002 708.661 198.425"
	 enable-background="new 70.844 326.002 708.661 198.425" xml:space="preserve">
<g id="earth_1_">
	<g id="green_1_">
		<path fill="#80B839" d="M168.559,342.4c-2.903-0.39-3.198-0.408-8.12-0.7c-2.477-0.085-2.653-0.081-7.151,0.059
			c-2.219,0.119-2.3,0.128-6.522,0.609c-1.287,0.185-2.996,0.476-4.277,0.694c-26.808,5.549-49.173,24.384-54.39,45.799
			c20.992-50.244,80.447-44.808,81.026-44.703l1.445,0.292c3.243,0.784,5.497,1.396,9.407,3.279
			c2.995,1.711,3.177,1.814,4.479,2.814l1.866,1.604l0.856,0.85c2.121,2.515,2.612,3.677,2.973,4.525
			c7.598,17.947-27.679,32.896-49.526,25.414c-16.716-5.729-16.982-21.09-0.501-28.836c-1.054,0.468-3.853,1.715-6.905,3.815
			c-22.553,15.538-12.774,41.506,17.737,47.094c33.107,6.068,76.783-14.611,58.996-42.315l-1.116-1.428l-1.284-1.419
			c-3.644-3.808-7.502-6.221-10.793-8.081c-2.126-1.132-5.03-2.506-7.208-3.531c-4.72-1.956-5.748-2.257-11.459-3.939
			C174.489,343.377,173.929,343.282,168.559,342.4"/>
		<path fill="#777B7C" d="M224.174,376.822l0.891,1.594c9.858,20.479-6.643,34.764-14.192,39.955
			c-42.505,29.213-118.192,12.729-109.111-34.129c-8.307,19.753-2.206,40.072,16.32,54.36
			c42.999,33.16,124.331,12.773,119.213-29.879l-1.318-6.156c-1.548-5.771-1.883-6.564-5.052-14.169
			c-2.579-5.367-3.041-6.073-7.479-12.838l-1.283-1.738L224.174,376.822z M222.164,373.821l-0.062-0.089l-0.277-0.37
			L222.164,373.821z"/>
		<path fill="#777B7C" d="M234.488,442.019c-22.21,42.117-129.543,49.416-150.081-17.573c0.313,2.394,0.687,4.575,1.108,6.485
			c14.839,67.268,117.362,71.73,141.413,33.223c1.124-1.914,2.485-4.543,3.519-6.506c3.613-7.664,4.752-12.229,6.332-18.541
			c0.583-2.643,0.995-6.236,1.356-8.922C237.716,433.169,237.191,436.884,234.488,442.019"/>
		<path fill="#777B7C" d="M94.428,467.929c20.463,34.293,52.427,38.377,77.052,34.293c0.929-0.164,2.164-0.422,3.091-0.598
			c2.03-0.439,2.03-0.439,6.055-1.553c2.077-0.619,2.077-0.619,6.194-2.119c2.197-0.855,2.197-0.855,6.371-2.793
			c2.325-1.143,2.407-1.186,6.588-3.613c2.58-1.592,2.664-1.652,7-4.813l0.252-0.191c-28.521,21.377-84.26,19.703-111.773-17.547"/>
	</g>
</g>
<g>
	<path fill="#777B7C" d="M295.558,352.184c2.38,0,4.414,0.848,6.1,2.54c1.686,1.694,2.528,3.735,2.528,6.126
		c0,2.342-0.844,4.359-2.528,6.051c-1.687,1.694-3.719,2.54-6.1,2.54c-2.331,0-4.34-0.846-6.025-2.54
		c-1.686-1.692-2.528-3.709-2.528-6.051c0-2.391,0.843-4.432,2.528-6.126C291.218,353.032,293.227,352.184,295.558,352.184z
		 M290.366,385.653h10.459v81.276h-10.459V385.653L290.366,385.653z"/>
	<path fill="#777B7C" d="M316.276,466.929L332.01,357.04h1.785l44.675,90.167l44.25-90.167h1.76l15.815,109.889h-10.77
		l-10.858-78.587l-38.86,78.587h-2.808l-39.319-79.184l-10.795,79.184H316.276L316.276,466.929z"/>
	<path fill="#777B7C" d="M531.146,385.644v81.391h-9.969v-15.303c-4.234,5.074-8.99,8.891-14.264,11.453
		c-5.27,2.561-11.039,3.84-17.295,3.84c-11.129,0-20.627-3.971-28.5-11.914c-7.873-7.941-11.809-17.605-11.809-28.988
		c0-11.138,3.973-20.669,11.916-28.589c7.945-7.919,17.504-11.88,28.68-11.88c6.449,0,12.287,1.352,17.514,4.054
		c5.223,2.704,9.813,6.758,13.758,12.165v-16.228H531.146z M490.738,395.257c-5.629,0-10.828,1.362-15.59,4.085
		c-4.762,2.725-8.551,6.55-11.363,11.477c-2.813,4.925-4.219,10.134-4.219,15.625c0,5.447,1.418,10.66,4.256,15.633
		c2.836,4.973,6.648,8.846,11.434,11.615c4.785,2.771,9.926,4.158,15.41,4.158c5.527,0,10.771-1.375,15.725-4.123
		s8.766-6.467,11.436-11.154c2.668-4.689,4.004-9.971,4.004-15.844c0-8.949-2.994-16.434-8.982-22.449
		C506.859,398.265,499.488,395.257,490.738,395.257z"/>
	<path fill="#777B7C" d="M560.792,355.472h10.459v30.182h15.053v9.039h-15.053v72.238h-10.459v-72.238h-15.271v-9.039h15.271
		V355.472z"/>
	<path fill="#777B7C" d="M601.568,385.653h10.684v13.881c3.188-4.682,6.549-8.181,10.084-10.497
		c3.537-2.316,7.223-3.475,11.057-3.475c2.891,0,5.979,0.922,9.266,2.765l-5.453,8.816c-2.191-0.946-4.033-1.42-5.527-1.42
		c-3.486,0-6.85,1.433-10.086,4.296c-3.238,2.864-5.703,7.31-7.396,13.335c-1.295,4.631-1.941,11.989-1.941,26.083v27.492H601.57
		v-81.276H601.568z"/>
	<path fill="#777B7C" d="M664.175,352.184c2.379,0,4.414,0.848,6.102,2.54c1.686,1.694,2.527,3.735,2.527,6.126
		c0,2.342-0.844,4.359-2.527,6.051c-1.688,1.694-3.723,2.54-6.102,2.54c-2.332,0-4.34-0.846-6.023-2.54
		c-1.688-1.692-2.529-3.709-2.529-6.051c0-2.391,0.844-4.432,2.529-6.126C659.835,353.032,661.843,352.184,664.175,352.184z
		 M658.984,385.653h10.459v81.276h-10.459V385.653z"/>
	<path fill="#777B7C" d="M688.923,385.653h12.551l21.619,29.733l21.393-29.733h12.57l-27.666,38.392l31.18,42.884h-12.74
		l-24.74-34.139l-24.598,34.139h-12.482l30.797-42.808L688.923,385.653z"/>
</g>
<rect x="288.697" y="486.572" fill="none" width="474" height="16.9"/>
<text transform="matrix(1 0 0 1 288.6973 502.5708)" fill="#797D7E" font-family="'Roboto-Regular'" font-size="21">IoT Solutions from the Thing to the iMatrix Cloud</text>
</svg>
