<?xml version="1.0" encoding="utf-8"?>
<!-- Generator: Adobe Illustrator 16.0.3, SVG Export Plug-In . SVG Version: 6.00 Build 0)  -->
<!DOCTYPE svg PUBLIC "-//W3C//DTD SVG 1.1//EN" "http://www.w3.org/Graphics/SVG/1.1/DTD/svg11.dtd">
<svg version="1.1" id="Layer_1" xmlns="http://www.w3.org/2000/svg" xmlns:xlink="http://www.w3.org/1999/xlink" x="0px" y="0px"
	 width="708.661px" height="198.425px" viewBox="0 0 708.661 198.425" enable-background="new 0 0 708.661 198.425"
	 xml:space="preserve">
<g id="earth_1_">
	<g>
		<g id="green_9_">
			<g>
				<path fill="#D3E6BF" d="M97.693,16.418c-2.903-0.39-3.198-0.408-8.12-0.7c-2.477-0.085-2.653-0.081-7.151,0.059
					c-2.219,0.119-2.3,0.128-6.522,0.609c-1.287,0.185-2.996,0.476-4.277,0.694c-26.808,5.549-49.173,24.384-54.39,45.799
					C38.224,12.635,97.68,18.071,98.259,18.176l1.445,0.292c3.243,0.784,5.497,1.396,9.407,3.279
					c2.995,1.711,3.177,1.814,4.479,2.814l1.866,1.604l0.856,0.85c2.121,2.515,2.612,3.677,2.973,4.525
					c7.598,17.947-27.679,32.896-49.526,25.414c-16.716-5.729-16.982-21.09-0.501-28.836c-1.054,0.468-3.853,1.715-6.905,3.815
					C39.801,47.47,49.579,73.438,80.091,79.026c33.107,6.068,76.783-14.611,58.996-42.315l-1.116-1.428l-1.284-1.419
					c-3.644-3.808-7.502-6.221-10.793-8.081c-2.126-1.132-5.03-2.506-7.208-3.531c-4.72-1.956-5.748-2.257-11.459-3.939
					C103.623,17.395,103.063,17.3,97.693,16.418"/>
			</g>
			<path fill="#D2D3D3" d="M153.308,50.84l0.891,1.594c9.858,20.479-6.643,34.764-14.192,39.954
				C97.502,121.601,21.815,105.116,30.896,58.259c-8.307,19.753-2.206,40.072,16.32,54.359
				c42.999,33.161,124.331,12.775,119.213-29.878l-1.318-6.156c-1.548-5.771-1.883-6.564-5.052-14.169
				c-2.579-5.367-3.041-6.073-7.479-12.838l-1.283-1.738L153.308,50.84z M151.298,47.839l-0.062-0.089l-0.277-0.37L151.298,47.839z"
				/>
			<path fill="#D2D3D3" d="M163.622,116.036c-22.21,42.118-129.543,49.416-150.081-17.573c0.313,2.395,0.687,4.576,1.108,6.485
				c14.839,67.268,117.362,71.732,141.413,33.224c1.124-1.914,2.485-4.543,3.519-6.506c3.613-7.665,4.752-12.228,6.332-18.542
				c0.583-2.642,0.995-6.236,1.356-8.922C166.85,107.187,166.325,110.902,163.622,116.036"/>
			<path fill="#D2D3D3" d="M23.562,141.947c20.463,34.293,52.427,38.377,77.052,34.293c0.929-0.164,2.164-0.421,3.091-0.598
				c2.03-0.439,2.03-0.439,6.055-1.553c2.077-0.618,2.077-0.618,6.194-2.119c2.197-0.856,2.197-0.856,6.371-2.793
				c2.325-1.142,2.407-1.186,6.588-3.612c2.58-1.593,2.664-1.654,7-4.813l0.252-0.191c-28.521,21.376-84.26,19.702-111.773-17.548"
				/>
		</g>
	</g>
</g>
<g>
	<g>
		<path fill="#D2D3D3" d="M224.691,26.202c2.38,0,4.414,0.848,6.1,2.54c1.686,1.694,2.529,3.735,2.529,6.126
			c0,2.342-0.844,4.359-2.529,6.051c-1.686,1.694-3.719,2.54-6.1,2.54c-2.331,0-4.34-0.846-6.025-2.54
			c-1.686-1.692-2.528-3.709-2.528-6.051c0-2.391,0.843-4.432,2.528-6.126C220.352,27.05,222.36,26.202,224.691,26.202z
			 M219.5,59.671h10.459v81.276H219.5V59.671z"/>
		<path fill="#D2D3D3" d="M245.41,140.947l15.734-109.889h1.785l44.675,90.167l44.25-90.167h1.76l15.814,109.889h-10.77L347.8,62.36
			l-38.86,78.587h-2.808l-39.319-79.185l-10.795,79.185H245.41z"/>
		<path fill="#D2D3D3" d="M460.278,59.662v81.391h-9.967v-15.304c-4.236,5.075-8.992,8.892-14.264,11.453
			c-5.271,2.561-11.039,3.841-17.295,3.841c-11.129,0-20.627-3.971-28.5-11.915c-7.873-7.941-11.809-17.605-11.809-28.987
			c0-11.139,3.973-20.67,11.916-28.59c7.945-7.919,17.504-11.88,28.68-11.88c6.449,0,12.287,1.352,17.514,4.054
			c5.223,2.704,9.811,6.758,13.758,12.165V59.662H460.278z M419.872,69.274c-5.629,0-10.828,1.362-15.59,4.085
			c-4.762,2.725-8.551,6.55-11.363,11.477c-2.813,4.926-4.219,10.134-4.219,15.625c0,5.448,1.418,10.66,4.256,15.633
			c2.836,4.974,6.648,8.846,11.434,11.616c4.785,2.771,9.926,4.157,15.41,4.157c5.527,0,10.77-1.374,15.725-4.122
			c4.953-2.748,8.764-6.466,11.434-11.154c2.668-4.689,4.004-9.971,4.004-15.845c0-8.948-2.994-16.433-8.982-22.448
			C435.993,72.282,428.622,69.274,419.872,69.274z"/>
		<path fill="#D2D3D3" d="M489.927,29.489h10.459v30.182h15.053v9.039h-15.053v72.237h-10.459V68.71h-15.273v-9.039h15.273V29.489z"
			/>
		<path fill="#D2D3D3" d="M530.702,59.671h10.684v13.881c3.186-4.682,6.549-8.181,10.084-10.497
			c3.537-2.316,7.223-3.475,11.057-3.475c2.889,0,5.977,0.922,9.264,2.765l-5.453,8.816c-2.191-0.946-4.033-1.42-5.527-1.42
			c-3.486,0-6.85,1.433-10.086,4.296c-3.238,2.864-5.703,7.31-7.396,13.335c-1.295,4.631-1.941,11.99-1.941,26.083v27.492h-10.684
			V59.671z"/>
		<path fill="#D2D3D3" d="M593.31,26.202c2.379,0,4.414,0.848,6.1,2.54c1.686,1.694,2.529,3.735,2.529,6.126
			c0,2.342-0.844,4.359-2.529,6.051c-1.686,1.694-3.721,2.54-6.1,2.54c-2.332,0-4.34-0.846-6.025-2.54
			c-1.686-1.692-2.529-3.709-2.529-6.051c0-2.391,0.844-4.432,2.529-6.126C588.97,27.05,590.978,26.202,593.31,26.202z
			 M588.118,59.671h10.459v81.276h-10.459V59.671z"/>
		<path fill="#D2D3D3" d="M618.058,59.671h12.551l21.619,29.734l21.391-29.734h12.572l-27.666,38.394l31.178,42.883h-12.738
			l-24.74-34.138l-24.598,34.138h-12.482L645.94,98.14L618.058,59.671z"/>
	</g>
</g>
<g>
	<rect x="217.831" y="160.59" fill="none" width="474" height="16.899"/>
	<text transform="matrix(1 0 0 1 217.8306 176.5898)" fill="#D2D3D3" font-family="'Roboto-Regular'" font-size="21">IoT Solutions from the Thing to the iMatrix Cloud</text>
</g>
</svg>
