<?xml version="1.0" encoding="utf-8"?>
<!-- Generator: Adobe Illustrator 21.1.0, SVG Export Plug-In . SVG Version: 6.00 Build 0)  -->
<svg version="1.1" id="Шар_1" xmlns="http://www.w3.org/2000/svg" xmlns:xlink="http://www.w3.org/1999/xlink" x="0px" y="0px"
	 viewBox="0 0 2000 650" style="enable-background:new 0 0 2000 650;" xml:space="preserve">
<style type="text/css">
	.st0{fill:#E74629;}
	.st1{fill:#DCDBDB;}
	.st2{fill:#FFFFFF;}
</style>
<g>
	<path class="st0" d="M1823.9,633.1H175c-41.7,0-75.8-34.1-75.8-75.8V93.1c0-41.7,34.1-75.8,75.8-75.8h1648.9
		c41.7,0,75.8,34.1,75.8,75.8v464.1C1899.7,599,1865.6,633.1,1823.9,633.1z"/>
	<path class="st1" d="M77.6,93.4v42.6H31.2c-11.8,0-21.3-9.5-21.3-21.3v0c0-11.8,9.5-21.3,21.3-21.3H77.6z"/>
	<path class="st1" d="M77.6,177.6v42.6H31.2c-11.8,0-21.3-9.5-21.3-21.3v0c0-11.8,9.5-21.3,21.3-21.3H77.6z"/>
	<path class="st1" d="M77.6,261.8v42.6H31.2c-11.8,0-21.3-9.5-21.3-21.3v0c0-11.8,9.5-21.3,21.3-21.3H77.6z"/>
	<path class="st1" d="M77.6,388.6H31.2c-11.8,0-21.3-9.5-21.3-21.3v0c0-11.8,9.5-21.3,21.3-21.3h46.4V388.6z"/>
	<path class="st1" d="M77.6,472.8H31.2c-11.8,0-21.3-9.5-21.3-21.3v0c0-11.8,9.5-21.3,21.3-21.3h46.4V472.8z"/>
	<path class="st1" d="M77.6,557H31.2c-11.8,0-21.3-9.5-21.3-21.3l0,0c0-11.8,9.5-21.3,21.3-21.3h46.4V557z"/>
	<path class="st1" d="M1989.1,114.7L1989.1,114.7c0,11.8-9.5,21.3-21.3,21.3h-46.4V93.4h46.4C1979.6,93.4,1989.1,103,1989.1,114.7z"
		/>
	<path class="st1" d="M1989.1,198.9L1989.1,198.9c0,11.8-9.5,21.3-21.3,21.3h-46.4v-42.6h46.4
		C1979.6,177.6,1989.1,187.1,1989.1,198.9z"/>
	<path class="st1" d="M1989.1,283.1L1989.1,283.1c0,11.8-9.5,21.3-21.3,21.3h-46.4v-42.6h46.4
		C1979.6,261.8,1989.1,271.3,1989.1,283.1z"/>
	<path class="st1" d="M1921.4,557h46.4c11.8,0,21.3-9.5,21.3-21.3v0c0-11.8-9.5-21.3-21.3-21.3h-46.4V557z"/>
	<path class="st1" d="M1921.4,472.8h46.4c11.8,0,21.3-9.5,21.3-21.3v0c0-11.8-9.5-21.3-21.3-21.3h-46.4V472.8z"/>
	<path class="st1" d="M1921.4,388.6h46.4c11.8,0,21.3-9.5,21.3-21.3v0c0-11.8-9.5-21.3-21.3-21.3h-46.4V388.6z"/>
</g>
<g>
	<path class="st2" d="M209,186.7c0-14.9,11.3-26.7,26.1-26.7s26.7,11.9,26.7,26.7c0,14.9-11.9,26.1-26.7,26.1S209,201.5,209,186.7z
		 M215,294.8h41v205.6h-41V294.8z"/>
	<path class="st2" d="M343.3,143.9h146.2c88.5,0,142,41.6,142,118.8c0,80.8-56.4,123.6-144.4,123.6H384.9v114.1h-41.6V143.9z
		 M488.3,182.5H384.9v165.2h103.4c61.2,0,101-24.4,101-83.8C589.3,208.7,548.9,182.5,488.3,182.5z"/>
	<path class="st2" d="M757.4,505.2c-61.8,0-111.7-41-111.7-106.4c0-66,49.9-108.7,111.7-108.7s112.3,42.8,112.3,108.7
		C869.7,464.2,819.2,505.2,757.4,505.2z M829.3,398.2c0-45.8-32.7-74.9-71.9-74.9c-38.6,0-71.3,29.1-71.3,74.9s32.7,73.7,71.3,73.7
		C796.7,471.9,829.3,444,829.3,398.2z"/>
	<path class="st2" d="M1022.4,505.2c-61.8,0-111.7-41-111.7-106.4c0-66,49.9-108.7,111.7-108.7c61.8,0,112.3,42.8,112.3,108.7
		C1134.7,464.2,1084.2,505.2,1022.4,505.2z M1094.3,398.2c0-45.8-32.7-74.9-71.9-74.9c-38.6,0-71.3,29.1-71.3,74.9
		s32.7,73.7,71.3,73.7C1061.7,471.9,1094.3,444,1094.3,398.2z"/>
	<path class="st2" d="M1191.8,103.5h41v396.9h-41V103.5z"/>
	<path class="st2" d="M1311.8,448.1c16,0,28.5,12.5,28.5,28.5s-12.5,28.5-28.5,28.5s-28.5-12.5-28.5-28.5S1295.7,448.1,1311.8,448.1
		z"/>
	<path class="st2" d="M1385.5,186.7c0-14.9,11.3-26.7,26.1-26.7c14.9,0,26.7,11.9,26.7,26.7c0,14.9-11.9,26.1-26.7,26.1
		C1396.7,212.8,1385.5,201.5,1385.5,186.7z M1391.4,294.8h41v205.6h-41V294.8z"/>
	<path class="st2" d="M1601.1,505.2c-61.8,0-111.7-41-111.7-106.4c0-66,49.9-108.7,111.7-108.7c61.8,0,112.3,42.8,112.3,108.7
		C1713.4,464.2,1662.9,505.2,1601.1,505.2z M1673,398.2c0-45.8-32.7-74.9-71.9-74.9c-38.6,0-71.3,29.1-71.3,74.9
		s32.7,73.7,71.3,73.7C1640.3,471.9,1673,444,1673,398.2z"/>
	<path class="st2" d="M1775.8,292.9c-22,0-35.1-15.9-35.1-34.6c0-18.9,13.1-34.6,35.1-34.6c22,0,35.4,15.7,35.4,34.6
		C1811.2,277.2,1797.8,292.9,1775.8,292.9z M1775.8,230.1c-17.1,0-28.4,11.6-28.4,28.2c0,15.9,11.3,28.2,28.4,28.2
		c17.2,0,28.5-12.2,28.5-28.2C1804.3,242.2,1793,230.1,1775.8,230.1z M1776.6,242.7c7.9,0,13.5,4,13.5,11c0,4.8-2.4,7.7-6.1,9.5
		l6.4,8.2v1.3h-5.6l-6.1-8h-10.4v8h-5.5v-30H1776.6z M1768.2,247.7v12h8c4.6,0,8-1.8,8-6.1c0-4-3.1-5.9-7.7-5.9H1768.2z"/>
</g>
</svg>
