<?xml version="1.0" encoding="utf-8"?>
<!-- Generator: Adobe Illustrator 21.1.0, SVG Export Plug-In . SVG Version: 6.00 Build 0)  -->
<svg version="1.1" xmlns="http://www.w3.org/2000/svg" xmlns:xlink="http://www.w3.org/1999/xlink" x="0px" y="0px"
	 viewBox="0 0 73.3 123.7" style="enable-background:new 0 0 73.3 123.7;" xml:space="preserve">
<style type="text/css">
	.st0{display:none;}
	.st1{display:inline;}
	.st2{clip-path:url(#SVGID_2_);}
	.st3{fill-rule:evenodd;clip-rule:evenodd;fill:#314057;}
	.st4{fill:none;stroke:#FAFAFA;stroke-width:0.9144;stroke-miterlimit:10;}
	.st5{fill:none;stroke:#FAFAFA;stroke-width:1.8288;stroke-miterlimit:10;}
	.st6{fill:#FAFAFA;}
</style>
<g id="Layer_1" class="st0">
	<g class="st1">
		<defs>
			<rect id="SVGID_1_" x="16.6" y="27.3" width="39.5" height="67.5"/>
		</defs>
		<clipPath id="SVGID_2_">
			<use xlink:href="#SVGID_1_"  style="overflow:visible;"/>
		</clipPath>
		<g class="st2">
			<path class="st3" d="M-43.5,191.4c0.1-0.3,0.2-0.5,0.2-0.8c0-4.7,0-9.4,0-14.1c0-0.1,0-0.2-0.1-0.4c-1.3-0.8-2.7-1.5-4-2.3
				c-2.7-1.6-5.4-3.1-8.1-4.7c-0.3-0.2-0.7-0.3-1.1-0.4c-0.1-0.3-0.3-0.5-0.4-0.8c0.2-0.2,0.4-0.4,0.6-0.7c0.3,0.2,0.6,0.3,1,0.5
				c3.9,2.2,7.8,4.4,11.6,6.7c0.8,0.5,1.4,0.6,2.3,0c3.8-2.3,7.7-4.5,11.5-6.7c0.4-0.2,0.7-0.4,1.1-0.6c0.2,0.3,0.3,0.6,0.6,1
				c-0.3,0.2-0.7,0.4-1,0.6c-3.9,2.3-7.8,4.5-11.7,6.7c-0.7,0.4-1,0.9-1,1.7c0.1,4.5,0,9,0,13.5c0,0.4,0,0.8,0,1.2
				c-0.3,0.1-0.6,0.1-0.9,0.2C-43.2,191.9-43.3,191.7-43.5,191.4z M-42.2,175.5c-0.3,0-0.6,0-0.7,0.1c-0.1,0.1-0.1,0.3-0.1,0.5
				c0.2,0,0.4,0.1,0.6,0.1C-42.3,176.1-42.3,175.8-42.2,175.5z"/>
			<path class="st3" d="M-82.9,123c0.1-0.3,0.2-0.5,0.2-0.8c0-4.7,0-9.4,0-14.1c0-0.1,0-0.2-0.1-0.4c-1.4-0.8-2.7-1.6-4.1-2.4
				c-2.7-1.5-5.3-3.1-8-4.6c-0.3-0.2-0.7-0.3-1.1-0.4c-0.1-0.3-0.3-0.5-0.4-0.8c0.2-0.2,0.4-0.4,0.6-0.7c0.3,0.2,0.7,0.4,1.1,0.6
				c3.8,2.2,7.6,4.4,11.4,6.6c1.5,0.9,1,0.9,2.5,0c3.8-2.2,7.6-4.4,11.4-6.6c0.4-0.2,0.7-0.4,1.1-0.6c0.2,0.3,0.3,0.6,0.6,1
				c-0.3,0.2-0.7,0.4-1,0.6c-3.9,2.3-7.8,4.5-11.7,6.7c-0.7,0.4-1,0.9-1,1.7c0.1,4.5,0,9,0,13.5c0,0.4,0,0.8,0,1.2
				c-0.3,0.1-0.6,0.1-0.9,0.2C-82.6,123.5-82.8,123.3-82.9,123z M-81.9,107.9c0.1-0.3,0.2-0.5,0.1-0.7c0-0.1-0.4-0.2-0.4-0.1
				c-0.1,0.1-0.3,0.3-0.2,0.5C-82.4,107.7-82.2,107.8-81.9,107.9z"/>
			<path class="st3" d="M-122.4,54.6c0.1-0.3,0.2-0.5,0.2-0.8c0-4.7,0-9.4,0-14.1c0-0.1,0-0.2-0.1-0.4c-1.4-0.8-2.9-1.7-4.3-2.5
				c-2.6-1.5-5.2-3-7.8-4.5c-0.3-0.2-0.7-0.3-1.1-0.4c-0.1-0.3-0.3-0.5-0.4-0.8c0.2-0.2,0.4-0.4,0.6-0.7c0.3,0.2,0.6,0.3,1,0.5
				c3.8,2.2,7.7,4.4,11.5,6.6c1.5,0.9,1,0.9,2.5,0c3.8-2.2,7.6-4.4,11.4-6.6c0.4-0.2,0.7-0.4,1.1-0.6c0.2,0.3,0.3,0.6,0.6,1
				c-0.3,0.2-0.7,0.4-1,0.6c-3.9,2.3-7.8,4.5-11.7,6.7c-0.7,0.4-1,0.9-1,1.7c0.1,4.5,0,9.1,0,13.6c0,0.4,0,0.7,0,1.1
				c-0.3,0.1-0.6,0.1-0.9,0.2C-122.1,55.2-122.3,54.9-122.4,54.6z M-121.1,38.7c-0.3,0-0.5,0-0.7,0c-0.1,0.1-0.1,0.3-0.1,0.5
				c0.2,0,0.4,0.2,0.6,0.1C-121.3,39.3-121.3,39-121.1,38.7z"/>
			<path class="st3" d="M-102.6,88.9c0.1-0.3,0.2-0.6,0.2-1c0-4.6,0-9.3,0-13.9c0-0.1,0-0.2,0-0.4c-0.2-0.1-0.5-0.3-0.7-0.5
				c-3.8-2.2-7.6-4.4-11.4-6.6c-0.3-0.2-0.6-0.6-1.1-0.3c-0.1-0.3-0.3-0.5-0.4-0.8c0.2-0.2,0.3-0.5,0.5-0.8c0.3,0.1,0.6,0.3,0.8,0.4
				c4,2.3,8,4.6,12,6.9c0.7,0.4,1.2,0.4,1.9,0c3.9-2.3,7.7-4.5,11.6-6.7c0.4-0.2,0.8-0.4,1.2-0.7c0.2,0.3,0.3,0.6,0.5,0.9
				c-0.1,0.1-0.2,0.2-0.4,0.3c-2.9,1.7-5.8,3.4-8.7,5c-1.3,0.7-2.6,1.5-3.9,2.2c-0.6,0.3-0.8,0.7-0.8,1.3c0,4.6,0,9.2,0,13.9
				c0,0.4,0,0.7,0,1.1c-0.4,0-0.7,0-1,0C-102.4,89.3-102.5,89.1-102.6,88.9z M-102.3,73.5c0.3,0,0.5,0.2,0.7,0.1
				c0.1-0.1,0.1-0.3,0.2-0.5c-0.2-0.1-0.4-0.2-0.5-0.2C-102.2,73-102.2,73.2-102.3,73.5z"/>
			<path class="st3" d="M-63.1,157.3c0.1-0.3,0.2-0.6,0.2-1c0-4.6,0-9.3,0-13.9c0-0.1,0-0.2,0-0.4c-0.2-0.1-0.5-0.3-0.7-0.5
				c-3.8-2.2-7.6-4.4-11.4-6.6c-0.3-0.2-0.6-0.6-1.1-0.3c-0.1-0.3-0.3-0.5-0.4-0.8c0.2-0.2,0.3-0.5,0.5-0.8c0.3,0.1,0.6,0.3,0.8,0.4
				c4,2.3,8,4.6,12,6.9c0.7,0.4,1.2,0.4,1.9,0c3.9-2.3,7.7-4.5,11.6-6.7c0.4-0.2,0.8-0.4,1.2-0.7c0.2,0.3,0.3,0.6,0.5,0.9
				c-0.1,0.1-0.2,0.2-0.4,0.3c-3,1.7-5.9,3.4-8.9,5.1c-1.2,0.7-2.4,1.4-3.7,2.1c-0.6,0.3-0.8,0.7-0.8,1.3c0,4.7,0,9.4,0,14.1
				c0,0.3,0,0.6,0,0.9c-0.3,0-0.7,0-1,0C-62.9,157.7-63,157.5-63.1,157.3z M-61.9,141.3c-0.3,0-0.6-0.1-0.7,0
				c-0.1,0.1-0.1,0.4-0.1,0.6c0.2,0,0.4,0.2,0.6,0.1C-62,141.9-62,141.6-61.9,141.3z"/>
			<path class="st3" d="M-23.7,225.7c0.1-0.3,0.2-0.6,0.2-1c0-4.6,0-9.3,0-13.9c0-0.1,0-0.2,0-0.4c-0.2-0.1-0.5-0.3-0.7-0.5
				c-3.8-2.2-7.6-4.4-11.4-6.6c-0.3-0.2-0.6-0.6-1.1-0.3c-0.1-0.3-0.3-0.5-0.4-0.8c0.2-0.2,0.3-0.5,0.5-0.8c0.3,0.1,0.6,0.3,0.8,0.4
				c4,2.3,8,4.6,12,6.9c0.7,0.4,1.2,0.4,1.9,0c3.9-2.3,7.7-4.5,11.6-6.7c0.4-0.2,0.8-0.4,1.2-0.7c0.2,0.3,0.3,0.6,0.5,0.9
				c-0.1,0.1-0.2,0.2-0.4,0.3c-3.3,1.9-6.6,3.8-10,5.8c-0.9,0.5-1.7,1-2.6,1.5c-0.6,0.3-0.8,0.7-0.8,1.3c0,4.7,0,9.4,0,14.1
				c0,0.3,0,0.6,0,0.9c-0.3,0-0.7,0-1,0C-23.4,226.1-23.5,225.9-23.7,225.7z M-22.4,209.7c-0.3,0-0.6-0.1-0.7,0
				c-0.1,0.1-0.1,0.4-0.1,0.6c0.2,0,0.4,0.2,0.6,0.1C-22.5,210.3-22.5,210-22.4,209.7z"/>
			<path class="st3" d="M-142.1,20.5c0.1-0.3,0.2-0.6,0.2-1c0-4.6,0-9.3,0-13.9c0-0.1,0-0.2,0-0.4c-0.2-0.1-0.4-0.3-0.6-0.4
				c-3.8-2.2-7.7-4.4-11.5-6.6c-0.3-0.2-0.6-0.6-1.1-0.3c-0.1-0.3-0.3-0.5-0.4-0.8c0.2-0.2,0.3-0.5,0.5-0.8c0.3,0.1,0.6,0.3,0.8,0.4
				c4,2.3,8,4.6,12,6.9c0.7,0.4,1.2,0.4,1.9,0c3.9-2.3,7.7-4.5,11.6-6.7c0.4-0.2,0.8-0.4,1.2-0.7c0.2,0.3,0.3,0.6,0.5,0.9
				c-0.1,0.1-0.2,0.2-0.4,0.3c-3,1.7-5.9,3.4-8.9,5.1c-1.2,0.7-2.4,1.4-3.7,2.1c-0.6,0.3-0.8,0.7-0.8,1.3c0,4.6,0,9.2,0,13.9
				c0,0.4,0,0.7,0,1.1c-0.4,0-0.7,0-1,0C-141.9,20.9-142,20.7-142.1,20.5z M-141,5.3c0-0.3,0.1-0.6,0-0.7c-0.1-0.1-0.4-0.2-0.5-0.1
				c-0.1,0.1-0.2,0.4-0.1,0.5C-141.6,5.2-141.3,5.2-141,5.3z"/>
			<path class="st3" d="M-161.9-13.8c0.1-0.3,0.2-0.5,0.2-0.8c0-4.7,0-9.3,0-14c0-0.1,0-0.2-0.1-0.4c-0.8-0.4-1.6-0.9-2.4-1.4
				c-3.2-1.9-6.4-3.7-9.7-5.6c-0.3-0.2-0.6-0.6-1.1-0.3c-0.1-0.3-0.3-0.5-0.4-0.8c0.2-0.2,0.3-0.5,0.5-0.8c0.3,0.1,0.6,0.3,0.8,0.4
				c4,2.3,8,4.6,12,6.9c0.7,0.4,1.2,0.4,1.9,0c3.9-2.3,7.7-4.5,11.6-6.7c0.4-0.2,0.8-0.4,1.2-0.7c0.2,0.3,0.3,0.5,0.5,0.7
				c-0.1,0.1-0.1,0.2-0.2,0.3c-2.5,1.4-5,2.9-7.4,4.3c-1.5,0.9-3.1,1.8-4.6,2.7c-1.7,1-1.4,0.5-1.4,2.4c0,4.4,0,8.9,0,13.3
				c0,0.3,0,0.7,0,1c-0.3,0.1-0.6,0.1-0.9,0.2C-161.6-13.2-161.8-13.5-161.9-13.8z M-160.6-29.6c-0.3,0-0.5,0-0.6,0.1
				c-0.1,0.1-0.1,0.3-0.2,0.5c0.2,0,0.4,0.1,0.6,0C-160.7-29.1-160.7-29.3-160.6-29.6z"/>
			<path class="st3" d="M-100-85.9c4.2,2.4,8.4,4.8,12.6,7.3c-0.2,0.3-0.3,0.6-0.5,1c-4.4-2.5-8.8-5.1-13.2-7.6
				C-100.8-85.5-100.4-85.7-100-85.9z"/>
			<path class="st3" d="M18.6-154.4c4.2,2.4,8.4,4.8,12.6,7.3c-0.2,0.3-0.3,0.6-0.5,1c-4.4-2.5-8.8-5.1-13.2-7.6
				C17.8-153.9,18.2-154.2,18.6-154.4z"/>
			<path class="st3" d="M-81.4-96.7c0,5.1,0,10.1,0,15.2c-0.4,0-0.8,0-1.2,0c0-4.9,0-9.7,0-14.5C-82.2-96.2-81.8-96.4-81.4-96.7z"/>
			<path class="st3" d="M-40.7-120.1c4.2,2.4,8.4,4.8,12.6,7.3c-0.2,0.3-0.3,0.6-0.5,1c-4.4-2.5-8.8-5.1-13.2-7.6
				C-41.5-119.7-41.1-119.9-40.7-120.1z"/>
			<path class="st3" d="M-22.1-130.9c0,5.1,0,10.1,0,15.2c-0.4,0-0.8,0-1.2,0c0-4.9,0-9.7,0-14.5C-22.9-130.4-22.5-130.7-22.1-130.9
				z"/>
			<path class="st3" d="M-140.7-62.4c0,5.1,0,10.1,0,15.2c-0.4,0-0.8,0-1.2,0c0-4.9,0-9.7,0-14.5C-141.4-62-141.1-62.2-140.7-62.4z"
				/>
			<path class="st3" d="M-159.3-51.7c4.2,2.4,8.4,4.8,12.6,7.3c-0.2,0.3-0.3,0.6-0.5,1c-4.4-2.5-8.8-5.1-13.2-7.6
				C-160-51.2-159.7-51.5-159.3-51.7z"/>
			<path class="st3" d="M77.9-188.6c4.2,2.4,8.4,4.8,12.6,7.3c-0.2,0.3-0.3,0.6-0.5,1c-4.4-2.5-8.8-5.1-13.2-7.6
				C77.1-188.2,77.5-188.4,77.9-188.6z"/>
			<path class="st3" d="M37.2-165.1c0,5.1,0,10.1,0,15.2c-0.4,0-0.8,0-1.2,0c0-4.9,0-9.7,0-14.5C36.4-164.7,36.8-164.9,37.2-165.1z"
				/>
			<path class="st3" d="M-3.6,220.1c0-1.7-0.1-3.5-0.1-5.2c0-3.2,0-6.4,0-9.6c0.4,0,0.7,0,1.1,0c0,0.4,0,0.8,0,1.2
				c0,3.9,0,7.9,0,11.8c0,0.4,0,0.8,0.1,1.2C-2.9,219.6-3.3,219.9-3.6,220.1z"/>
			<path class="st3" d="M14.6,209.6c-0.6-0.4-1.2-0.8-1.8-1.1c-3.5-2-6.9-4-10.5-6c0.2-0.3,0.3-0.6,0.5-1c0.3,0.2,0.6,0.3,1,0.5
				c3.7,2.1,7.3,4.2,11,6.4c0.3,0.2,0.6,0.4,0.9,0.6C15.3,209.1,15,209.4,14.6,209.6z"/>
			<path class="st3" d="M55.6,185.9c0-1.7-0.1-3.4-0.1-5.1c0-3.2,0-6.5,0-9.8c0.4,0,0.7,0,1.1,0c0,0.4,0,0.8,0,1.2c0,4,0,7.9,0,11.9
				c0,0.4,0,0.7,0.1,1.1C56.4,185.4,56,185.6,55.6,185.9z"/>
			<path class="st3" d="M73.8,175.4c-0.4-0.3-0.8-0.5-1.2-0.8c-3.3-1.9-6.6-3.8-9.9-5.7c-0.4-0.2-0.7-0.4-1.1-0.7
				c0.2-0.3,0.3-0.6,0.5-1c0.3,0.2,0.6,0.3,1,0.5c3.7,2.1,7.3,4.2,11,6.4c0.3,0.2,0.6,0.4,0.9,0.6C74.6,174.9,74.2,175.1,73.8,175.4
				z"/>
			<path class="st3" d="M114.9,151.6c0-1.7-0.1-3.5-0.1-5.2c0-3.2,0-6.4,0-9.6c0.4,0,0.7,0,1.1,0c0,0.4,0,0.8,0,1.2
				c0,3.9,0,7.9,0,11.8c0,0.4,0,0.8,0.1,1.2C115.7,151.2,115.3,151.4,114.9,151.6z"/>
			<path class="st3" d="M133.1,141.1c-0.6-0.4-1.2-0.8-1.8-1.1c-3.5-2-6.9-4-10.5-6c0.2-0.3,0.3-0.6,0.5-1c0.3,0.2,0.6,0.3,1,0.5
				c3.7,2.1,7.3,4.2,11,6.4c0.3,0.2,0.6,0.4,0.9,0.6C133.9,140.7,133.5,140.9,133.1,141.1z"/>
			<path class="st3" d="M174.2,117.4c0-1.7-0.1-3.4-0.1-5.1c0-3.2,0-6.5,0-9.8c0.4,0,0.7,0,1.1,0c0,0.4,0,0.8,0,1.2c0,4,0,8,0,11.9
				c0,0.4,0,0.7,0.1,1.1C175,117,174.6,117.2,174.2,117.4z"/>
			<path class="st3" d="M192.4,106.9c-0.4-0.3-0.8-0.5-1.2-0.8c-3.3-1.9-6.6-3.8-9.9-5.7c-0.4-0.2-0.7-0.4-1.1-0.7
				c0.2-0.3,0.3-0.6,0.5-1c0.3,0.2,0.6,0.3,1,0.5c3.7,2.1,7.3,4.2,11,6.4c0.3,0.2,0.6,0.4,0.9,0.6
				C193.2,106.5,192.8,106.7,192.4,106.9z"/>
			<path class="st3" d="M233.5,83.2c0-1.7-0.1-3.5-0.1-5.2c0-3.2,0-6.4,0-9.6c0.4,0,0.7,0,1.1,0c0,0.4,0,0.8,0,1.2
				c0,3.9,0,7.9,0,11.8c0,0.4,0,0.8,0.1,1.2C234.3,82.7,233.9,83,233.5,83.2z"/>
			<path class="st3" d="M149.8-100.2c-3-1.7-6-3.5-9.1-5.3c0.2-0.3,0.4-0.6,0.6-1c1.4,0.8,2.9,1.7,4.3,2.5c1,0.6,2,1.1,3,1.6
				C149-101.6,149.4-100.9,149.8-100.2z"/>
			<path class="st3" d="M228.8,36.6c-3-1.7-6-3.5-9.1-5.3c0.2-0.3,0.3-0.6,0.6-1c1.4,0.8,2.9,1.7,4.3,2.5c1,0.6,2,1.1,3,1.6
				C228,35.1,228.4,35.9,228.8,36.6z"/>
			<path class="st3" d="M110.3-168.6c-3-1.7-6-3.5-9.1-5.3c0.2-0.3,0.3-0.6,0.6-1c1.5,0.9,3,1.7,4.5,2.6c0.9,0.5,1.9,1,2.8,1.5
				C109.5-170,109.9-169.3,110.3-168.6z"/>
			<path class="st3" d="M189.3-31.8c-3-1.7-6-3.5-9.1-5.3c0.2-0.3,0.3-0.6,0.6-1c1.5,0.9,3,1.7,4.5,2.6c0.9,0.5,1.9,1,2.8,1.5
				C188.5-33.2,188.9-32.5,189.3-31.8z"/>
			<path class="st3" d="M175.4-55.8c0,2.4,0,4.7-0.1,7.1c0,0.4,0,0.9,0,1.3c-0.4,0-0.7,0-1.1,0c0-3.5,0-7,0-10.6
				C174.6-57.3,175-56.6,175.4-55.8z"/>
			<path class="st3" d="M135.9-124.2c0,2.4,0,4.7-0.1,7.1c0,0.4,0,0.9,0,1.3c-0.4,0-0.7,0-1.1,0c0-3.5,0-7,0-10.6
				C135.1-125.7,135.5-124.9,135.9-124.2z"/>
			<path class="st3" d="M214.9,12.5c0,2.4,0,4.7-0.1,7.1c0,0.4,0,0.9,0,1.3c-0.4,0-0.7,0-1.1,0c0-3.5,0-7,0-10.6
				C214.1,11.1,214.5,11.8,214.9,12.5z"/>
			<path class="st3" d="M209,2.3c-2.3-1.3-4.5-2.5-6.7-3.8c-0.8-0.4-1.5-0.9-2.3-1.3c0.2-0.3,0.3-0.6,0.5-1c2.5,1.4,4.9,2.8,7.4,4.2
				C208.2,1,208.6,1.6,209,2.3z"/>
			<path class="st3" d="M130-134.5c-2.3-1.3-4.5-2.5-6.7-3.8c-0.8-0.4-1.5-0.9-2.3-1.3c0.2-0.3,0.3-0.6,0.5-1
				c2.5,1.4,4.9,2.8,7.4,4.2C129.3-135.8,129.6-135.2,130-134.5z"/>
			<path class="st3" d="M169.5-66.1c-2.2-1.3-4.5-2.5-6.7-3.8c-0.8-0.4-1.5-0.9-2.3-1.3c0.2-0.3,0.3-0.6,0.5-1
				c2.5,1.4,4.9,2.8,7.4,4.2C168.8-67.4,169.1-66.8,169.5-66.1z"/>
			<path class="st3" d="M248.5,70.7c-2.2-1.3-4.5-2.5-6.7-3.8c-0.8-0.4-1.5-0.9-2.3-1.3c0.2-0.3,0.3-0.6,0.5-1
				c2.5,1.4,4.9,2.8,7.4,4.2C247.7,69.4,248.1,70,248.5,70.7z"/>
			<path class="st3" d="M195.1-21.8c0,2.8,0,5.6,0,8.5c-0.4,0-0.7,0-1.2,0c0-3.5,0-7,0.1-10.4C194.4-23,194.7-22.4,195.1-21.8z"/>
			<path class="st3" d="M116.1-158.5c0,2.8,0,5.6,0,8.5c-0.4,0-0.7,0-1.2,0c0-3.5,0-7,0.1-10.4C115.4-159.8,115.8-159.2,116.1-158.5
				z"/>
			<path class="st3" d="M96.5-192.6c0,2.8,0,5.6,0,8.5c-0.4,0-0.7,0-1.2,0c0-3.5,0-7,0.1-10.4C95.7-193.9,96.1-193.3,96.5-192.6z"/>
			<path class="st3" d="M155.6-90.1c0,2.8,0,5.6,0,8.5c-0.4,0-0.7,0-1.2,0c0-3.5,0-7,0.1-10.4C154.9-91.4,155.3-90.8,155.6-90.1z"/>
			<path class="st3" d="M234.6,46.6c0,2.8,0,5.6,0,8.5c-0.4,0-0.7,0-1.2,0c0-3.5,0-7,0.1-10.4C233.9,45.3,234.2,46,234.6,46.6z"/>
			<path class="st3" d="M142.5-112.8c-0.4,0.2-0.8,0.5-1.3,0.7c-0.2-0.3-0.4-0.6-0.6-1c0.4-0.3,0.9-0.5,1.3-0.7
				C142.2-113.5,142.4-113.1,142.5-112.8z"/>
			<path class="st3" d="M221.5,24c-0.4,0.2-0.8,0.5-1.3,0.7c-0.2-0.3-0.4-0.6-0.6-1c0.4-0.3,0.9-0.5,1.3-0.7
				C221.1,23.3,221.3,23.6,221.5,24z"/>
			<path class="st3" d="M182-44.4c-0.4,0.2-0.8,0.5-1.3,0.7c-0.2-0.3-0.4-0.6-0.6-1c0.4-0.3,0.9-0.5,1.3-0.7
				C181.7-45.1,181.8-44.7,182-44.4z"/>
			<path class="st3" d="M162.3-78.5c-0.4,0.2-0.9,0.4-1.3,0.6c-0.2-0.3-0.3-0.6-0.5-0.9c0.5-0.2,0.9-0.4,1.3-0.6
				C162-79.2,162.2-78.8,162.3-78.5z"/>
			<path class="st3" d="M122.9-146.9c-0.4,0.2-0.9,0.4-1.3,0.6c-0.2-0.3-0.3-0.6-0.5-0.9c0.5-0.2,0.9-0.4,1.3-0.6
				C122.5-147.6,122.7-147.2,122.9-146.9z"/>
			<path class="st3" d="M241.3,58.3c-0.4,0.2-0.9,0.4-1.3,0.6c-0.2-0.3-0.3-0.6-0.5-0.9c0.5-0.2,0.9-0.4,1.3-0.6
				C240.9,57.6,241.1,57.9,241.3,58.3z"/>
			<path class="st3" d="M201.8-10.1c-0.4,0.2-0.9,0.4-1.3,0.6c-0.2-0.3-0.3-0.6-0.5-0.9c0.5-0.2,0.9-0.4,1.3-0.6
				C201.5-10.8,201.6-10.5,201.8-10.1z"/>
			<path class="st3" d="M103.1-181.2c-0.4,0.2-0.8,0.5-1.3,0.7c-0.2-0.3-0.3-0.5-0.5-0.9c0.5-0.2,0.9-0.4,1.3-0.6
				C102.8-181.7,102.9-181.5,103.1-181.2z"/>
			<path class="st3" d="M-67.7-44.5c-0.2,0.4-0.4,0.7-0.6,1c-0.5-0.3-1.1-0.6-1.6-0.9c-3.7-2.1-7.4-4.2-11-6.4
				c-0.8-0.5-1.5-0.5-2.3,0c-3.8,2.3-7.7,4.5-11.5,6.7c-0.4,0.2-0.7,0.4-1.1,0.6c-0.2-0.4-0.4-0.6-0.6-1c0.1-0.1,0.2-0.2,0.3-0.3
				c4-2.3,8-4.6,12-6.9c1.7-1,1.4-0.5,1.4-2.4c0-4.4,0-8.7,0-13.1c0-0.4,0-0.8,0-1.2c0.4,0,0.7,0,1.1,0c0,5.3,0,10.6,0,15.9
				C-76.9-49.9-72.3-47.2-67.7-44.5z M-82.4-52.6c0,0.3-0.1,0.6,0,0.7c0.1,0.1,0.4,0.1,0.6,0.1c0-0.2,0.2-0.4,0.1-0.6
				C-81.8-52.5-82.1-52.5-82.4-52.6z"/>
			<path class="st3" d="M50.9-113c-0.2,0.3-0.3,0.6-0.5,1c-0.3-0.1-0.6-0.3-0.9-0.4c-4-2.3-8-4.6-12-6.9c-0.7-0.4-1.2-0.4-1.9,0
				c-3.9,2.3-7.7,4.5-11.6,6.7c-0.4,0.2-0.8,0.4-1.2,0.7c-0.2-0.4-0.4-0.6-0.6-1c0.4-0.2,0.7-0.4,1-0.6c3.9-2.3,7.9-4.6,11.8-6.8
				c0.7-0.4,0.9-0.8,0.9-1.6c0-4.5,0-8.9,0-13.4c0-0.5,0-1,0-1.4c0.4,0,0.7,0,1.1,0c0,5.3,0,10.6,0,15.9
				C41.7-118.3,46.2-115.7,50.9-113z M37-120.9c-0.3,0-0.6-0.1-0.7,0c-0.1,0.1-0.2,0.4-0.1,0.5c0.1,0.1,0.4,0.2,0.5,0.1
				C36.9-120.4,36.9-120.6,37-120.9z"/>
			<path class="st3" d="M101.7,93.2c-0.2-0.4-0.4-0.6-0.6-1c4.6-2.6,9.1-5.3,13.7-7.9c0-5.3,0-10.6,0-15.9c0.4,0,0.7,0,1.2,0
				c0,5.3,0,10.6,0,15.9c4.6,2.6,9.1,5.3,13.7,7.9c-0.2,0.3-0.3,0.6-0.5,1c-0.4-0.2-0.7-0.4-1.1-0.6c-3.9-2.3-7.9-4.5-11.8-6.8
				c-0.7-0.4-1.2-0.4-1.9,0c-3.9,2.3-7.8,4.5-11.7,6.8C102.4,92.7,102.1,92.9,101.7,93.2z M115.2,84.1c-0.1,0.3-0.2,0.5-0.1,0.7
				c0,0.1,0.4,0.2,0.4,0.2c0.1-0.1,0.3-0.3,0.3-0.5C115.8,84.3,115.5,84.2,115.2,84.1z"/>
			<path class="st3" d="M31,65.6c-0.4,0.2-0.8,0.4-1.2,0.7c-3.9,2.2-7.7,4.5-11.6,6.7c-0.7,0.4-1,0.9-1,1.7c0,4.6,0,9.2,0,13.7
				c0,0.3,0,0.7,0,1c-0.4,0-0.7,0-1.1,0c0-5.3,0-10.5,0-15.9c-4.6-2.6-9.1-5.3-13.8-8c0.2-0.3,0.3-0.6,0.6-1
				c4.6,2.6,9.2,5.3,13.8,7.9c4.6-2.6,9.1-5.3,13.7-7.9C30.6,64.9,30.8,65.2,31,65.6z M16.4,72.7c-0.1,0.3-0.2,0.5-0.1,0.7
				c0.1,0.1,0.4,0.1,0.5,0.2c0.1-0.2,0.2-0.4,0.2-0.6C17,72.9,16.7,72.9,16.4,72.7z"/>
			<path class="st3" d="M135.8,21c-0.4,0-0.7,0-1.1,0c0-5.3,0-10.6,0-15.9c-4.6-2.7-9.1-5.3-13.8-8c0.2-0.3,0.3-0.6,0.5-1
				c4.6,2.6,9.2,5.3,13.8,8c4.6-2.6,9.2-5.3,13.8-7.9c0.2,0.4,0.4,0.6,0.6,1c-0.4,0.2-0.8,0.5-1.2,0.7c-3.8,2.2-7.5,4.4-11.3,6.5
				c-0.9,0.5-1.3,1.1-1.3,2.2c0.1,4.5,0,8.9,0,13.4C135.8,20.3,135.8,20.6,135.8,21z M135.8,4.5c-0.3,0-0.5-0.2-0.7-0.1
				c-0.1,0.1-0.1,0.4-0.2,0.5c0.2,0.1,0.4,0.2,0.6,0.2C135.6,5.1,135.6,4.8,135.8,4.5z"/>
			<path class="st3" d="M-16.9,161.6c-0.2-0.3-0.3-0.6-0.6-1c4.6-2.7,9.2-5.3,13.7-7.9c0-5.4,0-10.6,0-15.9c0.4,0,0.7,0,1.2,0
				c0,5.3,0,10.6,0,15.9c4.6,2.6,9.2,5.3,13.7,7.9c-0.2,0.4-0.3,0.6-0.5,1c-0.3-0.2-0.7-0.4-1.1-0.6c-3.9-2.3-7.9-4.5-11.8-6.8
				c-0.7-0.4-1.2-0.4-1.9,0c-3.9,2.3-7.8,4.5-11.7,6.8C-16.1,161.2-16.5,161.4-16.9,161.6z M-2.9,153.5c0.1-0.3,0.1-0.5,0.1-0.7
				c-0.2,0-0.4-0.1-0.6-0.1c-0.1,0-0.2,0.4-0.1,0.4C-3.4,153.3-3.1,153.4-2.9,153.5z"/>
			<path class="st3" d="M-42,123.7c-0.4,0-0.7,0-1.1,0c0-5.3,0-10.5,0-15.9c-4.6-2.7-9.2-5.3-13.8-8c0.2-0.3,0.3-0.6,0.5-1
				c0.1,0,0.3,0.1,0.4,0.1c3.9,2.3,7.8,4.5,11.7,6.8c0.4,0.2,0.7,0.4,1.1,0.6c0.4,0.3,0.9,0.4,1.3,0c0.2-0.2,0.4-0.3,0.7-0.4
				c3.8-2.2,7.6-4.4,11.3-6.5c0.4-0.2,0.7-0.4,1.1-0.6c0.2,0.3,0.3,0.6,0.5,0.9c-0.1,0.1-0.2,0.2-0.3,0.3c-1.6,1-3.3,1.9-4.9,2.9
				c-2.5,1.4-5,2.9-7.5,4.3c-0.7,0.4-1,0.9-1,1.7c0,4.6,0,9.2,0,13.7C-42,123-42,123.3-42,123.7z M-42.1,107.1c-0.3,0-0.6-0.1-0.7,0
				c-0.1,0.1-0.1,0.4-0.1,0.6c0.2,0,0.4,0.2,0.6,0.1C-42.2,107.7-42.2,107.4-42.1,107.1z"/>
			<path class="st3" d="M-62.9,118.5c0-5.3,0-10.6,0-15.9c0.4,0,0.7,0,1.2,0c0,5.3,0,10.6,0,15.9c4.6,2.7,9.2,5.3,13.7,7.9
				c-0.2,0.4-0.3,0.6-0.5,1c-0.3-0.2-0.6-0.3-1-0.5c-3.9-2.2-7.8-4.4-11.6-6.7c-0.9-0.5-1.5-0.6-2.4,0c-3.8,2.3-7.6,4.4-11.4,6.6
				c-0.4,0.2-0.7,0.4-1.1,0.7c-0.2-0.3-0.4-0.6-0.6-1C-72.1,123.8-67.6,121.2-62.9,118.5z M-62,119.3c0-0.3,0.1-0.6,0-0.7
				c-0.1-0.1-0.4-0.2-0.5-0.1c-0.1,0.1-0.2,0.4-0.1,0.5C-62.6,119.2-62.3,119.2-62,119.3z"/>
			<path class="st3" d="M161,58.9c-0.2-0.4-0.4-0.6-0.6-1c0.4-0.2,0.7-0.4,1.1-0.6c3.9-2.3,7.9-4.6,11.8-6.8
				c0.6-0.4,0.9-0.8,0.9-1.5c0-4.5,0-9.1,0-13.6c0-0.4,0-0.8,0-1.3c0.4,0,0.7,0,1.1,0c0,5.3,0,10.6,0,15.9c4.6,2.6,9.1,5.3,13.7,7.9
				c-0.2,0.3-0.3,0.7-0.5,1c-0.4-0.2-0.7-0.4-1.1-0.6c-3.9-2.3-7.8-4.5-11.7-6.8c-0.8-0.5-1.4-0.4-2.1,0c-3.9,2.3-7.7,4.5-11.6,6.7
				C161.7,58.5,161.3,58.7,161,58.9z M175.3,50.1c-0.3,0-0.5-0.1-0.7-0.1c-0.1,0-0.2,0.4-0.2,0.4c0.1,0.1,0.4,0.3,0.5,0.2
				C175,50.6,175.1,50.4,175.3,50.1z"/>
			<path class="st3" d="M149,64.6c0.2,0.4,0.4,0.6,0.6,1c-0.4,0.2-0.7,0.4-1.1,0.6c-3.9,2.3-7.8,4.5-11.7,6.7c-0.7,0.4-1,0.9-1,1.7
				c0,4.5,0,9,0,13.5c0,0.4,0,0.8,0,1.3c-0.4,0-0.7,0-1.1,0c0-5.3,0-10.6,0-15.9c-4.6-2.7-9.1-5.3-13.7-7.9c0.2-0.3,0.3-0.7,0.5-1
				c4.6,2.6,9.2,5.3,13.8,8C139.8,69.9,144.4,67.2,149,64.6z M135.4,73.8c0.1-0.1,0.1-0.2,0.2-0.3c0-0.2,0.1-0.4,0-0.6
				c0-0.1-0.4-0.1-0.5-0.1c-0.1,0.1-0.2,0.4-0.2,0.5C135,73.5,135.2,73.6,135.4,73.8z"/>
			<path class="st3" d="M76,106.7c4.6-2.6,9.2-5.3,13.8-7.9c0.2,0.3,0.4,0.6,0.6,1c-0.4,0.2-0.7,0.4-1.1,0.6
				c-3.9,2.3-7.8,4.5-11.7,6.7c-0.7,0.4-1,0.9-1,1.7c0,4.5,0,9,0,13.5c0,0.4,0,0.8,0,1.3c-0.4,0-0.7,0-1.1,0c0-5.3,0-10.6,0-15.9
				c-4.6-2.6-9.1-5.3-13.7-7.9c0.2-0.3,0.3-0.7,0.5-1C66.7,101.4,71.3,104.1,76,106.7z M75.7,106.9c-0.1,0.3-0.1,0.5-0.2,0.7
				c0.2,0,0.4,0.1,0.6,0.1c0.1,0,0.2-0.4,0.2-0.4C76.2,107.1,76,107.1,75.7,106.9z"/>
			<path class="st3" d="M70.5,126.4c-0.2,0.4-0.4,0.7-0.5,1c-0.3-0.2-0.7-0.4-1.1-0.6c-3.9-2.3-7.9-4.5-11.8-6.8
				c-0.7-0.4-1.2-0.4-1.9,0c-3.9,2.3-7.8,4.5-11.7,6.8c-0.4,0.2-0.7,0.4-1.1,0.6c-0.2-0.3-0.4-0.6-0.5-1c4.6-2.6,9.1-5.3,13.7-7.9
				c0-5.3,0-10.6,0-15.9c0.4,0,0.7,0,1.2,0c0,5.3,0,10.6,0,15.9C61.4,121.1,65.9,123.8,70.5,126.4z M56.7,118.5
				c-0.3,0-0.5-0.1-0.7,0c-0.1,0.1-0.1,0.3-0.2,0.5c0.2,0.1,0.4,0.2,0.5,0.1C56.5,119,56.5,118.8,56.7,118.5z"/>
			<path class="st3" d="M16.7,141c4.6-2.6,9.2-5.3,13.7-7.9c0.2,0.4,0.4,0.6,0.6,1c-0.4,0.2-0.7,0.4-1.1,0.6
				c-3.9,2.3-7.8,4.5-11.7,6.7c-0.7,0.4-1,0.9-0.9,1.7c0,4.5,0,9,0,13.5c0,0.4,0,0.8,0,1.3c-0.4,0-0.7,0-1.1,0c0-5.3,0-10.6,0-15.9
				c-4.6-2.7-9.1-5.3-13.7-7.9c0.2-0.3,0.3-0.6,0.5-1C7.5,135.7,12,138.3,16.7,141z M17.1,141.3c-0.3,0-0.5,0-0.7,0
				c-0.1,0.1-0.1,0.3-0.1,0.5c0.2,0,0.4,0.2,0.6,0.1C17,141.9,17,141.6,17.1,141.3z"/>
			<path class="st3" d="M154.4-29.1c-4.6-2.7-9.2-5.3-13.7-7.9c0.2-0.4,0.3-0.6,0.5-1c4.6,2.6,9.1,5.3,13.8,7.9
				c4.6-2.6,9.1-5.3,13.8-7.9c0.2,0.3,0.4,0.6,0.6,1c-0.4,0.2-0.7,0.4-1.1,0.6c-3.7,2.2-7.5,4.3-11.2,6.5c-1.8,1-1.4,0.5-1.5,2.5
				c0,4.4,0,8.7,0,13.1c0,0.4,0,0.8,0,1.2c-0.4,0-0.7,0-1.1,0C154.4-18.5,154.4-23.8,154.4-29.1z M154.8-29.9c0,0.3-0.1,0.5-0.1,0.7
				c0.2,0,0.4,0.1,0.6,0c0.1,0,0.2-0.4,0.1-0.4C155.3-29.8,155-29.8,154.8-29.9z"/>
			<path class="st3" d="M134.7-34.3c0.4,0,0.7,0,1.1,0c0,5.3,0,10.6,0,15.9c4.6,2.6,9.1,5.3,13.7,7.9c-0.2,0.3-0.3,0.6-0.5,1
				c-0.3-0.2-0.7-0.4-1-0.6c-4-2.3-7.9-4.6-11.9-6.9c-0.7-0.4-1.2-0.4-1.8,0c-3.9,2.3-7.8,4.5-11.7,6.8c-0.4,0.2-0.7,0.4-1.1,0.6
				c-0.2-0.3-0.3-0.6-0.6-1c0.3-0.2,0.7-0.4,1-0.6c3.9-2.3,7.9-4.6,11.8-6.8c0.7-0.4,0.9-0.8,0.9-1.6c0-4.5,0-9.1,0-13.6
				C134.7-33.4,134.7-33.9,134.7-34.3z M135.8-18.3c-0.3,0-0.6-0.2-0.7-0.1c-0.1,0.1-0.1,0.3-0.2,0.5c0.2,0,0.4,0.2,0.5,0.1
				C135.5-17.8,135.6-18,135.8-18.3z"/>
			<path class="st3" d="M96.3,21c-0.4,0-0.7,0-1.1,0c0-5.3,0-10.6,0-15.9C90.6,2.5,86-0.2,81.4-2.8c0.2-0.4,0.3-0.7,0.5-1
				c4.6,2.6,9.2,5.3,13.8,8c4.6-2.6,9.1-5.3,13.8-7.9c0.2,0.3,0.4,0.6,0.6,1c-0.4,0.2-0.7,0.4-1.1,0.6c-3.9,2.3-7.8,4.5-11.7,6.7
				c-0.7,0.4-1,0.8-1,1.7c0,4.5,0,9.1,0,13.6C96.3,20.2,96.3,20.6,96.3,21z M96.2,4.5c-0.3,0-0.5,0-0.7,0c-0.1,0.1-0.1,0.3-0.1,0.5
				c0.2,0,0.4,0.2,0.6,0.1C96.1,5,96.1,4.7,96.2,4.5z"/>
			<path class="st3" d="M76.6,15.8c4.6,2.7,9.2,5.3,13.7,7.9c-0.2,0.4-0.4,0.7-0.5,1c-0.3-0.2-0.7-0.4-1.1-0.6
				c-3.9-2.3-7.9-4.5-11.8-6.8c-0.7-0.4-1.2-0.4-1.9,0c-3.9,2.3-7.8,4.5-11.7,6.8c-0.4,0.2-0.7,0.4-1.1,0.6c-0.2-0.3-0.4-0.6-0.5-1
				c4.6-2.6,9.1-5.3,13.7-7.9c0-5.3,0-10.6,0-15.9c0.4,0,0.7,0,1.2,0C76.6,5.2,76.6,10.5,76.6,15.8z M75.7,15.7
				c0,0.3-0.1,0.5-0.1,0.7c0,0.1,0.4,0.2,0.4,0.1c0.1-0.1,0.2-0.3,0.2-0.5C76.2,15.9,76,15.8,75.7,15.7z"/>
			<path class="st3" d="M50.2,30.4c0.2,0.4,0.4,0.6,0.5,0.9c-0.1,0.1-0.2,0.2-0.3,0.3c-2.8,1.6-5.6,3.2-8.4,4.9
				c-1.4,0.8-2.7,1.6-4.1,2.3c-0.7,0.4-0.9,0.8-0.9,1.6c0,4.6,0,9.2,0,13.9c0,0.3,0,0.7,0,1c-0.4,0-0.7,0-1.1,0c0-5.3,0-10.5,0-15.9
				c-4.6-2.6-9.1-5.3-13.7-7.9c0.2-0.4,0.4-0.7,0.6-1c4.6,2.7,9.2,5.3,13.8,7.9C41,35.7,45.6,33.1,50.2,30.4z M36.7,39.5
				c0.1-0.3,0.2-0.5,0.1-0.7c0-0.1-0.4-0.2-0.4-0.1c-0.1,0.1-0.3,0.3-0.2,0.5C36.1,39.3,36.4,39.3,36.7,39.5z"/>
			<path class="st3" d="M31,58c-0.2,0.4-0.4,0.7-0.6,1c-2.2-1.3-4.5-2.6-6.7-3.9c-2.1-1.2-4.2-2.4-6.3-3.6c-0.6-0.4-1-0.3-1.6,0
				c-3.9,2.3-7.9,4.6-11.8,6.8c-0.4,0.2-0.7,0.4-1.1,0.6c-0.2-0.3-0.3-0.6-0.5-0.9c0.1-0.1,0.2-0.2,0.3-0.2c4-2.3,7.9-4.6,11.9-6.9
				c1.8-1.1,1.5-0.5,1.5-2.6c0-4.3,0-8.6,0-13c0-0.4,0-0.8,0-1.2c0.4,0,0.7,0,1.1,0c0,5.3,0,10.5,0,15.9C21.8,52.7,26.4,55.3,31,58z
				 M17.2,50.3C17,50.2,16.8,50,16.7,50c-0.2,0.1-0.3,0.3-0.4,0.4c0.2,0.1,0.3,0.3,0.5,0.3C16.9,50.7,17,50.5,17.2,50.3z"/>
			<path class="st3" d="M-22.3,89.5c-0.4,0-0.7,0-1.1,0c0-5.3,0-10.6,0-15.9c-4.6-2.7-9.2-5.3-13.7-7.9c0.2-0.4,0.3-0.7,0.5-1
				c4.6,2.6,9.2,5.3,13.8,8c4.6-2.6,9.1-5.3,13.8-7.9c0.2,0.3,0.4,0.6,0.6,1c-0.4,0.2-0.7,0.4-1.1,0.6c-3.9,2.3-7.8,4.5-11.7,6.7
				c-0.7,0.4-1,0.8-1,1.7c0,4.5,0,9.1,0,13.6C-22.3,88.7-22.3,89.1-22.3,89.5z M-23,72.8c-0.1,0.3-0.1,0.5-0.2,0.7
				c0.2,0,0.4,0.1,0.6,0.1c0.1,0,0.2-0.3,0.2-0.4C-22.6,73-22.8,72.9-23,72.8z"/>
			<path class="st3" d="M-43.2,68.4c0.4,0,0.7,0,1.2,0c0,5.3,0,10.6,0,15.9c4.6,2.7,9.2,5.3,13.7,7.9c-0.2,0.4-0.4,0.7-0.5,1
				c-0.3-0.2-0.7-0.4-1.1-0.6c-3.9-2.3-7.9-4.5-11.8-6.8c-0.7-0.4-1.2-0.4-1.9,0c-3.9,2.3-7.8,4.5-11.7,6.8
				c-0.3,0.2-0.7,0.4-1.1,0.6c-0.2-0.3-0.4-0.6-0.6-1c4.6-2.6,9.1-5.3,13.7-7.9C-43.2,79-43.2,73.8-43.2,68.4z M-42.9,84.2
				c0,0.3-0.1,0.5,0,0.7c0,0.1,0.4,0.1,0.5,0.1c0.1-0.1,0.1-0.4,0.2-0.5C-42.4,84.4-42.6,84.3-42.9,84.2z"/>
			<path class="st3" d="M-95.9,24.8c-0.2-0.3-0.3-0.6-0.5-0.9c0.1-0.1,0.2-0.2,0.3-0.2c3.4-1.9,6.7-3.9,10.1-5.8
				c0.7-0.4,1.5-0.9,2.2-1.3c0.9-0.4,1.1-0.9,1.1-1.9c-0.1-4.5,0-8.9,0-13.4c0-0.4,0-0.8,0-1.3c0.4,0,0.7,0,1.1,0
				c0,5.3,0,10.5,0,15.9c4.5,2.6,9.1,5.3,13.7,7.9c-0.2,0.3-0.4,0.7-0.5,1c-0.8-0.4-1.5-0.9-2.2-1.3c-3.5-2-7-4-10.5-6.1
				c-0.7-0.4-1.3-0.5-2,0c-3.8,2.3-7.7,4.5-11.6,6.7C-95,24.4-95.4,24.6-95.9,24.8z M-82.3,15.8c-0.1,0.3-0.2,0.5-0.1,0.7
				c0,0.1,0.4,0.2,0.4,0.2c0.1-0.1,0.3-0.3,0.3-0.5C-81.7,16-82,15.9-82.3,15.8z"/>
			<path class="st3" d="M141.2,93.2c-0.2-0.4-0.4-0.6-0.6-1c0.1-0.1,0.2-0.2,0.3-0.2c3.8-2.2,7.6-4.4,11.4-6.6
				c0.7-0.4,1.5-0.7,1.9-1.3c0.3-0.6,0.1-1.4,0.1-2.2c0-4.1,0-8.3,0-12.4c0-0.4,0-0.7,0-1.1c0.3,0,0.7,0,1.1,0c0,5.3,0,10.5,0,15.9
				c4.5,2.6,9.1,5.3,13.7,7.9c-0.2,0.3-0.3,0.7-0.5,1c-0.5-0.3-1.1-0.6-1.6-0.9c-3.7-2.2-7.5-4.3-11.2-6.5c-0.8-0.4-1.3-0.4-2,0
				c-3.8,2.3-7.7,4.5-11.5,6.7C142.1,92.7,141.7,92.9,141.2,93.2z M155.5,84.3c-0.3-0.1-0.5-0.2-0.7-0.1c-0.1,0.1-0.1,0.4-0.2,0.5
				c0.2,0.1,0.4,0.2,0.6,0.2C155.3,84.9,155.3,84.6,155.5,84.3z"/>
			<path class="st3" d="M-62.3,4.2c4.6-2.7,9.2-5.3,13.7-7.9c0.2,0.3,0.3,0.6,0.6,1c-0.4,0.2-0.7,0.4-1.1,0.6
				c-3.9,2.3-7.8,4.5-11.7,6.7c-0.7,0.4-1,0.8-1,1.7c0,4.5,0,9,0,13.5c0,0.4,0,0.8,0,1.3c-0.4,0-0.7,0-1.1,0c0-5.3,0-10.6,0-15.9
				c-4.6-2.6-9.1-5.3-13.7-7.9c0.2-0.3,0.3-0.6,0.5-1C-71.5-1.1-66.9,1.5-62.3,4.2z M-62.1,5.3C-62,5-61.9,4.8-62,4.6
				c0-0.1-0.4-0.2-0.4-0.1c-0.1,0.1-0.3,0.4-0.2,0.5C-62.6,5.1-62.4,5.2-62.1,5.3z"/>
			<path class="st3" d="M-22.2-18.3c4.6,2.7,9.2,5.3,13.7,7.9C-8.7-10-8.8-9.7-9-9.4C-9.3-9.6-9.7-9.8-10-10
				c-4-2.3-7.9-4.6-11.9-6.9c-0.6-0.4-1.1-0.4-1.7,0c-3.9,2.3-7.9,4.6-11.8,6.8c-0.4,0.2-0.7,0.4-1.1,0.6c-0.2-0.3-0.4-0.6-0.6-1
				c4.6-2.7,9.2-5.3,13.8-7.9c0-5.4,0-10.6,0-15.9c0.4,0,0.7,0,1.2,0C-22.2-28.9-22.2-23.6-22.2-18.3z M-22.6-17.5
				c0.1-0.3,0.1-0.5,0.1-0.7c-0.2,0-0.4-0.1-0.6-0.1c-0.1,0-0.2,0.4-0.1,0.4C-23-17.7-22.8-17.6-22.6-17.5z"/>
			<path class="st3" d="M-3.6-29c-4.6-2.7-9.1-5.3-13.7-7.9c0.2-0.3,0.3-0.7,0.5-1c4.6,2.6,9.2,5.3,13.8,8c4.6-2.6,9.2-5.3,13.7-7.9
				c0.2,0.4,0.4,0.6,0.6,1c-0.4,0.2-0.7,0.4-1.1,0.6c-3.9,2.2-7.7,4.5-11.6,6.7c-0.8,0.4-1,1-1,1.8c0,4.5,0,9,0,13.5
				c0,0.4,0,0.7,0,1.2c-0.4,0-0.7,0-1.1,0C-3.6-18.5-3.6-23.8-3.6-29z M-3.5-29.2c0.3,0,0.5,0.1,0.7,0.1c0.1,0,0.2-0.4,0.2-0.4
				c-0.1-0.1-0.4-0.3-0.5-0.2C-3.3-29.7-3.4-29.4-3.5-29.2z"/>
			<path class="st3" d="M37.1-52.5c4.6,2.7,9.2,5.3,13.7,7.9c-0.2,0.3-0.3,0.6-0.5,1c-0.1-0.1-0.3-0.1-0.5-0.2c-4-2.3-8-4.6-12-6.9
				c-0.2-0.1-0.5-0.2-0.7-0.4c-0.5-0.4-0.9-0.3-1.4,0c-2.2,1.3-4.4,2.5-6.6,3.8c-2.1,1.2-4.3,2.5-6.4,3.7c-0.2-0.3-0.3-0.6-0.5-0.9
				c0.1-0.1,0.3-0.2,0.4-0.3c3.9-2.3,7.8-4.5,11.7-6.8c0.3-0.1,0.5-0.3,0.8-0.4c0.6-0.3,0.8-0.7,0.8-1.4c0-3.4,0-6.9,0-10.3
				c0-1.6,0-3.1,0-4.7c0.4,0,0.7,0,1.1,0C37.1-63.2,37.1-57.9,37.1-52.5z M36.7-51.7c0.1-0.3,0.1-0.5,0.1-0.7
				c-0.2,0-0.4-0.1-0.6-0.1c-0.1,0-0.2,0.4-0.1,0.4C36.2-51.9,36.5-51.9,36.7-51.7z"/>
			<path class="st3" d="M41.9-71.2c0.2-0.4,0.3-0.6,0.5-1c4.6,2.6,9.1,5.3,13.8,7.9c4.6-2.6,9.1-5.3,13.8-7.9c0.2,0.3,0.4,0.6,0.6,1
				c-0.4,0.2-0.7,0.4-1,0.6c-3.9,2.2-7.7,4.5-11.6,6.7c-0.8,0.5-1.1,1-1.1,1.9c0.1,4.5,0,8.9,0,13.4c0,0.4,0,0.8,0,1.2
				c-0.4,0-0.7,0-1.1,0c0-5.3,0-10.6,0-15.9C51.1-65.9,46.5-68.6,41.9-71.2z M56.7-63.9c-0.3,0-0.5,0-0.7,0
				c-0.1,0.1-0.1,0.3-0.1,0.5c0.2,0,0.4,0.2,0.6,0.1C56.6-63.4,56.6-63.6,56.7-63.9z"/>
			<path class="st3" d="M95.2-86.7c0-5.4,0-10.6,0-15.9c0.4,0,0.7,0,1.2,0c0,5.3,0,10.6,0,15.9c4.6,2.7,9.2,5.3,13.7,7.9
				c-0.2,0.4-0.3,0.6-0.5,1c-0.3-0.2-0.7-0.4-1.1-0.6c-3.9-2.3-7.9-4.5-11.8-6.8c-0.7-0.4-1.2-0.4-1.9,0c-3.9,2.3-7.8,4.5-11.7,6.8
				c-0.4,0.2-0.7,0.4-1.1,0.6c-0.2-0.3-0.4-0.6-0.6-1C86.1-81.5,90.6-84.1,95.2-86.7z M96.1-86c0-0.3,0.1-0.6,0-0.7
				c-0.1-0.1-0.4-0.1-0.6-0.1c-0.1,0-0.2,0.4-0.1,0.5C95.5-86.1,95.8-86.1,96.1-86z"/>
			<path class="st3" d="M129.3-106.4c0.2,0.4,0.4,0.6,0.6,1c-0.4,0.2-0.7,0.4-1.1,0.6c-3.9,2.3-7.8,4.5-11.7,6.7
				c-0.7,0.4-1,0.9-1,1.7c0,4.5,0,9,0,13.5c0,0.4,0,0.8,0,1.3c-0.4,0-0.7,0-1.1,0c0-5.3,0-10.6,0-15.9c-4.6-2.7-9.1-5.3-13.7-7.9
				c0.2-0.3,0.3-0.7,0.5-1c4.6,2.6,9.2,5.3,13.8,8C120.1-101.1,124.7-103.8,129.3-106.4z M116-98.2c-0.3,0-0.5,0-0.7,0
				c-0.1,0.1-0.1,0.3-0.1,0.5c0.2,0,0.4,0.2,0.6,0.1C115.8-97.6,115.9-97.9,116-98.2z"/>
			<path class="st3" d="M-87.5,58.1c-0.2,0.3-0.3,0.6-0.5,1c-0.3-0.1-0.6-0.3-0.9-0.5c-4-2.3-8-4.6-11.9-6.9c-0.8-0.5-1.4-0.4-2.1,0
				c-3.8,2.3-7.7,4.5-11.5,6.7c-0.4,0.2-0.8,0.4-1.2,0.7c-0.2-0.4-0.4-0.7-0.6-1c4.6-2.7,9.2-5.3,13.8-7.9c0-5.3,0-10.6,0-15.9
				c0.4,0,0.7,0,1.2,0c0,5.3,0,10.6,0,15.9C-96.7,52.8-92.1,55.4-87.5,58.1z M-102.1,50c-0.1,0.3-0.2,0.5-0.1,0.7
				c0.1,0.1,0.4,0.1,0.5,0.2c0.1-0.2,0.2-0.4,0.2-0.6C-101.5,50.2-101.8,50.1-102.1,50z"/>
			<path class="st3" d="M228.6,57.9c-0.2,0.4-0.4,0.6-0.5,1c-0.3-0.2-0.7-0.3-1-0.5c-3.9-2.3-7.9-4.5-11.8-6.8c-0.7-0.4-1.3-0.5-2,0
				c-3.8,2.3-7.7,4.5-11.5,6.7c-0.4,0.2-0.8,0.4-1.2,0.7c-0.2-0.4-0.4-0.7-0.6-1c4.6-2.6,9.1-5.3,13.7-7.9c0-5.3,0-10.6,0-15.9
				c0.4,0,0.7,0,1.2,0c0,5.3,0,10.6,0,15.9C219.4,52.7,224,55.3,228.6,57.9z M214.8,50.1c-0.3-0.1-0.5-0.2-0.7-0.1
				c-0.1,0.1-0.1,0.4-0.2,0.5c0.2,0.1,0.4,0.2,0.6,0.2C214.6,50.6,214.6,50.4,214.8,50.1z"/>
			<path class="st3" d="M-140.7-18.3c4.6,2.7,9.2,5.3,13.7,7.9c-0.2,0.3-0.3,0.6-0.5,1c-0.3-0.1-0.6-0.3-0.9-0.4
				c-4-2.3-8-4.6-12-6.9c-0.7-0.4-1.2-0.4-1.9,0c-3.9,2.3-7.7,4.5-11.6,6.7c-0.4,0.2-0.8,0.4-1.2,0.7c-0.2-0.4-0.4-0.6-0.6-1
				c0.4-0.2,0.7-0.4,1.1-0.6c3.9-2.3,7.9-4.6,11.8-6.8c0.7-0.4,0.9-0.8,0.9-1.6c0-4.5,0-8.9,0-13.4c0-0.5,0-1,0-1.4
				c0.4,0,0.7,0,1.1,0C-140.7-28.9-140.7-23.6-140.7-18.3z M-141.6-18.4c-0.1,0.3-0.2,0.6-0.1,0.7c0.1,0.1,0.4,0.1,0.5,0.2
				c0.1-0.2,0.2-0.4,0.2-0.6C-141-18.2-141.3-18.3-141.6-18.4z"/>
			<path class="st3" d="M-122.1-29c-4.6-2.7-9.2-5.3-13.8-8c0.2-0.3,0.4-0.6,0.5-1c0.4,0.2,0.8,0.4,1.2,0.7
				c3.9,2.3,7.8,4.5,11.7,6.8c0.7,0.4,1.2,0.4,1.8,0c3.9-2.3,7.8-4.5,11.7-6.8c0.4-0.2,0.7-0.4,1.1-0.6c0.2,0.3,0.4,0.6,0.6,1
				c-0.4,0.2-0.8,0.5-1.2,0.7c-3.9,2.2-7.7,4.5-11.6,6.7c-0.7,0.4-1,0.9-1,1.7c0,4.6,0,9.2,0,13.7c0,0.3,0,0.7,0,1
				c-0.4,0-0.7,0-1.1,0C-122.1-18.4-122.1-23.7-122.1-29z M-121.1-29.7c-0.3,0-0.6-0.1-0.7,0c-0.1,0.1-0.1,0.4-0.1,0.6
				c0.2,0,0.4,0.2,0.6,0.1C-121.2-29.1-121.2-29.4-121.1-29.7z"/>
			<path class="st3" d="M-76.7-71.2c0.2-0.4,0.4-0.7,0.6-1c1.9,1.1,3.8,2.2,5.7,3.3c2.3,1.3,4.5,2.6,6.8,3.9c1.5,0.9,1,0.9,2.6,0
				c3.8-2.2,7.6-4.4,11.3-6.5c0.4-0.2,0.7-0.4,1.1-0.6c0.2,0.3,0.3,0.6,0.5,0.9c-0.1,0.1-0.2,0.2-0.3,0.3c-1.6,0.9-3.2,1.8-4.7,2.8
				c-2.5,1.5-5,2.9-7.6,4.3c-0.8,0.5-1.1,1-1.1,1.9c0.1,4.5,0,9,0,13.5c0,0.4,0,0.7,0,1.1c-0.4,0-0.7,0-1.1,0c0-5.3,0-10.5,0-15.9
				C-67.4-65.9-72-68.5-76.7-71.2z M-61.8-63.9c-0.3,0-0.6-0.1-0.7,0c-0.1,0.1-0.1,0.4-0.1,0.6c0.2,0,0.4,0.2,0.6,0.1
				C-61.9-63.3-61.9-63.6-61.8-63.9z"/>
			<path class="st3" d="M-9-77.8c-0.6-0.4-1.2-0.7-1.8-1c-3.6-2.1-7.2-4.1-10.8-6.3c-0.8-0.5-1.5-0.5-2.3,0
				c-3.8,2.3-7.6,4.4-11.4,6.6c-0.4,0.2-0.8,0.4-1.2,0.7c-0.2-0.4-0.4-0.6-0.6-1c0.1-0.1,0.2-0.2,0.3-0.3c4-2.3,8-4.6,12-6.9
				c1.7-1,1.4-0.5,1.4-2.4c0-4.4,0-8.7,0-13.1c0-0.4,0-0.8,0-1.2c0.4,0,0.7,0,1.1,0c0,5.3,0,10.6,0,15.9c4.6,2.6,9.1,5.3,13.7,7.9
				C-8.6-78.4-8.8-78.1-9-77.8z M-22.3-86.7c-0.3,0-0.6-0.1-0.7,0c-0.1,0.1-0.2,0.4-0.1,0.5C-23-86-22.7-86-22.5-86
				C-22.4-86.1-22.4-86.4-22.3-86.7z"/>
			<path class="st3" d="M-3.6-97.5c-4.6-2.7-9.2-5.3-13.8-8c0.2-0.3,0.3-0.6,0.5-1c0.1,0,0.3,0.1,0.4,0.1c3.9,2.3,7.8,4.5,11.7,6.8
				c0.4,0.2,0.8,0.4,1.2,0.7c0.4,0.3,0.7,0.3,1.1,0c0.2-0.2,0.5-0.3,0.7-0.4c3.8-2.2,7.6-4.4,11.4-6.6c0.4-0.2,0.7-0.4,1.1-0.6
				c0.2,0.3,0.3,0.6,0.5,0.9c-0.1,0.1-0.2,0.2-0.3,0.3c-1.7,1-3.4,2-5.1,3c-2.4,1.4-4.8,2.8-7.3,4.2c-0.7,0.4-1,0.9-1,1.7
				c0,4.6,0,9.2,0,13.7c0,0.3,0,0.7,0,1c-0.4,0-0.7,0-1.1,0C-3.6-86.8-3.6-92.1-3.6-97.5z M-2.5-98.1c-0.3,0-0.6-0.1-0.7,0
				c-0.1,0.1-0.1,0.4-0.1,0.6c0.2,0,0.4,0.2,0.6,0.1C-2.6-97.5-2.6-97.8-2.5-98.1z"/>
			<path class="st3" d="M56.8-115.8c-0.4,0-0.7,0-1.1,0c0-5.3,0-10.5,0-15.9c-4.6-2.6-9.1-5.3-13.8-8c0.2-0.4,0.4-0.7,0.6-1
				c1.9,1.1,3.8,2.2,5.7,3.3c2.4,1.4,4.9,2.8,7.3,4.2c0.6,0.4,1,0.3,1.6,0c3.9-2.3,7.9-4.6,11.8-6.8c0.4-0.2,0.7-0.4,1.1-0.6
				c0.2,0.3,0.3,0.6,0.5,0.9c0,0.1-0.1,0.2-0.2,0.2c-0.3,0.2-0.7,0.4-1,0.6c-3.8,2.2-7.6,4.4-11.4,6.6c-0.8,0.4-1,1-1,1.8
				c0,4.5,0,9,0,13.5C56.9-116.6,56.8-116.2,56.8-115.8z M56.6-131.5c0-0.3,0.1-0.6,0-0.7c-0.1-0.1-0.4-0.2-0.5-0.1
				c-0.1,0.1-0.2,0.4-0.1,0.5C56-131.7,56.3-131.6,56.6-131.5z"/>
			<path class="st3" d="M110.1-147.2c-0.2,0.3-0.3,0.6-0.5,1c-0.3-0.1-0.6-0.3-0.9-0.4c-4-2.3-8-4.6-12-6.9c-0.7-0.4-1.2-0.4-1.9,0
				c-3.9,2.3-7.7,4.5-11.6,6.7c-0.4,0.2-0.8,0.4-1.2,0.7c-0.2-0.4-0.4-0.6-0.6-1c0.4-0.2,0.7-0.4,1.1-0.6c3.9-2.3,7.8-4.5,11.7-6.7
				c0.8-0.4,1-0.9,1-1.8c0-4.4,0-8.9,0-13.3c0-0.5,0-1,0-1.4c0.4,0,0.7,0,1.1,0c0,5.3,0,10.6,0,15.9
				C101-152.5,105.5-149.9,110.1-147.2z M96.3-155.1c-0.3-0.1-0.5-0.2-0.7-0.1c-0.1,0.1-0.1,0.4-0.2,0.5c0.2,0.1,0.4,0.2,0.6,0.2
				C96.1-154.5,96.2-154.8,96.3-155.1z"/>
			<path class="st3" d="M-68.3,30.4c0.2,0.4,0.4,0.7,0.6,1c-0.4,0.2-0.8,0.4-1.1,0.7c-3.9,2.2-7.7,4.5-11.6,6.7
				c-0.7,0.4-1,0.9-1,1.8c0,4.5,0,9.1,0,13.6c0,0.4,0,0.7,0,1.1c-0.4,0-0.7,0-1.1,0c0-5.3,0-10.6,0-15.9c-4.6-2.7-9.2-5.3-13.8-8
				c0.2-0.3,0.3-0.6,0.5-1c4.6,2.6,9.1,5.3,13.8,7.9C-77.5,35.7-73,33.1-68.3,30.4z M-81.6,38.7c-0.3,0-0.6-0.1-0.7,0
				c-0.1,0.1-0.1,0.4-0.1,0.6c0.2,0,0.4,0.2,0.6,0.1C-81.7,39.3-81.7,39-81.6,38.7z"/>
			<path class="st3" d="M160.4,65.5c0.2-0.4,0.4-0.7,0.6-1c4.6,2.6,9.2,5.3,13.8,8c4.6-2.6,9.2-5.3,13.8-7.9c0.2,0.4,0.4,0.6,0.6,1
				c-0.4,0.2-0.8,0.5-1.2,0.7c-3.9,2.2-7.7,4.5-11.6,6.7c-0.7,0.4-1,0.8-1,1.7c0,4.6,0,9.2,0,13.7c0,0.3,0,0.7,0,1.1
				c-0.4,0-0.7,0-1.1,0c0-5.3,0-10.5,0-15.9C169.6,70.9,165,68.2,160.4,65.5z M175.2,72.9c-0.3,0-0.5-0.2-0.7-0.1
				c-0.1,0.1-0.1,0.4-0.2,0.5c0.2,0.1,0.4,0.2,0.6,0.2C175.1,73.5,175.1,73.2,175.2,72.9z"/>
			<path class="st3" d="M-42,15.9c4.6,2.7,9.2,5.3,13.7,7.9c-0.2,0.4-0.3,0.6-0.5,1c-0.3-0.2-0.6-0.3-1-0.5
				c-3.9-2.3-7.9-4.5-11.8-6.8c-0.7-0.4-1.3-0.5-2,0c-3.8,2.3-7.7,4.5-11.5,6.7c-0.4,0.2-0.8,0.4-1.2,0.7c-0.2-0.4-0.4-0.6-0.6-1
				c4.5-2.6,9.1-5.2,13.7-7.9c0-5.3,0-10.6,0-15.9c0.4,0,0.7,0,1.2,0C-42,5.3-42,10.6-42,15.9z M-42.1,16c-0.3-0.1-0.5-0.2-0.7-0.1
				c-0.1,0.1-0.1,0.3-0.2,0.5c0.2,0.1,0.4,0.2,0.6,0.2C-42.2,16.5-42.2,16.3-42.1,16z"/>
			<path class="st3" d="M3-9.4c-0.2-0.4-0.4-0.7-0.6-1c4.6-2.7,9.2-5.3,13.8-7.9c0-5.3,0-10.6,0-15.9c0.4,0,0.7,0,1.2,0
				c0,5.3,0,10.6,0,15.9c4.6,2.7,9.2,5.3,13.7,7.9c-0.2,0.3-0.3,0.6-0.5,1c-0.3-0.2-0.6-0.3-0.9-0.5c-3.9-2.3-7.8-4.5-11.7-6.8
				c-0.9-0.5-1.6-0.5-2.5,0C11.7-14.4,7.8-12.2,4-10C3.7-9.8,3.3-9.6,3-9.4z M17-17.5c0-0.3,0.1-0.6,0-0.7c-0.1-0.1-0.4-0.2-0.5-0.1
				c-0.1,0.1-0.2,0.4-0.1,0.5C16.5-17.6,16.7-17.6,17-17.5z"/>
			<path class="st3" d="M81.9,127.4c-0.2-0.4-0.4-0.7-0.6-1c4.6-2.7,9.2-5.3,13.8-7.9c0-5.3,0-10.6,0-15.9c0.4,0,0.7,0,1.2,0
				c0,5.3,0,10.6,0,15.9c4.6,2.7,9.2,5.3,13.7,7.9c-0.2,0.3-0.3,0.6-0.5,1c-0.3-0.2-0.6-0.3-1-0.5c-3.9-2.2-7.8-4.4-11.6-6.7
				c-0.9-0.5-1.6-0.5-2.5,0c-3.7,2.2-7.5,4.4-11.3,6.6C82.7,126.9,82.3,127.2,81.9,127.4z M95.9,119.3c0.1-0.3,0.2-0.5,0.1-0.7
				c-0.1-0.1-0.4-0.2-0.5-0.2c-0.1,0.1-0.2,0.4-0.2,0.5C95.4,119.1,95.7,119.2,95.9,119.3z"/>
			<path class="st3" d="M69.9,133c0.2,0.4,0.4,0.6,0.6,1c-0.4,0.2-0.8,0.5-1.2,0.7c-3.9,2.2-7.7,4.5-11.6,6.7c-0.7,0.4-1,0.8-1,1.7
				c0,4.6,0,9.2,0,13.7c0,0.3,0,0.7,0,1.1c-0.4,0-0.7,0-1.1,0c0-5.3,0-10.5,0-15.9c-4.6-2.6-9.1-5.3-13.8-8c0.2-0.3,0.3-0.6,0.5-1
				c4.6,2.6,9.2,5.3,13.8,8C60.8,138.3,65.3,135.6,69.9,133z M56.6,141.3c-0.3,0-0.6-0.1-0.7,0c-0.1,0.1-0.1,0.4-0.1,0.6
				c0.2,0,0.4,0.2,0.6,0.1C56.5,141.9,56.5,141.6,56.6,141.3z"/>
			<path class="st3" d="M35.8,136.8c0.4,0,0.7,0,1.1,0c0,5.3,0,10.6,0,15.9c4.6,2.6,9.1,5.3,13.7,7.9c-0.2,0.3-0.3,0.6-0.5,1
				c-0.3-0.1-0.6-0.3-0.9-0.4c-4-2.3-8-4.6-12-6.9c-0.7-0.4-1.2-0.4-1.9,0c-3.9,2.3-7.7,4.5-11.6,6.7c-0.4,0.2-0.8,0.4-1.2,0.7
				c-0.2-0.4-0.4-0.6-0.6-1c0.4-0.2,0.7-0.4,1.1-0.6c3.9-2.3,7.9-4.6,11.8-6.8c0.7-0.4,0.9-0.8,0.9-1.6c0-4.5,0-9,0-13.5
				C35.8,137.6,35.8,137.2,35.8,136.8z M36.2,152.5c-0.1,0.3-0.2,0.5-0.1,0.7c0.1,0.1,0.4,0.1,0.5,0.2c0.1-0.2,0.2-0.4,0.2-0.6
				C36.7,152.7,36.4,152.7,36.2,152.5z"/>
			<path class="st3" d="M35.9-29.1c-4.6-2.7-9.2-5.3-13.8-8c0.2-0.4,0.4-0.7,0.6-1c1.9,1.1,3.8,2.2,5.7,3.3c2.3,1.3,4.7,2.6,7,4
				c0.8,0.5,1.4,0.4,2.2,0c3.8-2.3,7.7-4.5,11.5-6.7c0.4-0.2,0.7-0.4,1.1-0.6c0.2,0.3,0.3,0.6,0.5,0.9c-0.1,0.1-0.2,0.2-0.3,0.3
				c-1.5,0.9-3.1,1.8-4.6,2.7c-2.5,1.5-5.1,3-7.7,4.4c-0.8,0.5-1.1,1-1.1,1.9c0.1,4.5,0,9,0,13.5c0,0.4,0,0.7,0,1.1
				c-0.4,0-0.7,0-1.1,0C35.9-18.5,35.9-23.7,35.9-29.1z M37-29.7c-0.3-0.1-0.5-0.2-0.7-0.1c-0.1,0.1-0.1,0.4-0.2,0.5
				c0.2,0.1,0.4,0.2,0.6,0.2C36.8-29.1,36.9-29.4,37-29.7z"/>
			<path class="st3" d="M-23.5,186.9c0-5.3,0-10.6,0-15.9c0.4,0,0.7,0,1.2,0c0,5.3,0,10.6,0,15.9c4.6,2.7,9.2,5.3,13.7,7.9
				c-0.2,0.4-0.3,0.6-0.5,1c-0.3-0.2-0.6-0.3-1-0.5c-3.9-2.3-7.9-4.5-11.8-6.8c-0.7-0.4-1.3-0.5-2,0c-3.8,2.3-7.7,4.5-11.5,6.7
				c-0.4,0.2-0.8,0.4-1.2,0.7c-0.2-0.4-0.4-0.7-0.6-1C-32.6,192.2-28.1,189.6-23.5,186.9z M-22.4,187c-0.3-0.1-0.5-0.2-0.7-0.1
				c-0.1,0.1-0.1,0.4-0.2,0.5c0.2,0.1,0.4,0.2,0.6,0.2C-22.6,187.5-22.5,187.3-22.4,187z"/>
			<path class="st3" d="M194.5,38.3c4.6-2.6,9.2-5.3,13.7-7.9c0.2,0.4,0.4,0.6,0.6,1c-0.4,0.2-0.7,0.4-1.1,0.6
				c-3.9,2.3-7.8,4.5-11.7,6.7c-0.7,0.4-1,0.9-1,1.7c0,4.5,0,9,0,13.5c0,0.4,0,0.8,0,1.3c-0.4,0-0.7,0-1.1,0c0-5.3,0-10.6,0-15.9
				c-4.6-2.7-9.1-5.3-13.7-7.9c0.2-0.3,0.3-0.7,0.5-1C185.3,33,189.9,35.6,194.5,38.3z M194.7,39.4c0.1-0.3,0.2-0.5,0.1-0.7
				c0-0.1-0.4-0.2-0.4-0.1c-0.1,0.1-0.3,0.3-0.2,0.5C194.2,39.2,194.5,39.3,194.7,39.4z"/>
			<path class="st3" d="M76.6-52.6c4.6,2.7,9.2,5.3,13.7,7.9c-0.2,0.4-0.3,0.6-0.5,1c-0.3-0.2-0.6-0.3-1-0.5
				c-3.9-2.3-7.8-4.5-11.7-6.8c-0.8-0.5-1.4-0.5-2.2,0c-3.8,2.2-7.6,4.4-11.4,6.6c-0.4,0.2-0.8,0.4-1.2,0.7c-0.2-0.4-0.4-0.6-0.6-1
				c4.5-2.6,9.1-5.2,13.7-7.9c0-5.3,0-10.6,0-15.9c0.4,0,0.7,0,1.2,0C76.6-63.2,76.6-57.9,76.6-52.6z M75.8-52.7
				c-0.1,0.3-0.2,0.6-0.1,0.7c0.1,0.1,0.4,0.1,0.5,0.2c0.1-0.2,0.2-0.4,0.2-0.6C76.3-52.5,76-52.6,75.8-52.7z"/>
			<path class="st3" d="M135.9-86.8c4.6,2.7,9.2,5.3,13.7,7.9c-0.2,0.4-0.3,0.6-0.5,1c-0.3-0.2-0.6-0.3-1-0.5
				c-3.9-2.2-7.8-4.4-11.6-6.7c-0.9-0.5-1.5-0.6-2.4,0c-3.8,2.3-7.6,4.4-11.4,6.6c-0.4,0.2-0.7,0.4-1.1,0.7c-0.2-0.3-0.4-0.6-0.6-1
				c4.6-2.7,9.1-5.3,13.8-7.9c0-5.3,0-10.6,0-15.9c0.4,0,0.7,0,1.2,0C135.9-97.4,135.9-92.1,135.9-86.8z M135.8-86.7
				c-0.3,0-0.5-0.2-0.7-0.1c-0.1,0.1-0.1,0.4-0.2,0.5c0.2,0.1,0.4,0.2,0.6,0.2C135.6-86.1,135.7-86.4,135.8-86.7z"/>
			<path class="st3" d="M175.4-34.3c0,5.3,0,10.6,0,15.9c4.5,2.6,9.1,5.3,13.7,7.9c-0.2,0.3-0.3,0.7-0.5,1c-0.5-0.3-1.1-0.6-1.6-0.9
				c-3.8-2.2-7.6-4.3-11.3-6.6c-0.7-0.4-1.2-0.4-1.8,0c-3.9,2.3-7.7,4.5-11.6,6.7c-0.4,0.2-0.8,0.4-1.2,0.7c-0.2-0.3-0.4-0.6-0.6-1
				c0.1-0.1,0.2-0.2,0.3-0.2c3.6-2.1,7.3-4.2,10.9-6.3c0.6-0.3,1.1-0.7,1.7-1c0.6-0.3,0.7-0.7,0.7-1.3c0-4.5,0-9,0-13.5
				c0-0.5,0-1,0-1.5C174.6-34.3,174.9-34.3,175.4-34.3z M175.3-18.3c-0.3-0.1-0.5-0.2-0.7-0.1c-0.1,0.1-0.1,0.3-0.2,0.5
				c0.2,0.1,0.4,0.2,0.6,0.2C175.1-17.8,175.1-18,175.3-18.3z"/>
			<path class="st3" d="M129.8,23.8c-0.2,0.4-0.3,0.6-0.5,1c-0.3-0.2-0.6-0.3-1-0.5c-3.8-2.2-7.6-4.4-11.4-6.6c-1.7-1-1.1-1-2.9,0
				c-3.7,2.1-7.4,4.3-11.1,6.4c-0.4,0.2-0.8,0.4-1.2,0.7c-0.2-0.4-0.4-0.7-0.6-1c4.6-2.7,9.2-5.3,13.8-7.9c0-5.3,0-10.6,0-15.9
				c0.4,0,0.7,0,1.2,0c0,5.3,0,10.6,0,15.9C120.7,18.5,125.2,21.1,129.8,23.8z M115.8,16.6c0-0.3,0.1-0.6,0-0.7
				c-0.1-0.1-0.4-0.2-0.5-0.1c-0.1,0.1-0.2,0.4-0.1,0.5C115.2,16.5,115.5,16.5,115.8,16.6z"/>
			<path class="st3" d="M89.7,30.4c0.2,0.4,0.4,0.6,0.6,1c-0.4,0.2-0.8,0.4-1.1,0.7c-3.9,2.2-7.7,4.5-11.6,6.7c-0.8,0.4-1,0.9-1,1.8
				c0,4.6,0,9.2,0,13.7c0,0.3,0,0.6,0,1c-0.4,0-0.7,0-1.1,0c0-5.3,0-10.6,0-15.9c-4.6-2.7-9.2-5.3-13.8-8c0.2-0.4,0.3-0.6,0.6-1
				c4.6,2.6,9.1,5.3,13.8,7.9C80.5,35.7,85.1,33,89.7,30.4z M76.5,38.7c-0.3-0.1-0.5-0.2-0.7-0.1c-0.1,0.1-0.1,0.4-0.2,0.5
				c0.2,0.1,0.4,0.2,0.6,0.2C76.3,39.3,76.3,39,76.5,38.7z"/>
			<path class="st3" d="M42.5,59c-0.2-0.4-0.4-0.6-0.6-1c0.4-0.2,0.7-0.4,1-0.6c3.9-2.3,7.9-4.6,11.8-6.8c0.7-0.4,0.9-0.8,0.9-1.6
				c0-4.5,0-8.9,0-13.4c0-0.5,0-1,0-1.4c0.4,0,0.7,0,1.1,0c0,5.3,0,10.6,0,15.9c4.6,2.6,9.1,5.3,13.7,7.9c-0.2,0.3-0.3,0.6-0.5,1
				c-0.3-0.1-0.6-0.3-0.9-0.4c-4-2.3-8-4.6-12-6.9c-0.7-0.4-1.2-0.4-1.9,0c-3.9,2.3-7.7,4.5-11.6,6.7C43.3,58.5,42.9,58.8,42.5,59z
				 M56,49.9c-0.1,0.3-0.2,0.5-0.1,0.7c0.1,0.1,0.4,0.1,0.5,0.2c0.1-0.2,0.2-0.4,0.2-0.6C56.5,50.1,56.2,50,56,49.9z"/>
			<path class="st3" d="M-16.8,93.2c-0.2-0.4-0.4-0.7-0.6-1c4.6-2.6,9.1-5.3,13.7-7.9c0-5.3,0-10.6,0-15.9c0.4,0,0.7,0,1.2,0
				c0,5.3,0,10.6,0,15.9c4.6,2.7,9.2,5.3,13.7,7.9c-0.2,0.4-0.3,0.6-0.5,1c-0.3-0.2-0.6-0.3-1-0.5C5.8,90.4,1.9,88.2-2,85.9
				c-0.7-0.4-1.3-0.5-2,0c-3.8,2.3-7.7,4.5-11.5,6.7C-16,92.7-16.4,93-16.8,93.2z M-2.8,85.1c0-0.3,0.1-0.6,0-0.7
				c-0.1-0.1-0.4-0.2-0.5-0.1c-0.1,0.1-0.2,0.4-0.1,0.5C-3.3,85-3.1,85-2.8,85.1z"/>
			<path class="st3" d="M115-136.9c0.4,0,0.7,0,1.1,0c0,5.3,0,10.5,0,15.9c4.6,2.6,9.1,5.3,13.7,7.9c-0.2,0.3-0.3,0.6-0.5,1
				c-4.6-2.6-9.2-5.3-13.8-8c-4.6,2.6-9.2,5.3-13.8,7.9c-0.2-0.3-0.4-0.6-0.6-1c0.4-0.2,0.7-0.4,1.1-0.6c3.9-2.2,7.7-4.5,11.6-6.7
				c0.8-0.5,1.1-1,1.1-1.9c-0.1-4.5,0-9,0-13.5C115-136.1,115-136.5,115-136.9z M115.2-121.1c0,0.3-0.1,0.6,0,0.7
				c0.1,0.1,0.4,0.2,0.5,0.1c0.1-0.1,0.2-0.4,0.1-0.5C115.8-121,115.5-121,115.2-121.1z"/>
			<path class="st3" d="M169.4-44.6c-0.2,0.4-0.4,0.7-0.6,1c-4.6-2.6-9.1-5.3-13.8-7.9c-4.6,2.6-9.1,5.3-13.8,7.9
				c-0.2-0.3-0.4-0.6-0.6-1c0.4-0.2,0.7-0.4,1-0.6c3.9-2.3,7.9-4.6,11.8-6.8c0.7-0.4,0.9-0.8,0.9-1.6c0-4.6,0-9.2,0-13.7
				c0-0.4,0-0.7,0-1.1c0.4,0,0.7,0,1.1,0c0,5.3,0,10.5,0,15.9C160.2-50,164.7-47.3,169.4-44.6z M154.7-52.7c0,0.3-0.1,0.6,0,0.7
				c0.1,0.1,0.4,0.2,0.5,0.1c0.1-0.1,0.2-0.4,0.1-0.5C155.3-52.6,155-52.6,154.7-52.7z"/>
			<path class="st3" d="M140.7,31.3c0.2-0.3,0.3-0.6,0.5-1c0.3,0.2,0.6,0.3,1,0.5c4,2.3,7.9,4.6,11.9,6.9c0.7,0.4,1.2,0.4,1.9,0
				c3.9-2.3,7.8-4.5,11.7-6.8c0.4-0.2,0.7-0.4,1.1-0.6c0.2,0.3,0.4,0.6,0.6,1c-0.4,0.2-0.7,0.4-1,0.6c-3.9,2.3-7.9,4.6-11.8,6.8
				c-0.7,0.4-0.9,0.8-0.9,1.6c0,4.5,0,9.1,0,13.6c0,0.4,0,0.8,0,1.2c-0.4,0-0.7,0-1.1,0c0-5.3,0-10.5,0-15.9
				C149.8,36.7,145.2,34,140.7,31.3z M155.3,39.4c0-0.3,0.1-0.6,0-0.7c-0.1-0.1-0.4-0.2-0.5-0.1c-0.1,0.1-0.2,0.4-0.1,0.5
				C154.7,39.3,155,39.3,155.3,39.4z"/>
			<path class="st3" d="M95.2-63.3c-4.6-2.7-9.2-5.3-13.8-8c0.2-0.4,0.3-0.6,0.6-1c4.6,2.6,9.1,5.3,13.8,7.9
				c4.6-2.6,9.1-5.3,13.8-7.9c0.2,0.3,0.4,0.6,0.6,1c-0.4,0.2-0.8,0.4-1.1,0.7c-3.9,2.3-7.8,4.5-11.7,6.7c-0.7,0.4-0.9,0.8-0.9,1.6
				c0,4.6,0,9.2,0,13.7c0,0.4,0,0.7,0,1.1c-0.4,0-0.7,0-1.1,0C95.2-52.7,95.2-58,95.2-63.3z M96.1-63.2c0-0.3,0.1-0.6,0-0.7
				C96-64,95.7-64,95.6-63.9c-0.1,0.1-0.2,0.4-0.1,0.5C95.5-63.3,95.8-63.3,96.1-63.2z"/>
			<path class="st3" d="M-3.6-68.4c0.4,0,0.7,0,1.1,0c0,5.3,0,10.6,0,15.9c4.6,2.7,9.2,5.3,13.8,8c-0.2,0.3-0.3,0.6-0.5,1
				c-0.3-0.2-0.7-0.4-1-0.6c-4-2.3-7.9-4.6-11.9-6.9c-0.7-0.4-1.2-0.4-1.8,0c-3.9,2.3-7.8,4.5-11.7,6.8c-0.4,0.2-0.7,0.4-1.1,0.6
				c-0.2-0.3-0.3-0.6-0.5-0.9c0,0,0-0.1,0.1-0.2c0.3-0.2,0.7-0.4,1-0.6c3.8-2.2,7.7-4.5,11.5-6.6c0.8-0.5,1-1,1-1.9
				c0-4.5,0-9,0-13.5C-3.6-67.6-3.6-68-3.6-68.4z M-2.7-51.7c0-0.3,0.1-0.6,0-0.7c-0.1-0.1-0.4-0.2-0.5-0.1
				c-0.1,0.1-0.2,0.4-0.1,0.5C-3.3-51.8-3-51.8-2.7-51.7z"/>
			<path class="st3" d="M30.5-72.2c0.2,0.3,0.4,0.6,0.6,1c-0.4,0.2-0.7,0.4-1,0.6c-3.9,2.3-7.9,4.6-11.8,6.8
				c-0.7,0.4-0.9,0.8-0.9,1.6c0,4.5,0,9.1,0,13.6c0,0.4,0,0.8,0,1.3c-0.4,0-0.7,0-1.1,0c0-5.3,0-10.6,0-15.9
				c-4.6-2.7-9.2-5.3-13.8-8c0.2-0.3,0.3-0.6,0.5-1c0.3,0.2,0.6,0.3,1,0.5c4,2.3,7.9,4.6,11.9,6.9c0.7,0.4,1.2,0.4,1.9,0
				c3.9-2.3,7.8-4.5,11.7-6.8C29.8-71.8,30.1-72,30.5-72.2z M16.2-63.3c0.3,0,0.5,0.2,0.7,0.1c0.1-0.1,0.1-0.3,0.2-0.5
				c-0.2-0.1-0.4-0.2-0.6-0.2C16.4-63.9,16.4-63.6,16.2-63.3z"/>
			<path class="st3" d="M42.5-77.8c-0.2-0.4-0.4-0.7-0.6-1c0.4-0.2,0.7-0.4,1-0.6c3.9-2.3,7.9-4.6,11.8-6.8c0.7-0.4,0.9-0.8,0.9-1.6
				c0-4.6,0-9.2,0-13.7c0-0.4,0-0.7,0-1.1c0.4,0,0.7,0,1.1,0c0,5.3,0,10.6,0,15.9c4.6,2.7,9.1,5.3,13.7,7.9c-0.2,0.3-0.3,0.6-0.5,1
				c-4.6-2.6-9.2-5.3-13.8-8C51.7-83.1,47.1-80.4,42.5-77.8z M56-86.9c-0.1,0.3-0.2,0.5-0.1,0.7c0.1,0.1,0.4,0.2,0.5,0.2
				c0.1-0.1,0.2-0.4,0.2-0.5C56.6-86.7,56.3-86.8,56-86.9z"/>
			<path class="st3" d="M89.8-106.4c0.2,0.4,0.4,0.6,0.5,0.9c-0.1,0.1-0.2,0.2-0.3,0.3c-3.9,2.2-7.7,4.6-11.6,6.7
				c-1.4,0.8-1.9,1.6-1.8,3.2c0.1,4.2,0,8.5,0,12.7c0,0.3,0,0.7,0,1c-0.4,0-0.7,0-1.1,0c0-5.3,0-10.6,0-15.9
				c-4.6-2.7-9.2-5.3-13.8-7.9c0.2-0.3,0.3-0.6,0.5-1c0.3,0.2,0.6,0.3,0.9,0.5c3.9,2.3,7.9,4.5,11.8,6.8c0.8,0.5,1.4,0.5,2.2,0
				c3.8-2.3,7.7-4.5,11.5-6.7C89-106,89.4-106.2,89.8-106.4z M75.5-97.6c0.3,0,0.5,0.2,0.7,0.1c0.1-0.1,0.1-0.3,0.2-0.5
				c-0.2-0.1-0.4-0.2-0.6-0.2C75.7-98.1,75.7-97.8,75.5-97.6z"/>
			<path class="st3" d="M101.2-37.1c0.2-0.3,0.4-0.6,0.5-1c0.3,0.2,0.6,0.3,1,0.5c4,2.3,7.9,4.6,11.9,6.9c0.7,0.4,1.2,0.4,1.9,0
				c3.9-2.3,7.8-4.5,11.7-6.8c0.4-0.2,0.7-0.4,1.1-0.6c0.2,0.3,0.4,0.6,0.6,1c-0.4,0.2-0.7,0.4-1,0.6c-3.9,2.3-7.9,4.6-11.8,6.8
				c-0.7,0.4-0.9,0.8-0.9,1.6c0,4.5,0,9.1,0,13.6c0,0.4,0,0.8,0,1.2c-0.4,0-0.7,0-1.1,0c0-5.3,0-10.6,0-15.9
				C110.3-31.8,105.7-34.4,101.2-37.1z M115.8-29c0-0.3,0.1-0.6,0-0.7c-0.1-0.1-0.4-0.2-0.5-0.1c-0.1,0.1-0.2,0.4-0.1,0.5
				C115.2-29.1,115.5-29.1,115.8-29z"/>
			<path class="st3" d="M194-0.1c0.4,0,0.7,0,1.1,0c0,5.3,0,10.5,0,15.9c4.6,2.6,9.1,5.3,13.8,8c-0.2,0.4-0.4,0.7-0.6,1
				c-4.6-2.6-9.2-5.3-13.8-8c-4.6,2.6-9.2,5.3-13.8,7.9c-0.2-0.4-0.4-0.6-0.6-1c0.4-0.2,0.7-0.4,1.1-0.6c3.9-2.2,7.7-4.5,11.6-6.7
				c0.8-0.4,1.1-0.9,1.1-1.8c0-4.5,0-9,0-13.5C193.9,0.7,193.9,0.4,194-0.1z M195,15.9c-0.3-0.1-0.5-0.2-0.7-0.1
				c-0.1,0.1-0.1,0.4-0.2,0.5c0.2,0.1,0.4,0.2,0.5,0.2C194.8,16.4,194.9,16.2,195,15.9z"/>
			<path class="st3" d="M41.9-2.8c0.2-0.4,0.4-0.6,0.6-1c0.4,0.2,0.7,0.4,1.1,0.6c3.9,2.3,7.9,4.5,11.8,6.8C56,4,56.5,4,57.2,3.6
				c3.9-2.3,7.8-4.5,11.7-6.8c0.4-0.2,0.7-0.4,1.1-0.6c0.2,0.4,0.4,0.6,0.6,1C66-0.2,61.4,2.5,56.8,5.1c0,5.3,0,10.6,0,15.9
				c-0.4,0-0.7,0-1.2,0c0-5.3,0-10.5,0-15.9C51.1,2.5,46.5-0.1,41.9-2.8z M56,4.3c-0.1,0.3-0.2,0.5-0.1,0.7c0.1,0.1,0.4,0.2,0.5,0.2
				c0.1-0.1,0.2-0.4,0.2-0.5C56.5,4.5,56.3,4.4,56,4.3z"/>
			<path class="st3" d="M22.7,24.8c-0.2-0.4-0.4-0.6-0.6-1c0.4-0.2,0.7-0.4,1.1-0.6c3.9-2.3,7.8-4.5,11.7-6.7c0.7-0.4,1-0.8,1-1.7
				c0-4.5,0-9.1,0-13.6c0-0.4,0-0.7,0-1.2c0.4,0,0.7,0,1.1,0c0,5.3,0,10.6,0,15.9c4.6,2.6,9.1,5.3,13.8,8c-0.2,0.4-0.4,0.7-0.6,1
				c-4.6-2.6-9.2-5.3-13.8-8C31.9,19.5,27.3,22.2,22.7,24.8z M36.8,16.7c0-0.3,0.1-0.6,0-0.7c-0.1-0.1-0.4-0.2-0.5-0.1
				c-0.1,0.1-0.2,0.4-0.1,0.5C36.2,16.5,36.5,16.6,36.8,16.7z"/>
			<path class="st3" d="M95.2-34.3c0.4,0,0.7,0,1.1,0c0,5.3,0,10.6,0,15.9c4.6,2.7,9.2,5.3,13.8,8c-0.2,0.4-0.4,0.7-0.6,1
				c-1.9-1.1-3.8-2.2-5.6-3.2c-2.5-1.4-4.9-2.8-7.3-4.3c-0.6-0.3-1-0.4-1.6,0c-3.9,2.3-7.9,4.6-11.8,6.8c-0.4,0.2-0.7,0.4-1.1,0.6
				c-0.2-0.3-0.4-0.6-0.6-1c0.4-0.2,0.7-0.4,1.1-0.6c3.9-2.3,7.8-4.5,11.7-6.7c0.7-0.4,1-0.9,1-1.7c0-4.5,0-9.1,0-13.6
				C95.2-33.4,95.2-33.8,95.2-34.3z M95.5-18.5c-0.1,0.3-0.2,0.5-0.1,0.7c0.1,0.1,0.4,0.2,0.5,0.2c0.1-0.1,0.2-0.4,0.2-0.5
				C96.1-18.3,95.8-18.4,95.5-18.5z"/>
			<path class="st3" d="M-2.5,39.4c0,5.3,0,10.6,0,15.9c-0.4,0-0.7,0-1.2,0c0-5.3,0-10.5,0-15.9c-4.6-2.6-9.1-5.3-13.7-7.9
				c0.2-0.3,0.3-0.6,0.5-1c0.3,0.2,0.7,0.4,1,0.5c4,2.3,7.9,4.6,11.9,6.9c0.7,0.4,1.2,0.4,1.9,0c3.9-2.3,7.8-4.5,11.7-6.8
				c0.3-0.2,0.7-0.4,1.1-0.6c0.2,0.4,0.4,0.6,0.6,1C6.7,34.1,2.1,36.7-2.5,39.4z M-2.6,38.7c-0.3,0-0.6-0.1-0.7,0
				c-0.1,0.1-0.1,0.4-0.1,0.6c0.2,0,0.4,0.2,0.6,0.1C-2.7,39.3-2.7,39-2.6,38.7z"/>
			<path class="st3" d="M-23.4,34.2c0.4,0,0.8,0,1.1,0c0,5.3,0,10.6,0,15.9c4.6,2.7,9.2,5.3,13.8,8c-0.2,0.4-0.3,0.6-0.5,1
				c-0.3-0.2-0.7-0.4-1-0.6c-3.7-2.2-7.5-4.3-11.2-6.5c-1.9-1.1-1.2-1.1-3.1,0c-3.7,2.1-7.4,4.2-11,6.4c-0.4,0.2-0.7,0.4-1.1,0.6
				c-0.2-0.3-0.3-0.6-0.5-0.9c0.1-0.1,0.2-0.2,0.4-0.3c3.7-2.1,7.4-4.3,11.1-6.4c0.7-0.4,1.6-0.7,2-1.3c0.4-0.6,0.2-1.6,0.2-2.4
				c0-4.1,0-8.2,0-12.3C-23.4,35-23.4,34.6-23.4,34.2z M-22.3,50.2c-0.3-0.1-0.5-0.2-0.7-0.1c-0.1,0.1-0.1,0.3-0.2,0.5
				c0.2,0.1,0.4,0.2,0.5,0.2C-22.5,50.7-22.5,50.5-22.3,50.2z"/>
			<path class="st3" d="M-76.7,65.6c0.2-0.4,0.4-0.7,0.6-1c1.2,0.7,2.3,1.3,3.5,2c3.1,1.8,6.3,3.6,9.4,5.4c0.7,0.4,1.2,0.4,1.8,0
				c3.9-2.3,7.8-4.5,11.7-6.8c0.4-0.2,0.7-0.4,1.1-0.6c0.2,0.3,0.4,0.6,0.6,0.9c-4.6,2.6-9.1,5.3-13.8,7.9c0,5.3,0,10.6,0,16
				c-0.4,0-0.7,0-1.2,0c0-5.3,0-10.6,0-15.9C-67.5,70.9-72.1,68.3-76.7,65.6z M-62.6,72.7c-0.1,0.3-0.2,0.5-0.1,0.7
				c0.1,0.1,0.4,0.2,0.5,0.2c0.1-0.1,0.2-0.4,0.2-0.5C-62,72.9-62.3,72.9-62.6,72.7z"/>
			<path class="st3" d="M-81.5,84.3c4.6,2.7,9.2,5.3,13.8,8c-0.2,0.3-0.3,0.6-0.5,1c-0.3-0.2-0.7-0.4-1-0.6c-4-2.3-7.9-4.6-11.9-6.9
				c-0.7-0.4-1.2-0.4-1.8,0c-3.9,2.3-7.8,4.5-11.7,6.8c-0.4,0.2-0.7,0.4-1.1,0.6c-0.2-0.3-0.4-0.6-0.6-1c0.4-0.2,0.7-0.4,1.1-0.6
				c3.9-2.3,7.8-4.5,11.7-6.7c0.7-0.4,1-0.9,0.9-1.7c0-4.5,0-9.1,0-13.6c0-0.4,0-0.7,0-1.2c0.4,0,0.7,0,1.1,0
				C-81.5,73.7-81.5,79-81.5,84.3z M-82.3,84.2c-0.1,0.3-0.2,0.5-0.1,0.7c0.1,0.1,0.4,0.2,0.5,0.2c0.1-0.1,0.2-0.4,0.2-0.5
				C-81.8,84.3-82.1,84.3-82.3,84.2z"/>
			<path class="st3" d="M134.7,34.1c0.4,0,0.7,0,1.1,0c0,5.3,0,10.5,0,15.9c4.6,2.6,9.1,5.3,13.8,8c-0.2,0.3-0.3,0.7-0.5,1
				c-4.6-2.6-9.2-5.3-13.8-8c-4.6,2.6-9.2,5.3-13.8,7.9c-0.2-0.4-0.4-0.6-0.6-1c0.4-0.2,0.7-0.4,1.1-0.6c3.9-2.2,7.7-4.5,11.6-6.7
				c0.8-0.4,1.1-0.9,1.1-1.8c-0.1-4.5,0-9.1,0-13.6C134.7,34.9,134.7,34.5,134.7,34.1z M135.7,50.1c-0.3-0.1-0.6-0.2-0.7-0.1
				c-0.1,0.1-0.1,0.4-0.2,0.5c0.2,0.1,0.4,0.2,0.5,0.2C135.5,50.6,135.6,50.4,135.7,50.1z"/>
			<path class="st3" d="M76.5,68.4c0,5.4,0,10.6,0,15.9c4.6,2.7,9.2,5.3,13.8,8c-0.2,0.3-0.3,0.6-0.5,1c-0.3-0.2-0.7-0.4-1-0.6
				c-4-2.3-7.9-4.6-11.9-6.9c-0.7-0.4-1.2-0.4-1.8,0c-3.9,2.3-7.8,4.5-11.7,6.8c-0.4,0.2-0.7,0.4-1.1,0.6c-0.2-0.3-0.4-0.6-0.6-1
				c0.4-0.2,0.7-0.4,1.1-0.6c3.9-2.3,7.8-4.5,11.7-6.7c0.7-0.4,1-0.9,0.9-1.7c0-4.5,0-9.1,0-13.6c0-0.4,0-0.7,0-1.2
				C75.8,68.4,76.1,68.4,76.5,68.4z M75.6,84.1c0,0.3-0.1,0.6,0,0.7c0.1,0.1,0.4,0.2,0.5,0.1c0.1-0.1,0.2-0.4,0.1-0.5
				C76.2,84.2,75.9,84.2,75.6,84.1z"/>
			<path class="st3" d="M-122.1,0c0.4,0,0.7,0,1.1,0c0,5.3,0,10.5,0,15.9c4.6,2.6,9.1,5.3,13.7,7.9c-0.2,0.3-0.3,0.6-0.5,1
				c-4.6-2.6-9.2-5.3-13.8-8c-4.6,2.6-9.2,5.3-13.8,7.9c-0.2-0.3-0.4-0.6-0.6-1c0.4-0.2,0.7-0.4,1.1-0.6c3.9-2.3,7.8-4.5,11.7-6.7
				c0.8-0.4,1-0.9,1-1.8c0-4.5,0-9.1,0-13.6C-122.2,0.8-122.1,0.4-122.1,0z M-121.1,16c-0.3-0.1-0.5-0.2-0.7-0.1
				c-0.1,0.1-0.1,0.4-0.2,0.5c0.2,0.1,0.4,0.2,0.5,0.2C-121.3,16.6-121.2,16.3-121.1,16z"/>
			<path class="st3" d="M-101.3,21.1c-0.4,0-0.7,0-1.1,0c0-5.3,0-10.5,0-15.9c-4.6-2.6-9.2-5.3-13.8-8c0.2-0.4,0.4-0.6,0.5-1
				c0.3,0.2,0.6,0.3,1,0.5c4,2.3,7.9,4.6,11.9,6.9c0.7,0.4,1.2,0.4,1.9,0c3.9-2.3,7.8-4.5,11.7-6.8c0.4-0.2,0.7-0.4,1.1-0.6
				c0.2,0.3,0.4,0.6,0.6,1c-0.4,0.2-0.7,0.4-1,0.6c-3.9,2.3-7.9,4.6-11.8,6.8c-0.7,0.4-0.9,0.8-0.9,1.6c0,4.5,0,9.1,0,13.6
				C-101.2,20.3-101.3,20.7-101.3,21.1z M-102.1,4.4c-0.1,0.3-0.2,0.5-0.1,0.7c0.1,0.1,0.4,0.2,0.5,0.2c0.1-0.1,0.2-0.4,0.2-0.5
				C-101.5,4.5-101.8,4.5-102.1,4.4z"/>
			<path class="st3" d="M-42,152.7c4.6,2.7,9.2,5.3,13.8,8c-0.2,0.4-0.3,0.7-0.5,1c-0.3-0.2-0.7-0.4-1.1-0.6
				c-3.9-2.3-7.8-4.5-11.7-6.8c-0.8-0.4-1.3-0.5-2.1,0c-3.8,2.3-7.7,4.5-11.6,6.7c-0.4,0.2-0.7,0.4-1.1,0.6
				c-0.2-0.3-0.3-0.6-0.5-0.9c0.2-0.1,0.3-0.3,0.5-0.4c3.9-2.2,7.7-4.5,11.6-6.7c1.9-1.1,1.6-0.5,1.6-2.7c0-4.4,0-8.7,0-13.1
				c0-0.3,0-0.7,0-1c0.4,0,0.7,0,1.1,0C-42,142.1-42,147.4-42,152.7z M-42.9,152.5c-0.1,0.3-0.2,0.5-0.1,0.7
				c0.1,0.1,0.4,0.2,0.5,0.2c0.1-0.1,0.2-0.4,0.2-0.5C-42.3,152.7-42.6,152.7-42.9,152.5z"/>
			<path class="st3" d="M-62.9-34.2c0.4,0,0.7,0,1.1,0c0,5.3,0,10.5,0,15.9c4.6,2.6,9.1,5.3,13.7,7.9c-0.2,0.3-0.3,0.6-0.5,1
				c-4.6-2.6-9.2-5.3-13.8-8c-4.6,2.6-9.2,5.3-13.8,7.9c-0.2-0.3-0.4-0.6-0.6-1c0.4-0.2,0.7-0.4,1.1-0.6c3.9-2.3,7.8-4.5,11.7-6.7
				c0.8-0.4,1-0.9,1-1.8c0-4.5,0-9.1,0-13.6C-62.9-33.5-62.9-33.8-62.9-34.2z M-62-17.5c0-0.3,0.1-0.6,0-0.7
				c-0.1-0.1-0.4-0.2-0.5-0.1s-0.2,0.4-0.1,0.5C-62.6-17.6-62.3-17.6-62-17.5z"/>
			<path class="st3" d="M-37.1-2.8c0.2-0.3,0.3-0.6,0.5-1c4.6,2.6,9.1,5.3,13.8,7.9c4.6-2.6,9.1-5.3,13.8-7.9c0.2,0.3,0.4,0.6,0.6,1
				c-0.4,0.2-0.8,0.4-1.1,0.6c-3.9,2.2-7.7,4.5-11.6,6.7c-0.7,0.4-1,0.9-1,1.8c0,4.5,0,9.1,0,13.6c0,0.4,0,0.7,0,1.1
				c-0.4,0-0.7,0-1.1,0c0-5.3,0-10.6,0-15.9C-28,2.5-32.5-0.1-37.1-2.8z M-22.5,5.3c0.1-0.3,0.2-0.5,0.1-0.7
				c-0.1-0.1-0.4-0.2-0.5-0.2c-0.1,0.1-0.2,0.4-0.2,0.5C-23.1,5.1-22.8,5.2-22.5,5.3z"/>
			<path class="st3" d="M16.1,102.6c0.4,0,0.7,0,1.1,0c0,5.3,0,10.6,0,15.9c4.6,2.6,9.2,5.3,13.8,8c-0.2,0.4-0.4,0.7-0.6,1
				c-4.6-2.7-9.2-5.3-13.8-8c-4.6,2.6-9.2,5.3-13.7,7.9c-0.2-0.4-0.4-0.6-0.6-1c0.4-0.2,0.7-0.4,1.1-0.6c3.9-2.3,7.8-4.5,11.7-6.7
				c0.7-0.4,1-0.9,1-1.7c0-4.5,0-9.1,0-13.6C16.1,103.4,16.1,103,16.1,102.6z M16.9,119.3c0.1-0.3,0.2-0.5,0.1-0.7
				c-0.1-0.1-0.4-0.2-0.5-0.2c-0.1,0.1-0.2,0.4-0.2,0.5C16.4,119.1,16.6,119.2,16.9,119.3z"/>
			<path class="st3" d="M50.2,98.8c0.2,0.4,0.4,0.6,0.6,1c-4.6,2.7-9.2,5.3-13.8,7.9c0,5.3,0,10.6,0,15.9c-0.4,0-0.7,0-1.1,0
				c0-5.3,0-10.5,0-15.9c-4.6-2.6-9.1-5.3-13.7-7.9c0.2-0.3,0.3-0.6,0.5-1c0.3,0.2,0.7,0.3,1,0.5c4,2.3,7.9,4.6,11.9,6.9
				c0.7,0.4,1.2,0.4,1.9,0c3.9-2.3,7.8-4.5,11.7-6.8C49.5,99.2,49.8,99,50.2,98.8z M36.9,107.2c-0.3-0.1-0.6-0.2-0.7-0.1
				c-0.1,0.1-0.1,0.4-0.2,0.5c0.2,0.1,0.4,0.2,0.5,0.2C36.7,107.7,36.8,107.4,36.9,107.2z"/>
			<path class="st3" d="M101.1,99.8c0.2-0.4,0.4-0.7,0.5-1c4.6,2.6,9.2,5.3,13.8,8c4.6-2.6,9.2-5.3,13.8-7.9c0.2,0.4,0.4,0.6,0.6,1
				c-0.4,0.2-0.8,0.5-1.2,0.7c-3.8,2.2-7.7,4.5-11.5,6.6c-0.8,0.4-1.1,0.9-1.1,1.8c0.1,4.5,0,9.1,0,13.6c0,0.3,0,0.7,0,1.1
				c-0.4,0-0.7,0-1.1,0c0-5.3,0-10.6,0-15.9C110.3,105.1,105.7,102.4,101.1,99.8z M116,107.1c-0.3-0.1-0.5-0.2-0.7-0.1
				c-0.1,0.1-0.1,0.4-0.2,0.5c0.2,0.1,0.4,0.2,0.6,0.2C115.8,107.7,115.8,107.4,116,107.1z"/>
			<path class="st3" d="M10.6,167.2c0.2,0.4,0.4,0.6,0.6,1c-0.4,0.2-0.8,0.5-1.2,0.7c-3.9,2.2-7.7,4.5-11.6,6.7
				c-0.7,0.4-1,0.8-1,1.7c0,4.6,0,9.2,0,13.7c0,0.3,0,0.7,0,1.1c-0.4,0-0.7,0-1.1,0c0-5.3,0-10.5,0-15.9c-4.6-2.6-9.1-5.3-13.8-8
				c0.2-0.3,0.3-0.6,0.5-1c4.6,2.6,9.2,5.3,13.8,8C1.5,172.5,6,169.9,10.6,167.2z M-2.6,175.5c-0.3,0-0.6-0.1-0.7,0
				c-0.1,0.1-0.1,0.4-0.1,0.6c0.2,0,0.4,0.2,0.6,0.1C-2.8,176.1-2.7,175.8-2.6,175.5z"/>
			<path class="st3" d="M-28.8-38c0.2,0.4,0.4,0.6,0.6,1c-4.6,2.7-9.2,5.3-13.8,7.9c0,5.3,0,10.6,0,15.9c-0.4,0-0.7,0-1.2,0
				c0-5.3,0-10.5,0-15.9c-4.6-2.6-9.1-5.3-13.7-7.9c0.2-0.3,0.3-0.6,0.5-1c0.3,0.2,0.7,0.4,1,0.5c3.9,2.3,7.9,4.5,11.8,6.8
				c0.8,0.5,1.4,0.4,2.1,0c3.8-2.3,7.7-4.5,11.6-6.7C-29.5-37.6-29.1-37.8-28.8-38z M-42.8-29.9c-0.1,0.3-0.2,0.5-0.1,0.7
				c0.1,0.1,0.4,0.2,0.5,0.2c0.1-0.1,0.2-0.4,0.2-0.5C-42.2-29.7-42.5-29.7-42.8-29.9z"/>
			<path class="st3" d="M-23.1,141c0.5-0.2,0.9-0.4,1.4-0.7c3.8-2.2,7.7-4.4,11.5-6.6c0.4-0.2,0.7-0.4,1.1-0.6
				c0.2,0.3,0.3,0.6,0.5,0.9c-0.1,0.1-0.2,0.2-0.3,0.2c-3.8,2.2-7.5,4.4-11.3,6.5c-0.7,0.4-1.6,0.7-1.9,1.3
				c-0.3,0.6-0.2,1.6-0.2,2.4c0,4.2,0,8.3,0,12.5c0,0.3,0,0.6,0,0.9c-0.4,0-0.7,0-1.1,0c0-5.3,0-10.6,0-15.9
				c-4.6-2.7-9.2-5.3-13.8-7.9c0.2-0.3,0.3-0.6,0.5-1c0.2,0.1,0.4,0.2,0.6,0.3c4.1,2.4,8.2,4.7,12.3,7.1
				C-23.5,140.6-23.3,140.8-23.1,141c0,0.2-0.1,0.4-0.1,0.6c0,0.1,0.2,0.3,0.3,0.4c0.1,0,0.4-0.1,0.4-0.2c0.1-0.1,0-0.4,0-0.5
				C-22.7,141.2-22.9,141.1-23.1,141z"/>
			<path class="st3" d="M95.4,72.6c0.5-0.2,0.9-0.4,1.4-0.7c3.8-2.2,7.7-4.4,11.5-6.6c0.4-0.2,0.7-0.4,1.1-0.6
				c0.2,0.3,0.3,0.6,0.5,0.9c-0.1,0.1-0.2,0.2-0.3,0.2c-3.8,2.2-7.5,4.4-11.3,6.5c-0.7,0.4-1.6,0.7-1.9,1.3
				c-0.3,0.6-0.2,1.6-0.2,2.4c0,4.2,0,8.3,0,12.5c0,0.3,0,0.6,0,0.9c-0.4,0-0.7,0-1.1,0c0-5.3,0-10.6,0-15.9
				c-4.6-2.7-9.2-5.3-13.8-7.9c0.2-0.3,0.3-0.6,0.5-1c0.2,0.1,0.4,0.2,0.6,0.3c4.1,2.4,8.2,4.7,12.3,7.1
				C95,72.1,95.2,72.4,95.4,72.6c0,0.2-0.1,0.4-0.1,0.6c0,0.1,0.2,0.3,0.3,0.4c0.1,0,0.4-0.1,0.4-0.2c0.1-0.1,0-0.4,0-0.5
				C95.9,72.8,95.6,72.7,95.4,72.6z"/>
			<path class="st3" d="M2.9,195.8c-0.2-0.4-0.4-0.6-0.6-1c0.4-0.2,0.8-0.5,1.2-0.7c3.9-2.2,7.7-4.5,11.6-6.7c0.7-0.4,1-0.9,0.9-1.7
				c0-4.5,0-9.1,0-13.6c0-0.4,0-0.7,0-1.1c0.4,0,0.7,0,1.1,0c0,5.3,0,10.5,0,15.9c4.6,2.6,9.1,5.3,13.7,7.9c-0.2,0.4-0.3,0.7-0.5,1
				c-0.4-0.2-0.7-0.4-1.1-0.6c-3.7-2.2-7.5-4.3-11.2-6.5c-1.8-1.1-1.2-1-3,0c-3.8,2.1-7.5,4.3-11.2,6.5
				C3.6,195.4,3.3,195.6,2.9,195.8z M16.9,187.7c0-0.3,0.1-0.6,0-0.7c-0.1-0.1-0.4-0.2-0.5-0.1c-0.1,0.1-0.2,0.4-0.1,0.5
				C16.4,187.6,16.7,187.6,16.9,187.7z"/>
			<path class="st3" d="M-3.6,0c0.4,0,0.7,0,1.1,0c0,5.3,0,10.5,0,15.9c4.6,2.6,9.1,5.3,13.7,7.9c-0.2,0.3-0.3,0.7-0.5,1
				c-0.5-0.3-1-0.6-1.6-0.9C5.5,21.8,1.7,19.6-2,17.4c-0.7-0.4-1.3-0.5-2,0c-3.9,2.3-7.8,4.5-11.7,6.8c-0.3,0.2-0.7,0.4-1.1,0.6
				c-0.2-0.3-0.3-0.6-0.5-0.9c0.1-0.1,0.1-0.2,0.2-0.2c0.8-0.5,1.7-1,2.5-1.5c3.2-1.9,6.4-3.8,9.7-5.6c1-0.5,1.4-1.1,1.3-2.2
				c-0.1-4.4,0-8.9,0-13.3C-3.6,0.8-3.6,0.4-3.6,0z M-3.3,15.7c-0.1,0.3-0.2,0.5-0.1,0.7c0.1,0.1,0.4,0.2,0.5,0.2
				c0.1-0.1,0.2-0.4,0.2-0.5C-2.8,15.9-3,15.9-3.3,15.7z"/>
			<path class="st3" d="M2.4-2.8c0.2-0.4,0.4-0.7,0.6-1c0.6,0.3,1.1,0.6,1.7,1c3.7,2.2,7.5,4.3,11.2,6.5c0.7,0.4,1.2,0.4,1.8,0
				c3.9-2.3,7.7-4.5,11.6-6.7c0.4-0.2,0.8-0.4,1.2-0.7c0.2,0.3,0.4,0.6,0.6,0.9c-0.2,0.1-0.3,0.3-0.5,0.3c-4.1,2.3-8.1,4.7-12.2,7
				c-0.8,0.5-1.1,1-1.1,1.9c0.1,4.4,0,8.9,0,13.3c0,0.4,0,0.9,0,1.3c-0.4,0-0.7,0-1.1-0.1c0-5.3,0-10.5,0-15.8
				C11.5,2.5,7-0.1,2.4-2.8z M17,5.3c0-0.3,0.1-0.5,0-0.7c-0.1-0.1-0.4-0.2-0.5-0.1c-0.1,0.1-0.2,0.4-0.1,0.5
				C16.5,5.2,16.7,5.2,17,5.3z"/>
			<path class="st3" d="M56.8-18.4c4.6,2.7,9.2,5.3,13.7,7.9c-0.2,0.4-0.3,0.6-0.5,1c-0.4-0.2-0.7-0.4-1-0.6
				c-3.9-2.3-7.9-4.5-11.8-6.8c-0.7-0.4-1.2-0.4-1.9,0c-3.9,2.3-7.8,4.5-11.7,6.8c-0.3,0.2-0.7,0.4-1.1,0.6c-0.2-0.3-0.4-0.6-0.6-1
				c0.4-0.2,0.8-0.5,1.2-0.7c3.9-2.2,7.7-4.5,11.6-6.7c0.7-0.4,1-0.9,1-1.7c0-4.6,0-9.2,0-13.7c0-0.3,0-0.7,0-1c0.4,0,0.7,0,1.1,0
				C56.8-28.9,56.8-23.7,56.8-18.4z M56-18.5c-0.1,0.3-0.2,0.5-0.1,0.7c0.1,0.1,0.4,0.2,0.5,0.2c0.1-0.1,0.2-0.4,0.2-0.5
				C56.5-18.3,56.3-18.4,56-18.5z"/>
			<path class="st3" d="M115-68.5c0.4,0,0.7,0,1.1,0c0,5.2,0,10.5,0,15.9c4.5,2.6,9.1,5.3,13.7,7.9c-0.2,0.4-0.3,0.7-0.5,1
				c-2-1.1-3.9-2.2-5.8-3.4c-2.3-1.3-4.7-2.6-7-4c-0.8-0.5-1.3-0.4-2,0c-3.9,2.3-7.7,4.5-11.6,6.7c-0.4,0.2-0.7,0.4-1.1,0.6
				c-0.2-0.3-0.3-0.6-0.6-1c0.4-0.2,0.8-0.4,1.1-0.7c3.9-2.2,7.7-4.5,11.6-6.7c0.8-0.4,1-0.9,1-1.8c0-4.6,0-9.2,0-13.7
				C115-67.8,115-68.1,115-68.5z M116-52.5c-0.3,0-0.6-0.1-0.7,0c-0.1,0.1-0.1,0.4-0.1,0.6c0.2,0,0.4,0.2,0.6,0.1
				C115.9-52,115.9-52.3,116-52.5z"/>
			<path class="st3" d="M149-72.2c0.2,0.3,0.3,0.6,0.5,0.9c-0.1,0.1-0.2,0.2-0.4,0.3c-2.9,1.7-5.8,3.4-8.7,5
				c-1.3,0.7-2.6,1.5-3.9,2.2c-0.6,0.3-0.8,0.7-0.8,1.3c0,4.7,0,9.4,0,14.1c0,0.3,0,0.6,0,0.9c-0.4,0-0.7,0-1.1,0
				c0-5.3,0-10.5,0-15.9c-4.6-2.6-9.1-5.3-13.7-7.9c0.2-0.3,0.3-0.6,0.5-1c0.3,0.2,0.6,0.3,1,0.5c4,2.3,7.9,4.6,11.9,6.9
				c0.7,0.4,1.2,0.4,1.9,0c3.9-2.3,7.7-4.5,11.6-6.7C148.3-71.8,148.6-72,149-72.2z M135-64.1c-0.1,0.3-0.2,0.5-0.1,0.7
				c0.1,0.1,0.4,0.2,0.5,0.2c0.1-0.1,0.2-0.4,0.2-0.5C135.6-63.9,135.3-64,135-64.1z"/>
			<path class="st3" d="M214.8,89.4c-0.4,0-0.7,0-1.1-0.1c0-5.2,0-10.5,0-15.8c-4.5-2.6-9.1-5.3-13.7-7.9c0.2-0.3,0.4-0.7,0.5-1
				c1.1,0.6,2.2,1.2,3.2,1.9c3.1,1.8,6.3,3.6,9.4,5.4c0.9,0.5,1.6,0.5,2.4,0c3.7-2.2,7.5-4.4,11.3-6.6c0.4-0.2,0.8-0.4,1.2-0.7
				c0.2,0.3,0.4,0.6,0.6,1c-0.4,0.2-0.7,0.4-1.1,0.6c-3.9,2.2-7.7,4.5-11.6,6.7c-0.8,0.5-1.1,1-1.1,1.9c0.1,4.4,0,8.9,0,13.3
				C214.8,88.5,214.8,88.9,214.8,89.4z M214.7,72.8c-0.3,0-0.6-0.1-0.7,0c-0.1,0.1-0.1,0.4-0.1,0.6c0.2,0,0.4,0.2,0.6,0.1
				C214.6,73.4,214.6,73.1,214.7,72.8z"/>
			<path class="st3" d="M168.7,98.8c0.2,0.4,0.4,0.6,0.5,0.9c-0.1,0.1-0.3,0.2-0.4,0.3c-3.9,2.3-7.8,4.5-11.7,6.8
				c-0.2,0.1-0.4,0.3-0.7,0.4c-0.7,0.3-0.9,0.8-0.9,1.6c0,3.2,0,6.5,0,9.7c0,1.7,0,3.4,0,5.2c-0.4,0-0.7,0-1.1,0
				c0-5.3,0-10.5,0-15.9c-4.6-2.6-9.1-5.3-13.7-7.9c0.2-0.3,0.3-0.6,0.5-1c0.3,0.2,0.7,0.4,1,0.5c4,2.3,7.9,4.6,11.9,6.9
				c0.7,0.4,1.2,0.4,1.8,0c3.9-2.3,7.7-4.5,11.6-6.7C167.9,99.3,168.3,99,168.7,98.8z M154.5,107.6c0.3,0.1,0.5,0.2,0.7,0.1
				c0.1-0.1,0.1-0.3,0.2-0.5c-0.2-0.1-0.4-0.2-0.5-0.2C154.7,107.1,154.6,107.3,154.5,107.6z"/>
			<path class="st3" d="M121.5,127.4c-0.2-0.4-0.4-0.6-0.6-1c0.4-0.2,0.8-0.5,1.2-0.7c3.8-2.2,7.6-4.4,11.4-6.6
				c0.9-0.5,1.1-1.1,1.1-2c-0.1-4.5,0-8.9,0-13.4c0-0.4,0-0.7,0-1.1c0.4,0,0.7,0,1.1,0c0,0.4,0,0.8,0,1.2c0,4.5,0,8.9,0,13.4
				c0,1,0.3,1.5,1.2,2c3.9,2.2,7.8,4.5,11.6,6.7c0.3,0.2,0.6,0.3,0.9,0.6c-0.2,0.3-0.3,0.6-0.5,1c-0.4-0.2-0.8-0.4-1.2-0.7
				c-3.8-2.2-7.7-4.4-11.5-6.7c-0.8-0.5-1.4-0.5-2.2,0c-3.8,2.3-7.7,4.5-11.6,6.7C122.2,127,121.8,127.2,121.5,127.4z M135.7,118.5
				c-0.3-0.1-0.5-0.2-0.7-0.1c-0.1,0.1-0.1,0.3-0.2,0.5c0.2,0.1,0.4,0.2,0.5,0.2C135.5,119.1,135.6,118.8,135.7,118.5z"/>
			<path class="st3" d="M81.9,133c3.2,1.8,6.3,3.6,9.4,5.4c1.1,0.7,2.3,1.3,3.4,2c0.7,0.5,1.3,0.5,2,0c3.8-2.3,7.7-4.5,11.5-6.7
				c0.4-0.2,0.8-0.4,1.2-0.7c0.2,0.3,0.4,0.6,0.6,0.9c-0.2,0.1-0.3,0.3-0.4,0.3c-3.3,1.9-6.6,3.8-9.9,5.7c-0.7,0.4-1.5,0.9-2.2,1.3
				c-0.9,0.4-1.3,1-1.2,2.1c0.1,4.3,0,8.6,0,12.9c0,0.6,0,1.1,0,1.7c-0.4,0-0.7,0-1.1,0c0-5.3,0-10.5,0-15.9
				c-4.6-2.7-9.2-5.3-13.7-7.9C81.6,133.6,81.7,133.3,81.9,133z M95.9,142.1c0.1-0.3,0.2-0.5,0.1-0.7c-0.1-0.1-0.4-0.2-0.5-0.2
				c-0.1,0.1-0.2,0.4-0.2,0.5C95.4,141.9,95.7,141.9,95.9,142.1z"/>
			<path class="st3" d="M35.8,176.2c-4.6-2.6-9.1-5.3-13.7-7.9c0.2-0.3,0.3-0.7,0.5-1c0.6,0.3,1.1,0.6,1.7,1
				c3.7,2.2,7.5,4.3,11.2,6.5c0.7,0.4,1.2,0.4,1.8,0c3.9-2.3,7.7-4.5,11.6-6.7c0.4-0.2,0.8-0.4,1.2-0.7c0.2,0.3,0.4,0.6,0.6,0.9
				c-0.2,0.1-0.3,0.3-0.5,0.3c-4.1,2.3-8.1,4.7-12.2,7c-0.8,0.5-1.1,1-1.1,1.9c0.1,4.3,0,8.6,0,13c0,0.6,0,1.1,0,1.7
				c-0.4,0-0.7,0-1.1-0.1C35.8,186.7,35.8,181.5,35.8,176.2z M36.9,175.5c-0.3,0-0.6-0.1-0.7,0c-0.1,0.1-0.1,0.4-0.1,0.6
				c0.2,0,0.4,0.2,0.6,0.1C36.7,176.1,36.8,175.8,36.9,175.5z"/>
			<path class="st3" d="M-115.6-9.3c-0.2-0.4-0.4-0.6-0.6-1c0.4-0.2,0.8-0.5,1.2-0.7c3.8-2.2,7.6-4.4,11.4-6.6c0.9-0.5,1.1-1,1.1-2
				c-0.1-4.5,0-9,0-13.5c0-0.3,0-0.7,0-1c0.4,0,0.7,0,1.1,0c0,0.4,0,0.8,0,1.2c0,4.5,0,9,0,13.5c0,0.9,0.3,1.4,1.1,1.8
				c3.9,2.2,7.8,4.5,11.6,6.7c0.3,0.2,0.6,0.4,1,0.6c-0.2,0.3-0.3,0.6-0.5,1c-0.4-0.2-0.7-0.4-1.1-0.6c-3.8-2.2-7.7-4.4-11.5-6.7
				c-0.9-0.5-1.5-0.6-2.4,0c-3.8,2.3-7.7,4.5-11.5,6.7C-114.8-9.8-115.2-9.6-115.6-9.3z M-101.3-18.2c-0.3-0.1-0.5-0.2-0.7-0.1
				c-0.1,0.1-0.1,0.3-0.2,0.5c0.2,0.1,0.4,0.2,0.5,0.2C-101.5-17.7-101.5-17.9-101.3-18.2z"/>
			<path class="st3" d="M-82.6-29c-4.6-2.7-9.2-5.3-13.7-7.9c0.2-0.4,0.4-0.7,0.5-1c0.3,0.2,0.7,0.3,1,0.5c3.9,2.3,7.9,4.5,11.8,6.8
				c0.7,0.4,1.3,0.5,2,0c3.8-2.3,7.7-4.5,11.5-6.7c0.4-0.2,0.8-0.4,1.2-0.7c0.2,0.3,0.4,0.6,0.6,0.9c-0.2,0.1-0.3,0.3-0.5,0.3
				c-3.8,2.2-7.5,4.4-11.3,6.5c-0.3,0.1-0.5,0.3-0.8,0.4c-0.9,0.4-1.3,1-1.2,2.1c0.1,4.2,0,8.5,0,12.7c0,0.6,0,1.2,0,1.8
				c-0.4,0-0.7,0-1.1,0C-82.6-18.4-82.6-23.7-82.6-29z M-81.8-28.9c0.1-0.3,0.2-0.5,0.1-0.7c-0.1-0.1-0.4-0.2-0.5-0.2
				c-0.1,0.1-0.2,0.4-0.2,0.5C-82.3-29-82.1-29-81.8-28.9z"/>
			<path class="st3" d="M31.1-78.8c-0.2,0.3-0.3,0.6-0.5,1c-0.3-0.1-0.6-0.3-0.9-0.4c-4-2.3-8-4.6-12-6.9c-0.7-0.4-1.2-0.4-1.9,0
				c-3.9,2.3-7.8,4.5-11.7,6.8C3.8-78.2,3.4-78,3-77.8c-0.2-0.3-0.4-0.6-0.6-1c0.4-0.2,0.8-0.5,1.2-0.7c3.8-2.2,7.7-4.5,11.5-6.6
				c0.8-0.4,1.1-0.9,1.1-1.8c-0.1-4.6,0-9.2,0-13.7c0-0.3,0-0.6,0-1c0.4,0,0.7,0,1.1,0c0,5.3,0,10.5,0,15.9
				C21.9-84.1,26.5-81.5,31.1-78.8z M17.2-86.7c-0.3,0-0.6-0.1-0.7,0c-0.1,0.1-0.1,0.4-0.1,0.6c0.2,0,0.4,0.2,0.6,0.1
				C17.1-86.2,17.1-86.4,17.2-86.7z"/>
			<path class="st3" d="M37.1-81.5c-0.5,0-0.8-0.1-1.2-0.1c0-5.3,0-10.5,0-15.8c-4.6-2.6-9.1-5.3-13.7-7.9c0.2-0.4,0.3-0.6,0.5-1
				c0.3,0.2,0.6,0.3,1,0.5c3.9,2.3,7.8,4.5,11.7,6.8c0.9,0.5,1.5,0.5,2.3,0c3.8-2.2,7.6-4.4,11.4-6.6c0.4-0.2,0.8-0.4,1.2-0.7
				c0.2,0.4,0.3,0.6,0.5,0.9c-0.1,0.1-0.2,0.2-0.4,0.3c-3.4,2-6.8,3.9-10.2,5.9c-0.8,0.5-1.6,1-2.4,1.4c-0.6,0.3-0.8,0.7-0.7,1.3
				c0,4.4,0,8.8,0,13.2C37.1-82.8,37.1-82.2,37.1-81.5z M37-98.1c-0.3,0-0.6-0.1-0.7,0c-0.1,0.1-0.1,0.4-0.1,0.6
				c0.2,0,0.4,0.2,0.6,0.1C36.8-97.6,36.9-97.8,37-98.1z"/>
			<path class="st3" d="M175.3,21c-0.4,0-0.7,0-1.1-0.1c0-0.4,0-0.7,0-1.1c0-4.5,0-9.1,0-13.6c0-0.8-0.2-1.3-0.9-1.7
				c-3.9-2.2-7.8-4.5-11.7-6.7c-0.4-0.2-0.7-0.4-1.1-0.6c0.2-0.3,0.3-0.6,0.5-0.9c0.2,0.1,0.3,0.1,0.5,0.2c3.9,2.2,7.7,4.5,11.6,6.7
				c0.2,0.1,0.5,0.2,0.7,0.4c0.7,0.6,1.3,0.5,2.1,0c3.8-2.3,7.7-4.5,11.5-6.7c0.4-0.2,0.8-0.4,1.2-0.7c0.2,0.3,0.4,0.6,0.6,1
				c-0.4,0.2-0.7,0.4-1.1,0.6c-3.9,2.2-7.7,4.5-11.6,6.7c-0.8,0.5-1.1,1-1.1,1.9c0.1,4.2,0,8.5,0,12.7
				C175.3,19.7,175.3,20.3,175.3,21z M174.5,4.3c-0.1,0.3-0.2,0.5-0.1,0.7c0.1,0.1,0.4,0.2,0.5,0.2c0.1-0.1,0.2-0.4,0.2-0.5
				C175.1,4.4,174.8,4.4,174.5,4.3z"/>
			<path class="st3" d="M154.5-0.1c0.4,0,0.7,0,1.1,0c0,5.2,0,10.5,0,15.8c4.6,2.6,9.1,5.3,13.7,7.9c-0.2,0.3-0.3,0.6-0.5,1
				c-0.3-0.1-0.6-0.3-0.9-0.4c-4-2.3-8-4.6-12-6.9c-0.7-0.4-1.2-0.4-1.9,0c-3.9,2.3-7.8,4.5-11.7,6.8c-0.4,0.2-0.7,0.4-1.1,0.6
				c-0.2-0.3-0.4-0.6-0.6-1c0.4-0.2,0.8-0.4,1.2-0.7c3.8-2.2,7.7-4.5,11.5-6.6c0.8-0.4,1.1-0.9,1.1-1.8c-0.1-4.6,0-9.2,0-13.7
				C154.4,0.6,154.4,0.3,154.5-0.1z M155.5,15.8c-0.3,0-0.6-0.1-0.7,0c-0.1,0.1-0.1,0.4-0.1,0.6c0.2,0,0.4,0.2,0.6,0.1
				C155.3,16.4,155.4,16.1,155.5,15.8z"/>
			<path class="st3" d="M129.3,30.4c0.2,0.4,0.3,0.6,0.5,0.9c-0.1,0.1-0.3,0.2-0.4,0.3c-3.8,2.2-7.6,4.5-11.4,6.6
				c-1.5,0.8-2,1.7-1.9,3.4c0.1,4.1,0,8.1,0,12.2c0,0.5,0,1,0,1.5c-0.4,0-0.7,0-1.1,0c0-5.3,0-10.5,0-15.9
				c-4.6-2.6-9.2-5.3-13.7-7.9c0.2-0.4,0.3-0.6,0.5-1c0.3,0.2,0.6,0.3,1,0.5c3.9,2.2,7.8,4.4,11.6,6.7c0.9,0.5,1.5,0.6,2.4,0
				c3.8-2.3,7.6-4.4,11.4-6.6C128.4,30.8,128.8,30.6,129.3,30.4z M116,38.7c-0.3-0.1-0.5-0.2-0.7-0.1c-0.1,0.1-0.1,0.3-0.2,0.5
				c0.2,0.1,0.4,0.2,0.5,0.2C115.8,39.3,115.8,39,116,38.7z"/>
			<path class="st3" d="M96.3,50c4.6,2.7,9.1,5.3,13.7,7.9c-0.2,0.3-0.3,0.7-0.5,1c-0.5-0.3-1-0.6-1.6-0.9
				c-3.7-2.2-7.5-4.3-11.2-6.5c-0.7-0.4-1.3-0.5-2,0c-3.9,2.3-7.8,4.5-11.7,6.8c-0.3,0.2-0.7,0.4-1.1,0.6c-0.2-0.3-0.3-0.6-0.5-0.9
				c0.1-0.1,0.1-0.2,0.2-0.2c1.6-0.9,3.1-1.8,4.7-2.8c2.5-1.5,5-2.9,7.6-4.3c0.9-0.5,1.2-1,1.2-2.1c-0.1-4.5,0-8.9,0-13.4
				c0-0.4,0-0.7,0-1.1c0.4,0,0.7,0,1.1,0C96.3,39.4,96.3,44.7,96.3,50z M96.2,50.1c-0.3,0-0.6-0.1-0.7,0c-0.1,0.1-0.1,0.4-0.1,0.6
				c0.2,0,0.4,0.2,0.6,0.1C96.1,50.6,96.1,50.4,96.2,50.1z"/>
			<path class="st3" d="M70,64.6c0.2,0.3,0.3,0.6,0.5,0.9c-0.1,0.1-0.2,0.2-0.4,0.3c-2.5,1.5-5,2.9-7.5,4.4c-1.6,1-3.3,1.9-4.9,2.8
				c-0.6,0.3-0.9,0.8-0.9,1.5c0,4.7,0,9.5,0,14.2c0,0.2,0,0.4,0,0.7c-0.4,0-0.7,0-1.1,0c0-5.3,0-10.5,0-15.9
				c-4.6-2.6-9.1-5.3-13.7-7.9c0.2-0.3,0.3-0.6,0.5-1c0.3,0.1,0.6,0.3,0.9,0.4c4,2.3,8,4.6,12,6.9c0.7,0.4,1.2,0.4,1.9,0
				c3.9-2.3,7.7-4.5,11.6-6.7C69.2,65.1,69.5,64.8,70,64.6z M56.7,72.9c-0.3,0-0.6-0.1-0.7,0c-0.1,0.1-0.1,0.4-0.1,0.6
				c0.2,0,0.4,0.2,0.6,0.1C56.5,73.4,56.6,73.2,56.7,72.9z"/>
			<path class="st3" d="M22.7,93.2c-0.2-0.4-0.4-0.6-0.6-1c0.4-0.2,0.8-0.5,1.2-0.7c3.8-2.2,7.5-4.4,11.3-6.5c1-0.5,1.2-1.1,1.2-2.2
				c-0.1-4.5,0-8.9,0-13.4c0-0.3,0-0.7,0-1c0.4,0,0.7,0,1.1,0c0,5.3,0,10.5,0,15.9c4.6,2.6,9.1,5.3,13.7,7.9c-0.2,0.3-0.3,0.7-0.5,1
				c-0.5-0.3-1-0.5-1.5-0.8c-3.7-2.2-7.5-4.3-11.2-6.5c-0.8-0.5-1.4-0.5-2.2,0c-3.8,2.3-7.7,4.5-11.6,6.7
				C23.4,92.8,23.1,93,22.7,93.2z M36.2,84.1c-0.1,0.3-0.2,0.5-0.1,0.7c0.1,0.1,0.4,0.2,0.5,0.2c0.1-0.1,0.2-0.4,0.2-0.5
				C36.7,84.3,36.5,84.3,36.2,84.1z"/>
			<path class="st3" d="M-2.5,123.7c-0.4,0-0.7,0-1.1-0.1c0-0.4,0-0.7,0-1.1c0-4.5,0-9,0-13.5c0-0.9-0.2-1.4-1-1.8
				c-3.9-2.2-7.8-4.5-11.7-6.7c-0.3-0.2-0.6-0.4-1-0.6c0.2-0.3,0.3-0.6,0.5-0.9c0.1,0.1,0.3,0.1,0.5,0.2c3.9,2.2,7.7,4.5,11.6,6.7
				c0.2,0.1,0.4,0.2,0.6,0.3c0.8,0.6,1.4,0.6,2.3,0c3.8-2.3,7.7-4.5,11.5-6.7c0.4-0.2,0.7-0.4,1.1-0.6c0.2,0.3,0.4,0.6,0.6,1
				c-0.4,0.2-0.7,0.4-1.1,0.6c-3.9,2.2-7.7,4.5-11.6,6.7c-0.8,0.5-1.1,1-1.1,1.9c0.1,4.5,0,8.9,0,13.4
				C-2.5,122.9-2.5,123.3-2.5,123.7z M-2.6,107.1c-0.3,0-0.6-0.1-0.7,0c-0.1,0.1-0.1,0.4-0.1,0.6c0.2,0,0.4,0.2,0.6,0.1
				C-2.7,107.7-2.7,107.4-2.6,107.1z"/>
			<path class="st3" d="M-36.6,127.4c-0.2-0.3-0.3-0.6-0.5-0.9c0.1-0.1,0.1-0.2,0.2-0.2c0.8-0.5,1.6-1,2.4-1.4
				c3.2-1.9,6.5-3.7,9.7-5.6c1.7-1,1.4-0.5,1.4-2.4c0-4.4,0-8.8,0-13.2c0-0.4,0-0.7,0-1.1c0.4,0,0.7,0,1.1,0c0,5.3,0,10.5,0,15.9
				c4.6,2.6,9.1,5.3,13.7,7.9c-0.2,0.3-0.3,0.7-0.5,1c-0.5-0.3-1-0.6-1.6-0.9c-3.7-2.2-7.5-4.3-11.2-6.5c-0.7-0.4-1.3-0.5-2,0
				c-3.9,2.3-7.8,4.5-11.7,6.8C-35.9,127-36.2,127.2-36.6,127.4z M-22.3,118.6c-0.3-0.1-0.5-0.2-0.7-0.1c-0.1,0.1-0.1,0.3-0.2,0.5
				c0.2,0.1,0.4,0.2,0.5,0.2C-22.5,119.1-22.5,118.9-22.3,118.6z"/>
			<path class="st3" d="M-62.9,34.2c0.4,0,0.7,0,1.1,0c0,5.3,0,10.5,0,15.9c4.6,2.6,9.1,5.3,13.7,7.9c-0.2,0.3-0.3,0.7-0.5,1
				c-0.5-0.3-1-0.5-1.5-0.8c-3.8-2.2-7.6-4.3-11.3-6.6c-0.7-0.4-1.3-0.5-2,0c-3.9,2.3-7.8,4.5-11.7,6.8c-0.3,0.2-0.7,0.4-1.1,0.6
				c-0.2-0.3-0.3-0.6-0.5-0.9c0.1-0.1,0.1-0.2,0.2-0.2c1.5-0.9,3.1-1.8,4.6-2.7c2.5-1.5,5.1-3,7.7-4.4c0.9-0.5,1.3-1,1.2-2.1
				c-0.1-4.5,0-8.9,0-13.4C-62.9,35-62.9,34.6-62.9,34.2z M-61.8,50.2c-0.3-0.1-0.5-0.2-0.7-0.1c-0.1,0.1-0.1,0.3-0.2,0.5
				c0.2,0.1,0.4,0.2,0.5,0.2C-62,50.7-62,50.5-61.8,50.2z"/>
			<path class="st3" d="M-42,55.3c-0.4,0-0.7,0-1.1,0c0-5.3,0-10.5,0-15.9c-4.6-2.6-9.1-5.3-13.7-7.9c0.2-0.3,0.3-0.7,0.5-1
				c0.4,0.2,0.7,0.4,1,0.5c4,2.3,7.9,4.6,11.9,6.9c0.7,0.4,1.2,0.4,1.8,0c3.9-2.3,7.8-4.5,11.7-6.8c0.4-0.2,0.7-0.4,1.1-0.6
				c0.2,0.3,0.4,0.6,0.6,0.9c-0.2,0.1-0.3,0.3-0.5,0.3c-4.1,2.3-8.1,4.7-12.2,7c-0.8,0.5-1.1,1-1.1,1.9c0.1,4.3,0,8.6,0,13
				C-42,54.1-42,54.7-42,55.3z M-42.1,38.7c-0.3,0-0.6-0.1-0.7,0c-0.1,0.1-0.1,0.4-0.1,0.6c0.2,0,0.4,0.2,0.6,0.1
				C-42.2,39.3-42.2,39-42.1,38.7z"/>
			<path class="st3" d="M208.8,92.1c-0.2,0.4-0.3,0.7-0.5,1c-0.5-0.3-1-0.5-1.4-0.8c-3.7-2.1-7.4-4.3-11.1-6.5
				c-0.9-0.5-1.6-0.5-2.5,0c-3.8,2.3-7.6,4.4-11.4,6.6c-0.3,0.2-0.7,0.4-1.1,0.6c-0.2-0.4-0.4-0.6-0.6-1c0.4-0.2,0.8-0.5,1.2-0.7
				c3.9-2.2,7.7-4.5,11.6-6.7c0.7-0.4,1-0.9,0.9-1.7c0-4.6,0-9.2,0-13.7c0-0.3,0-0.7,0-1c0.4,0,0.7,0,1.1,0c0,5.3,0,10.5,0,15.9
				C199.7,86.8,204.2,89.5,208.8,92.1z M194.8,85c0-0.3,0.1-0.6,0-0.7c-0.1-0.1-0.4-0.2-0.5-0.1c-0.1,0.1-0.2,0.4-0.1,0.5
				C194.2,84.9,194.5,84.9,194.8,85z"/>
			<path class="st3" d="M76.5,136.8c0,5.3,0,10.5,0,15.9c4.5,2.6,9.1,5.3,13.7,7.9c-0.2,0.4-0.3,0.7-0.5,1c-2-1.1-3.9-2.3-5.8-3.4
				c-2.3-1.3-4.7-2.6-7-4c-0.8-0.5-1.3-0.4-2,0c-3.9,2.3-7.7,4.5-11.6,6.7c-0.4,0.2-0.7,0.4-1.1,0.6c-0.2-0.3-0.3-0.6-0.6-1
				c0.3-0.2,0.7-0.4,1-0.6c3.9-2.3,7.8-4.5,11.7-6.7c0.8-0.4,1-0.9,1-1.8c0-4.6,0-9.2,0-13.7c0-0.3,0-0.6,0-1
				C75.7,136.8,76.1,136.8,76.5,136.8z M76.2,153.5c0.1-0.3,0.2-0.5,0.1-0.7c-0.1-0.1-0.4-0.2-0.5-0.2c-0.1,0.1-0.2,0.4-0.2,0.5
				C75.6,153.3,75.9,153.3,76.2,153.5z"/>
			<path class="st3" d="M90.4-113c-0.2,0.4-0.3,0.6-0.5,1c-0.1,0-0.2-0.1-0.4-0.1c-4-2.3-8.1-4.7-12.1-7c-1.6-0.9-1.1-0.9-2.7,0
				c-3.8,2.2-7.6,4.4-11.3,6.5c-0.4,0.2-0.7,0.4-1.1,0.6c-0.2-0.3-0.3-0.6-0.6-1c0.4-0.2,0.8-0.4,1.1-0.7c3.8-2.2,7.7-4.5,11.5-6.6
				c0.8-0.5,1.1-1,1.1-1.9c0-4.5,0-9.1,0-13.6c0-0.3,0-0.6,0-1c0.4,0,0.7,0,1.1,0c0,5.3,0,10.5,0,15.9
				C81.2-118.3,85.7-115.7,90.4-113z M76.5-120.9c-0.3-0.1-0.5-0.2-0.7-0.1c-0.1,0.1-0.1,0.3-0.2,0.5c0.2,0.1,0.4,0.2,0.5,0.2
				C76.3-120.3,76.4-120.6,76.5-120.9z"/>
			<path class="st3" d="M109.6-140.6c0.2,0.3,0.4,0.6,0.6,0.9c-0.1,0.1-0.2,0.2-0.3,0.3c-2.1,1.2-4.3,2.5-6.4,3.7
				c-2.1,1.2-4.1,2.4-6.2,3.6c-0.6,0.4-0.9,0.7-0.9,1.5c0,4.7,0,9.5,0,14.2c0,0.2,0,0.4,0,0.7c-0.4,0-0.7,0-1.1,0
				c0-5.3,0-10.5,0-15.9c-4.6-2.6-9.1-5.3-13.7-7.9c0.2-0.3,0.3-0.6,0.5-1c0.3,0.1,0.6,0.3,0.9,0.4c4,2.3,8,4.6,12,6.9
				c0.7,0.4,1.2,0.4,1.9,0c3.9-2.3,7.7-4.5,11.6-6.7C108.8-140.2,109.1-140.4,109.6-140.6z M96.3-132.3c-0.3,0-0.6-0.1-0.7,0
				c-0.1,0.1-0.1,0.4-0.1,0.6c0.2,0,0.4,0.2,0.6,0.1C96.1-131.8,96.2-132.1,96.3-132.3z"/>
			<path class="st3" d="M-9-72.2c0.2,0.4,0.4,0.6,0.5,0.9c-0.2,0.1-0.3,0.2-0.4,0.3c-4.1,2.3-8.1,4.7-12.2,7c-0.8,0.5-1.1,1-1.1,1.9
				c0.1,4.3,0,8.6,0,13c0,0.6,0,1.1,0,1.7c-0.4,0-0.7,0-1.1-0.1c0-5.3,0-10.5,0-15.8c-4.6-2.6-9.1-5.3-13.7-7.9
				c0.2-0.3,0.3-0.7,0.5-1c0.6,0.3,1.1,0.6,1.7,1c3.7,2.2,7.5,4.3,11.2,6.5c0.7,0.4,1.2,0.4,1.8,0c3.9-2.3,7.7-4.5,11.6-6.7
				C-9.9-71.7-9.5-71.9-9-72.2z M-22.3-63.8c-0.3-0.1-0.5-0.2-0.7-0.1c-0.1,0.1-0.1,0.3-0.2,0.5c0.2,0.1,0.4,0.2,0.5,0.2
				C-22.5-63.3-22.4-63.6-22.3-63.8z"/>
			<path class="st3" d="M76.5-13.2c-0.4,0-0.7,0-1.1-0.1c0-5.3,0-10.5,0-15.8c-4.6-2.6-9.1-5.3-13.7-7.9c0.2-0.3,0.3-0.6,0.5-1
				c0.3,0.1,0.6,0.3,0.9,0.5c4,2.3,8,4.6,12,6.9c0.7,0.4,1.2,0.4,1.9,0c3.9-2.3,7.8-4.5,11.7-6.8c0.3-0.2,0.7-0.4,1.1-0.6
				c0.2,0.3,0.3,0.6,0.5,0.9c-0.1,0.1-0.2,0.2-0.4,0.3c-2.8,1.6-5.7,3.3-8.5,4.9c-1.4,0.8-2.7,1.6-4.1,2.3c-0.6,0.3-0.8,0.7-0.8,1.3
				c0,4.7,0,9.4,0,14.1C76.6-13.8,76.6-13.5,76.5-13.2z M76.3-29c0-0.3,0.1-0.6,0-0.7c-0.1-0.1-0.4-0.2-0.5-0.1
				c-0.1,0.1-0.2,0.4-0.1,0.5C75.7-29.1,76-29.1,76.3-29z"/>
			<path class="st3" d="M-56.3-43.6c-0.2-0.4-0.4-0.6-0.6-1c0.4-0.2,0.8-0.4,1.1-0.7c3.9-2.3,7.8-4.5,11.7-6.7
				c0.7-0.4,0.9-0.8,0.9-1.6c0-4.6,0-9.2,0-13.7c0-0.4,0-0.7,0-1.1c0.4,0,0.7,0,1.1,0c0,5.3,0,10.5,0,15.9c4.6,2.7,9.1,5.3,13.7,7.9
				c-0.2,0.3-0.3,0.7-0.5,1c-0.4-0.2-0.8-0.4-1.2-0.7c-3.9-2.3-7.8-4.5-11.7-6.8c-0.7-0.4-1.2-0.4-1.8,0c-3.9,2.3-7.8,4.5-11.7,6.8
				C-55.5-44-55.9-43.8-56.3-43.6z M-42.8-52.7c-0.1,0.3-0.2,0.5-0.1,0.7c0.1,0.1,0.4,0.2,0.5,0.2c0.1-0.1,0.2-0.4,0.2-0.5
				C-42.2-52.5-42.5-52.5-42.8-52.7z"/>
			<path class="st3" d="M-135.3-43.6c-0.2-0.3-0.3-0.5-0.5-0.9c0.4-0.2,0.7-0.4,1.1-0.6c3.8-2.2,7.7-4.5,11.5-6.6
				c0.9-0.5,1.1-1,1.1-2c-0.1-4.5,0-8.9,0-13.4c0-0.4,0-0.7,0-1.1c0.4,0,0.7,0,1.1,0c0,5.2,0,10.5,0,15.8c4.5,2.6,9.1,5.3,13.7,7.9
				c-0.2,0.4-0.3,0.6-0.5,1c-0.3-0.2-0.7-0.4-1.1-0.6c-3.9-2.3-7.9-4.5-11.8-6.8c-0.7-0.4-1.2-0.4-1.9,0c-3.9,2.3-7.8,4.5-11.7,6.8
				C-134.6-44-134.9-43.8-135.3-43.6z M-121-52.2c-0.3-0.1-0.5-0.2-0.6-0.2c-0.1,0-0.2,0.2-0.3,0.4c0.1,0.1,0.3,0.3,0.4,0.3
				C-121.4-51.8-121.3-52-121-52.2z"/>
			<path class="st3" d="M-3.5-136.7c0.4,0,0.7,0,1.1,0c0,5.2,0,10.5,0,15.8c4.5,2.6,9.1,5.3,13.7,7.9c-0.2,0.4-0.3,0.6-0.5,1
				c-0.3-0.2-0.7-0.4-1.1-0.6c-3.9-2.3-7.9-4.5-11.8-6.8c-0.7-0.4-1.2-0.4-1.9,0c-3.9,2.3-7.8,4.5-11.7,6.8
				c-0.4,0.2-0.7,0.4-1.1,0.6c-0.2-0.3-0.3-0.5-0.5-0.9c0.4-0.2,0.7-0.4,1.1-0.6c3.8-2.2,7.7-4.5,11.5-6.6c0.9-0.5,1.1-1.1,1.1-2
				c-0.1-4.5,0-8.9,0-13.4C-3.5-135.9-3.5-136.3-3.5-136.7z M-2.5-120.9c-0.3,0.1-0.5,0.1-0.7,0.2c-0.1,0.1,0,0.3,0,0.5
				c0.2,0,0.4,0,0.5,0C-2.6-120.4-2.6-120.6-2.5-120.9z"/>
			<path class="st3" d="M30.6-140.5c0.2,0.3,0.3,0.5,0.5,0.8c-0.2,0.1-0.3,0.2-0.5,0.3c-4.1,2.4-8.1,4.7-12.2,7
				c-0.8,0.5-1.1,1-1.1,1.9c0.1,4.5,0,8.9,0,13.4c0,0.4,0,0.8,0,1.2c-0.4,0-0.7,0-1.1,0c0-5.3,0-10.5,0-15.8
				c-4.6-2.7-9.1-5.3-13.7-7.9c0.2-0.4,0.4-0.6,0.5-1c0.3,0.2,0.6,0.3,1,0.5c3.9,2.3,7.9,4.5,11.8,6.8c0.7,0.4,1.3,0.5,2,0
				c3.8-2.3,7.7-4.5,11.5-6.7C29.7-140,30.1-140.2,30.6-140.5z M17.2-132.2c-0.3,0-0.5-0.1-0.6,0c-0.1,0.1-0.1,0.3-0.2,0.5
				c0.2,0,0.4,0.1,0.5,0S17.1-132,17.2-132.2z"/>
			<path class="st3" d="M-101.2-47.3c-0.4,0-0.7,0-1.1,0c0-5.3,0-10.6,0-15.8c-4.6-2.6-9.1-5.2-13.6-7.9c0.2-0.3,0.3-0.7,0.5-1
				c0.4,0.2,0.7,0.4,1,0.5c4,2.3,7.9,4.6,11.9,6.9c0.7,0.4,1.2,0.4,1.8,0c3.9-2.3,7.7-4.5,11.6-6.7c0.4-0.2,0.8-0.4,1.2-0.7
				c0.1,0.2,0.2,0.3,0.3,0.4c0.1,0.1,0.2,0.2,0.3,0.4c-0.4,0.2-0.7,0.4-1.1,0.6c-3.9,2.3-7.8,4.5-11.7,6.7c-0.7,0.4-1,0.8-1,1.7
				c0,4.5,0,9.1,0,13.6C-101.2-48.1-101.2-47.7-101.2-47.3z M-101.3-63.8c-0.3,0-0.5-0.1-0.6,0c-0.1,0.1-0.1,0.3-0.2,0.5
				c0.2,0,0.4,0.1,0.5,0C-101.5-63.3-101.4-63.5-101.3-63.8z"/>
			<path class="st3" d="M-62.8-102.5c0.4,0,0.7,0,1.1,0c0,5.2,0,10.4,0,15.8c4.5,2.6,9.1,5.3,13.7,7.9c-0.2,0.3-0.3,0.6-0.5,1
				c-0.1-0.1-0.3-0.1-0.5-0.2c-4-2.3-8-4.6-12-6.9c-0.2-0.1-0.5-0.2-0.7-0.4c-0.5-0.4-0.9-0.3-1.4,0c-2.2,1.3-4.4,2.5-6.6,3.8
				c-2.1,1.2-4.3,2.5-6.4,3.7c-0.2-0.3-0.3-0.5-0.5-0.9c0.4-0.2,0.8-0.4,1.2-0.7c3.9-2.2,7.7-4.5,11.6-6.7c0.7-0.4,1-0.8,1-1.7
				c0-4.6,0-9.2,0-13.7C-62.8-101.8-62.8-102.1-62.8-102.5z M-61.8-86.6c-0.3,0-0.5-0.1-0.6,0c-0.1,0.1-0.1,0.3-0.2,0.5
				c0.2,0,0.4,0.1,0.5,0C-61.9-86.1-61.9-86.3-61.8-86.6z"/>
			<path class="st3" d="M-43.1-81.5c0-5.3,0-10.6,0-15.8c-4.6-2.7-9.1-5.3-13.7-7.9c0.2-0.4,0.3-0.6,0.5-1c0.3,0.2,0.6,0.3,1,0.5
				c3.9,2.3,7.8,4.5,11.7,6.8c0.8,0.5,1.4,0.5,2.2,0c3.8-2.2,7.6-4.4,11.4-6.6c0.4-0.2,0.8-0.4,1.2-0.7c0.2,0.3,0.4,0.5,0.6,0.8
				c-0.2,0.1-0.3,0.3-0.5,0.3c-4.1,2.4-8.1,4.7-12.2,7c-0.8,0.5-1.1,1-1.1,1.9c0.1,4.5,0,8.9,0,13.4c0,0.4,0,0.8,0,1.2
				C-42.3-81.5-42.6-81.5-43.1-81.5z M-42.1-98.1c-0.3,0-0.5,0-0.6,0.1c-0.1,0.1-0.1,0.3-0.2,0.5c0.2,0,0.4,0.1,0.6,0
				C-42.2-97.5-42.2-97.8-42.1-98.1z"/>
			<path class="st3" d="M55.8-171c0.4,0,0.7,0,1.1,0c0,5.2,0,10.4,0,15.8c4.5,2.6,9.1,5.2,13.7,7.9c-0.2,0.4-0.4,0.7-0.6,1
				c-2.3-1.3-4.5-2.6-6.7-3.9c-2.1-1.2-4.2-2.4-6.3-3.6c-0.6-0.4-1-0.3-1.6,0c-3.9,2.3-7.9,4.6-11.8,6.8c-0.4,0.2-0.7,0.4-1.1,0.6
				c-0.2-0.3-0.3-0.5-0.5-0.9c0.4-0.2,0.7-0.4,1.1-0.6c3.9-2.2,7.7-4.5,11.6-6.7c0.8-0.4,1.1-0.9,1.1-1.8c-0.1-4.5,0-9.1,0-13.6
				C55.8-170.2,55.8-170.5,55.8-171z M56.8-155c-0.3,0-0.5-0.1-0.6,0c-0.1,0.1-0.1,0.3-0.2,0.5c0.2,0,0.4,0.1,0.5,0
				C56.6-154.6,56.7-154.8,56.8-155z"/>
			<path class="st3" d="M76.6-150c-0.4,0-0.7,0-1.1,0c0-5.3,0-10.6,0-15.8c-4.6-2.7-9.1-5.3-13.7-7.9c0.2-0.4,0.4-0.7,0.5-1
				c0.3,0.2,0.7,0.3,1,0.5c3.9,2.3,7.9,4.5,11.8,6.8c0.7,0.4,1.3,0.5,2,0c3.8-2.3,7.7-4.5,11.5-6.7c0.4-0.2,0.8-0.4,1.2-0.7
				c0.2,0.3,0.4,0.5,0.5,0.8c-0.2,0.1-0.3,0.3-0.5,0.3c-4.1,2.4-8.1,4.7-12.2,7c-0.8,0.5-1.1,1-1.1,1.9c0.1,4.5,0,8.9,0,13.4
				C76.6-150.8,76.6-150.4,76.6-150z M76.5-166.5c-0.3,0-0.5,0-0.6,0.1c-0.1,0.1-0.1,0.3-0.2,0.5c0.2,0,0.4,0.1,0.6,0
				C76.4-166,76.4-166.3,76.5-166.5z"/>
		</g>
	</g>
</g>
<g id="_2">
	<path class="st4" d="M0.5,40.9 M47.2,67.9l25.7,14.8 M62.3,5.2L36.7,20v29.6 M36.7,49.6V20L10.9,5.1 M0.5,82.7l25.6-14.8 M36.7,74
		v29.6l25.9,15 M72.9,41L47.2,55.8 M26.1,55.8L0.5,41 M11.4,118.2l25.2-14.6V74 M72.9,11.3v29.6 M72.9,82.8 M72.9,41 M72.9,82.7
		v29.8 M0.5,40.8V10.9 M0.5,40.8 M0.5,82.6 M0.5,112.1V82.9"/>
	<path class="st5" d="M0.5,40.9 M47.2,67.9l25.7,14.8 M62.3,5.2L36.7,20v29.6 M36.7,49.6V20L10.9,5.1 M0.5,82.7l25.6-14.8 M36.7,74
		v29.6l25.9,15 M72.9,41L47.2,55.8 M26.1,55.8L0.5,41 M11.4,118.2l25.2-14.6V74 M72.9,40.9 M72.9,82.8 M72.9,41 M0.5,40.8 M0.5,40.8
		 M0.5,82.6"/>
	<polygon class="st6" points="1.8,40.7 0,39.7 0,41.8 	"/>
	<polygon class="st6" points="71.5,40.7 73.3,41.8 73.3,39.7 	"/>
	<polygon class="st6" points="1.8,83 0,81.9 0,84 	"/>
	<polygon class="st6" points="71.5,83 73.3,84 73.3,81.9 	"/>
</g>
</svg>
