<svg id="logo-layer" xmlns="http://www.w3.org/2000/svg" viewBox="0 0 222 28">
  <title>logo-overlay</title>
  <g>
    <path d="M1.42,23.54a.54.54,0,0,1-.36-.11A1.62,1.62,0,0,1-.07,21.53l3.73-16A1.64,1.64,0,0,1,5.2,4.43H9.51A1.62,1.62,0,0,1,11,5.65L14.55,20h2.52V6a1.61,1.61,0,0,1,1.6-1.62h8A1.61,1.61,0,0,1,28.3,6s0,0,0,0V13.3L32,20h1.53V6a1.61,1.61,0,0,1,1.6-1.62h8A1.61,1.61,0,0,1,44.76,6s0,0,0,0V13.3L48.38,20h11V10.77a1.62,1.62,0,1,1,3.24,0V21.65a1.61,1.61,0,0,1-1.6,1.62H47.53a2,2,0,0,1-1.39-.81l-4.35-8a2.78,2.78,0,0,1-.18-.72V7.53H36.84V21.65a1.61,1.61,0,0,1-1.6,1.62H31.17a2,2,0,0,1-1.44-.81l-4.31-8a2.78,2.78,0,0,1-.18-.72V7.53H20.48V21.65a1.61,1.61,0,0,1-1.6,1.62H13.51A1.62,1.62,0,0,1,12,22L8.43,7.67H6.64L2.95,22.3A1.62,1.62,0,0,1,1.42,23.54Z" style="fill: #02a19b"/>
    <path d="M85.51,23.18H82a1.55,1.55,0,0,1-1.53-1.26L77.63,7.53h-.45L74.41,21.92a1.62,1.62,0,0,1-1.53,1.26h-3.5a1.55,1.55,0,0,1-1.53-1.26L65.07,7.53H52.75v9.26a1.62,1.62,0,1,1-3.24,0V6a1.61,1.61,0,0,1,1.6-1.62H66.38a1.55,1.55,0,0,1,1.53,1.26L70.65,20h.81l2.8-14.4a1.62,1.62,0,0,1,1.53-1.26h3.06a1.55,1.55,0,0,1,1.53,1.26L83.14,20H84L86.83,5.42A1.61,1.61,0,0,1,90,6.05L86.91,21.92A1.45,1.45,0,0,1,85.51,23.18Z" style="fill: #02a19b"/>
  </g>
  <text transform="translate(115.99 14.76)" style="font-size: 13.27128791809082px;fill: #02a19b;font-family: Roboto-Regular, Roboto">Internet of Things</text>
  <line x1="103" y1="27.63" x2="103.5" y2="0.13" style="fill: none;stroke: #02a19b;stroke-miterlimit: 10"/>
  <text transform="translate(115.99 23.02)" style="font-size: 7.039846897125244px;fill: #02a19b;font-family: Roboto-ThinItalic, Roboto;font-style: italic"><tspan style="letter-spacing: -0.006311727286021614em">P</tspan><tspan x="4.18" y="0" style="letter-spacing: -0.00006935964050573203em">owe</tspan><tspan x="16.91" y="0" style="letter-spacing: -0.009294191827768092em">r</tspan><tspan x="19.18" y="0">ed </tspan><tspan x="28.27" y="0" style="letter-spacing: -0.005410051959447098em">b</tspan><tspan x="32.08" y="0">y iMatrix</tspan></text>
</svg>
