<svg xmlns="http://www.w3.org/2000/svg" viewBox="0 0 80 60"><defs><style>.cls-1{fill:#02a19b;}</style></defs><title>Монтажная область 1 копия</title><g id="arrow"><path class="cls-1" d="M1.25,32.1A.48.48,0,0,1,.93,32a1.44,1.44,0,0,1-1-1.68L3.25,16.12a1.46,1.46,0,0,1,1.36-1H8.44A1.44,1.44,0,0,1,9.8,16.2L12.92,29h2.24V16.52a1.43,1.43,0,0,1,1.44-1.44h7.11a1.43,1.43,0,0,1,1.44,1.44V23l3.28,6h1.36V16.52a1.43,1.43,0,0,1,1.44-1.44h7.11a1.43,1.43,0,0,1,1.44,1.44V23L43,29H52.8V20.75a1.44,1.44,0,0,1,2.88,0v9.67a1.43,1.43,0,0,1-1.44,1.44h-12A1.76,1.76,0,0,1,41,31.14L37.13,24a2.47,2.47,0,0,1-.16-.64V17.87H32.74V30.42a1.43,1.43,0,0,1-1.44,1.44H27.7a1.76,1.76,0,0,1-1.28-.72L22.59,24a2.47,2.47,0,0,1-.16-.64V17.87H18.19V30.42a1.43,1.43,0,0,1-1.44,1.44H12a1.44,1.44,0,0,1-1.36-1.12L7.48,18H5.89L2.61,31A1.44,1.44,0,0,1,1.25,32.1Z"/><path class="cls-1" d="M76,31.78H72.86a1.38,1.38,0,0,1-1.36-1.12L69,17.87h-.4L66.14,30.66a1.44,1.44,0,0,1-1.36,1.12H61.67a1.38,1.38,0,0,1-1.36-1.12L57.83,17.87H46.88v8.23a1.44,1.44,0,1,1-2.88,0V16.52a1.43,1.43,0,0,1,1.44-1.44H59a1.38,1.38,0,0,1,1.36,1.12L62.79,29h.72L66,16.2a1.44,1.44,0,0,1,1.36-1.12h2.72a1.38,1.38,0,0,1,1.36,1.12L73.9,29h.72l2.56-13a1.43,1.43,0,0,1,2.8.56L77.25,30.66A1.29,1.29,0,0,1,76,31.78Z"/><path class="cls-1" d="M30.19,43h-3.8l-.77,2.27H24l3.57-9.71h1.53L32.6,45.3H31Zm-3.34-1.35h2.88l-1.41-4.15h0Z"/><path class="cls-1" d="M40.81,42.07v0a3.06,3.06,0,0,1-1,2.4,3.74,3.74,0,0,1-2.67.92,3.6,3.6,0,0,1-2.77-1.14,4.13,4.13,0,0,1-1.06-2.93V39.52a4.18,4.18,0,0,1,1.05-2.93,3.53,3.53,0,0,1,2.73-1.15,3.87,3.87,0,0,1,2.71.9,3.05,3.05,0,0,1,1,2.43v0H39.25a2.11,2.11,0,0,0-.53-1.53,2.08,2.08,0,0,0-1.56-.55,1.86,1.86,0,0,0-1.58.79,3.22,3.22,0,0,0-.58,2v1.86a3.19,3.19,0,0,0,.6,2,1.92,1.92,0,0,0,1.61.79,2,2,0,0,0,1.53-.54,2.1,2.1,0,0,0,.52-1.52Z"/><path class="cls-1" d="M48.85,36.88H45.91V45.3H44.29V36.88H41.35v-1.3h7.49Z"/><path class="cls-1" d="M55.34,39.18h1.11l1.92,2.6v.13l-1.92,2.6H55.34L57,41.84Zm-2.23,0h1.11l1.92,2.6v.13l-1.92,2.6H53.11l1.65-2.66Z"/><path class="cls-1" d="M66.82,39.17l2-3.59h1.92l-3,4.82,3.1,4.9H69l-2.11-3.65L64.74,45.3H62.82l3.06-4.9-3-4.82H64.8Z"/><path class="cls-1" d="M75.4,42.75l.17.67h0l.17-.66,2.32-7.18h1.73L76.36,45.3H74.82l-3.46-9.71h1.73Z"/></g></svg>