<?xml version="1.0" encoding="utf-8"?>
<!-- Generator: Adobe Illustrator 16.0.3, SVG Export Plug-In . SVG Version: 6.00 Build 0)  -->
<!DOCTYPE svg PUBLIC "-//W3C//DTD SVG 1.1//EN" "http://www.w3.org/Graphics/SVG/1.1/DTD/svg11.dtd">
<svg version="1.1" id="Слой_1" xmlns="http://www.w3.org/2000/svg" xmlns:xlink="http://www.w3.org/1999/xlink" x="0px" y="0px"
	 width="403.809px" height="465.862px" viewBox="0 0 403.809 465.862" enable-background="new 0 0 403.809 465.862"
	 xml:space="preserve">
<g id="Слой_2" display="none">
	<rect display="inline" fill="#F7F7F7" width="403.809" height="465.862"/>
</g>
<g>
	<defs>
		<rect id="SVGID_1_" width="403.809" height="465.862"/>
	</defs>
	<clipPath id="SVGID_2_">
		<use xlink:href="#SVGID_1_"  overflow="visible"/>
	</clipPath>
	<g clip-path="url(#SVGID_2_)">
		
			<line fill="none" stroke="#FFFFFF" stroke-width="5" stroke-linecap="round" stroke-linejoin="round" stroke-miterlimit="10" stroke-dasharray="1,10" x1="160.499" y1="393.205" x2="361.594" y2="508.381"/>
		
			<line fill="none" stroke="#FFFFFF" stroke-width="5" stroke-linecap="round" stroke-linejoin="round" stroke-miterlimit="10" stroke-dasharray="1,10" x1="160.499" y1="393.205" x2="-42.52" y2="508.381"/>
		
			<line fill="none" stroke="#FFFFFF" stroke-width="5" stroke-linecap="round" stroke-linejoin="round" stroke-miterlimit="10" stroke-dasharray="1,10" x1="160.499" y1="393.205" x2="-42.52" y2="278.381"/>
		
			<line fill="none" stroke="#FFFFFF" stroke-width="5" stroke-linecap="round" stroke-linejoin="round" stroke-miterlimit="10" stroke-dasharray="1,10" x1="160.499" y1="393.205" x2="364.258" y2="274.123"/>
		<g>
			<g>
				
					<line fill="none" stroke="#FFFFFF" stroke-width="5" stroke-linecap="round" stroke-linejoin="round" x1="361.594" y1="-188.91" x2="361.594" y2="-188.41"/>
				
					<line fill="none" stroke="#FFFFFF" stroke-width="5" stroke-linecap="round" stroke-linejoin="round" stroke-dasharray="1.0093,10.093" x1="361.594" y1="-178.317" x2="361.594" y2="38.682"/>
				<polyline fill="none" stroke="#FFFFFF" stroke-width="5" stroke-linecap="round" stroke-linejoin="round" points="
					361.594,43.729 361.594,44.229 361.161,44.479 				"/>
				
					<line fill="none" stroke="#FFFFFF" stroke-width="5" stroke-linecap="round" stroke-linejoin="round" stroke-dasharray="1.0093,10.093" x1="352.42" y1="49.525" x2="164.493" y2="158.023"/>
				<polyline fill="none" stroke="#FFFFFF" stroke-width="5" stroke-linecap="round" stroke-linejoin="round" points="
					160.123,160.547 159.689,160.797 159.256,160.547 				"/>
				
					<line fill="none" stroke="#FFFFFF" stroke-width="5" stroke-linecap="round" stroke-linejoin="round" stroke-dasharray="1.0093,10.093" x1="150.516" y1="155.5" x2="-37.412" y2="47.002"/>
				<polyline fill="none" stroke="#FFFFFF" stroke-width="5" stroke-linecap="round" stroke-linejoin="round" points="
					-41.782,44.479 -42.215,44.229 -42.215,43.729 				"/>
				
					<line fill="none" stroke="#FFFFFF" stroke-width="5" stroke-linecap="round" stroke-linejoin="round" stroke-dasharray="1.0093,10.093" x1="-42.215" y1="33.635" x2="-42.215" y2="-183.365"/>
				
					<line fill="none" stroke="#FFFFFF" stroke-width="5" stroke-linecap="round" stroke-linejoin="round" x1="-42.215" y1="-188.411" x2="-42.215" y2="-188.911"/>
			</g>
		</g>
		
			<line fill="none" stroke="#FFFFFF" stroke-width="5" stroke-linecap="round" stroke-linejoin="round" stroke-miterlimit="10" stroke-dasharray="1,10" x1="361.594" y1="42.52" x2="361.594" y2="276.952"/>
		
			<line fill="none" stroke="#FFFFFF" stroke-width="5" stroke-linecap="round" stroke-linejoin="round" stroke-miterlimit="10" stroke-dasharray="1,10" x1="159.385" y1="160.381" x2="159.385" y2="390.381"/>
		
			<line fill="none" stroke="#FFFFFF" stroke-width="5" stroke-linecap="round" stroke-linejoin="round" stroke-miterlimit="10" stroke-dasharray="1,10" x1="159.385" y1="160.381" x2="159.385" y2="-76.199"/>
		
			<line fill="none" stroke="#FFFFFF" stroke-width="5" stroke-linecap="round" stroke-linejoin="round" stroke-miterlimit="10" stroke-dasharray="1,10" x1="159.385" y1="-76.199" x2="361.594" y2="42.52"/>
		<g>
			<g>
				
					<line fill="none" stroke="#FFFFFF" stroke-width="5" stroke-linecap="round" stroke-linejoin="round" x1="-42.52" y1="510.09" x2="-42.52" y2="509.59"/>
				
					<line fill="none" stroke="#FFFFFF" stroke-width="5" stroke-linecap="round" stroke-linejoin="round" stroke-dasharray="1.0093,10.093" x1="-42.52" y1="499.498" x2="-42.52" y2="282.497"/>
				<polyline fill="none" stroke="#FFFFFF" stroke-width="5" stroke-linecap="round" stroke-linejoin="round" points="
					-42.52,277.451 -42.52,276.951 -42.086,276.701 				"/>
				
					<line fill="none" stroke="#FFFFFF" stroke-width="5" stroke-linecap="round" stroke-linejoin="round" stroke-dasharray="1.0093,10.093" x1="-33.346" y1="271.654" x2="154.582" y2="163.155"/>
				<polyline fill="none" stroke="#FFFFFF" stroke-width="5" stroke-linecap="round" stroke-linejoin="round" points="
					158.952,160.631 159.385,160.381 159.818,160.631 				"/>
				
					<line fill="none" stroke="#FFFFFF" stroke-width="5" stroke-linecap="round" stroke-linejoin="round" stroke-dasharray="1.0093,10.093" x1="168.559" y1="165.678" x2="356.485" y2="274.178"/>
				<polyline fill="none" stroke="#FFFFFF" stroke-width="5" stroke-linecap="round" stroke-linejoin="round" points="
					360.856,276.702 361.289,276.952 361.289,277.452 				"/>
				
					<line fill="none" stroke="#FFFFFF" stroke-width="5" stroke-linecap="round" stroke-linejoin="round" stroke-dasharray="1.0093,10.093" x1="361.289" y1="287.544" x2="361.289" y2="504.543"/>
				
					<line fill="none" stroke="#FFFFFF" stroke-width="5" stroke-linecap="round" stroke-linejoin="round" x1="361.289" y1="509.59" x2="361.289" y2="510.09"/>
			</g>
		</g>
		
			<line fill="none" stroke="#FFFFFF" stroke-width="5" stroke-linecap="round" stroke-linejoin="round" stroke-miterlimit="10" stroke-dasharray="1,10" x1="159.385" y1="-76.199" x2="-43.144" y2="42.52"/>
	</g>
	<g clip-path="url(#SVGID_2_)">
		
			<path fill="none" stroke="#FFFFFF" stroke-width="5" stroke-linecap="round" stroke-linejoin="round" stroke-miterlimit="10" stroke-dasharray="1,10" d="
			M564.174,393.125"/>
		
			<line fill="none" stroke="#FFFFFF" stroke-width="5" stroke-linecap="round" stroke-linejoin="round" stroke-miterlimit="10" stroke-dasharray="1,10" x1="564.174" y1="393.125" x2="361.165" y2="508.301"/>
		
			<line fill="none" stroke="#FFFFFF" stroke-width="5" stroke-linecap="round" stroke-linejoin="round" stroke-miterlimit="10" stroke-dasharray="1,10" x1="564.174" y1="393.125" x2="361.165" y2="278.301"/>
		
			<path fill="none" stroke="#FFFFFF" stroke-width="5" stroke-linecap="round" stroke-linejoin="round" stroke-miterlimit="10" stroke-dasharray="1,10" d="
			M564.174,393.125"/>
		<g>
			<g>
				
					<line fill="none" stroke="#FFFFFF" stroke-width="5" stroke-linecap="round" stroke-linejoin="round" x1="563.364" y1="160.717" x2="562.932" y2="160.467"/>
				
					<line fill="none" stroke="#FFFFFF" stroke-width="5" stroke-linecap="round" stroke-linejoin="round" stroke-dasharray="1.0093,10.0926" x1="554.19" y1="155.42" x2="366.273" y2="46.922"/>
				
					<line fill="none" stroke="#FFFFFF" stroke-width="5" stroke-linecap="round" stroke-linejoin="round" x1="361.902" y1="44.398" x2="361.47" y2="44.148"/>
			</g>
		</g>
		<g>
			<path fill="none" d="M361.47-188.991"/>
		</g>
		
			<line fill="none" stroke="#FFFFFF" stroke-width="5" stroke-linecap="round" stroke-linejoin="round" stroke-miterlimit="10" stroke-dasharray="1,10" x1="563.06" y1="160.301" x2="563.06" y2="390.301"/>
		
			<line fill="none" stroke="#FFFFFF" stroke-width="5" stroke-linecap="round" stroke-linejoin="round" stroke-miterlimit="10" stroke-dasharray="1,10" x1="563.06" y1="160.301" x2="563.06" y2="-76.279"/>
		
			<path fill="none" stroke="#FFFFFF" stroke-width="5" stroke-linecap="round" stroke-linejoin="round" stroke-miterlimit="10" stroke-dasharray="1,10" d="
			M563.06-76.279"/>
		<g>
			<g>
				
					<line fill="none" stroke="#FFFFFF" stroke-width="5" stroke-linecap="round" stroke-linejoin="round" x1="361.165" y1="276.871" x2="361.598" y2="276.621"/>
				
					<line fill="none" stroke="#FFFFFF" stroke-width="5" stroke-linecap="round" stroke-linejoin="round" stroke-dasharray="1.0093,10.0926" x1="370.339" y1="271.574" x2="558.256" y2="163.075"/>
				
					<line fill="none" stroke="#FFFFFF" stroke-width="5" stroke-linecap="round" stroke-linejoin="round" x1="562.627" y1="160.551" x2="563.06" y2="160.301"/>
			</g>
		</g>
		
			<line fill="none" stroke="#FFFFFF" stroke-width="5" stroke-linecap="round" stroke-linejoin="round" stroke-miterlimit="10" stroke-dasharray="1,10" x1="563.06" y1="-76.279" x2="360.541" y2="42.439"/>
	</g>
	<g clip-path="url(#SVGID_2_)">
		<circle fill="#FFFFFF" cx="159.689" cy="-305.064" r="42.519"/>
		<circle fill="#FFFFFF" cx="-42.215" cy="-187.481" r="42.52"/>
		<circle fill="#FFFFFF" cx="159.494" cy="-75.481" r="42.52"/>
		<circle fill="#FFFFFF" cx="361.594" cy="-188.718" r="42.52"/>
		<circle fill="#FFFFFF" cx="361.594" cy="42.52" r="42.52"/>
		<circle fill="#FFFFFF" cx="-42.215" cy="42.52" r="42.52"/>
		<circle fill="#FFFFFF" cx="159.384" cy="160.797" r="42.519"/>
		<circle fill="#FFFFFF" cx="-42.52" cy="278.381" r="42.52"/>
		<circle fill="#FFFFFF" cx="159.189" cy="390.381" r="42.52"/>
		<circle fill="#FFFFFF" cx="361.289" cy="277.144" r="42.52"/>
		<circle fill="#FFFFFF" cx="361.289" cy="508.381" r="42.52"/>
		<circle fill="#FFFFFF" cx="159.189" cy="626.659" r="42.52"/>
		<circle fill="#FFFFFF" cx="-42.52" cy="508.381" r="42.52"/>
	</g>
	<g opacity="0.1" clip-path="url(#SVGID_2_)">
		<g>
			<path fill="none" stroke="#00A19B" stroke-width="2.4362" stroke-miterlimit="10" d="M182.462,160.798
				c0,12.782-10.362,23.143-23.144,23.143c-12.785,0-23.144-10.361-23.144-23.143s10.358-23.143,23.144-23.143
				C172.1,137.655,182.462,148.016,182.462,160.798z"/>
			<path fill="#00A19B" d="M141.181,182.587c0,2.018-1.639,3.655-3.656,3.655c-2.015,0-3.652-1.638-3.652-3.655
				c0-2.017,1.638-3.653,3.652-3.653C139.542,178.934,141.181,180.57,141.181,182.587z"/>
			<path fill="#00A19B" d="M184.896,138.872c0,1.944-1.577,3.519-3.518,3.519c-1.945,0-3.521-1.575-3.521-3.519
				s1.575-3.518,3.521-3.518C183.319,135.354,184.896,136.928,184.896,138.872z"/>
			
				<ellipse transform="matrix(0.7071 0.7071 -0.7071 0.7071 160.145 -65.3094)" fill="none" stroke="#7FCBC6" stroke-width="1.0656" stroke-miterlimit="10" cx="158.91" cy="160.662" rx="10.557" ry="18.948"/>
			
				<ellipse transform="matrix(0.7071 -0.7071 0.7071 0.7071 -67.061 159.4319)" fill="none" stroke="#7FCBC6" stroke-width="1.0656" stroke-miterlimit="10" cx="158.912" cy="160.662" rx="5.144" ry="18.949"/>
			
				<ellipse transform="matrix(0.7071 -0.7072 0.7072 0.7071 -67.0614 159.4408)" fill="#7FCBC6" stroke="#7FCBC6" stroke-width="1.0656" stroke-miterlimit="10" cx="158.911" cy="160.662" rx="2.304" ry="8.489"/>
			
				<line fill="none" stroke="#00A19B" stroke-width="1.6241" stroke-miterlimit="10" x1="138.068" y1="182.587" x2="143.222" y2="177.433"/>
			
				<line fill="none" stroke="#00A19B" stroke-width="1.6241" stroke-miterlimit="10" x1="181.379" y1="138.872" x2="175.729" y2="144.523"/>
		</g>
		<g>
			<path fill="#00A19B" d="M189.349,397.046c0-2.797-2.268-5.064-5.064-5.064c-0.812,0-1.576,0.196-2.257,0.536
				c1.031-2.004,1.624-4.27,1.624-6.679c0-8.076-6.548-14.624-14.625-14.624c-7.332,0-13.387,5.401-14.444,12.438
				c-2.92,0.186-5.458,1.759-6.962,4.075c-1.514-2.566-4.3-4.294-7.497-4.294c-4.808,0-8.706,3.897-8.706,8.706
				c0,1.25,0.269,2.438,0.745,3.514h-0.221c-0.464-0.235-0.981-0.38-1.536-0.38c-1.889,0-3.419,1.531-3.419,3.419
				c0,1.888,1.53,3.418,3.419,3.418h54.892v-0.101C187.609,401.54,189.349,399.496,189.349,397.046z"/>
			<g>
				<defs>
					<path id="SVGID_3_" d="M189.309,397.033c0-2.793-2.266-5.058-5.058-5.058c-0.813,0-1.575,0.195-2.255,0.535
						c1.03-2.001,1.622-4.264,1.622-6.669c0-8.066-6.54-14.606-14.605-14.606c-7.322,0-13.37,5.395-14.426,12.422
						c-2.917,0.187-5.451,1.757-6.953,4.071c-1.512-2.564-4.295-4.29-7.487-4.29c-4.802,0-8.694,3.893-8.694,8.695
						c0,1.249,0.269,2.436,0.744,3.509h-0.221c-0.464-0.235-0.98-0.38-1.534-0.38c-1.886,0-3.415,1.529-3.415,3.415
						c0,1.886,1.528,3.415,3.415,3.415h54.821v-0.101C187.57,401.52,189.309,399.48,189.309,397.033z"/>
				</defs>
				<clipPath id="SVGID_4_">
					<use xlink:href="#SVGID_3_"  overflow="visible"/>
				</clipPath>
				<path clip-path="url(#SVGID_4_)" fill="#7FCBC6" d="M167.81,397.728c0-2.793-2.265-5.058-5.058-5.058
					c-0.81,0-1.574,0.196-2.253,0.535c1.029-2,1.621-4.264,1.621-6.669c0-8.066-6.539-14.605-14.606-14.605
					c-7.323,0-13.369,5.395-14.425,12.422c-2.916,0.187-5.451,1.757-6.952,4.07c-1.513-2.564-4.295-4.29-7.487-4.29
					c-4.802,0-8.695,3.893-8.695,8.694c0,1.25,0.269,2.435,0.744,3.509h-0.221c-0.463-0.234-0.979-0.379-1.534-0.379
					c-1.886,0-3.415,1.528-3.415,3.414s1.529,3.415,3.415,3.415h54.82v-0.101C166.072,402.215,167.81,400.175,167.81,397.728z"/>
			</g>
		</g>
		<g>
			<path fill="#00A19B" d="M375.604,267.9h-9.299v8.917c2.383,1.563,3.96,4.254,3.96,7.316c0,4.832-3.917,8.749-8.748,8.749
				c-4.832,0-8.749-3.917-8.749-8.749c0-3.062,1.576-5.752,3.959-7.315V267.9h-9.756c-1.129,0-2.045,0.916-2.045,2.045v28.633
				c0,1.129,0.916,2.045,2.045,2.045h28.633c1.13,0,2.046-0.916,2.046-2.045v-28.633C377.65,268.815,376.734,267.9,375.604,267.9z"
				/>
			<path fill="#7FCBC6" d="M362.642,279.811v-19.125c0-0.748-0.605-1.353-1.353-1.353s-1.353,0.605-1.353,1.353v19.125
				c-1.91,0.58-3.3,2.353-3.3,4.451c0,2.569,2.082,4.652,4.652,4.652c2.568,0,4.651-2.083,4.651-4.652
				C365.94,282.163,364.551,280.391,362.642,279.811z"/>
			<path fill="#00A19B" d="M354.847,257.491l1.841,1.841c2.576-2.577,6.625-2.577,9.201,0l1.842-1.841
				C364.142,253.902,358.436,253.902,354.847,257.491z"/>
			<path fill="#00A19B" d="M351.165,253.81l1.841,1.841c4.601-4.601,11.964-4.601,16.564,0l1.841-1.84
				C365.798,248.196,356.779,248.196,351.165,253.81z"/>
		</g>
		<rect x="342.081" y="489.173" fill="#00A19B" width="38.416" height="38.416"/>
		<g>
			<polygon fill="#FFFFFF" points="353.75,514.256 351.531,514.256 351.531,493.694 350.031,493.694 350.031,514.256 
				347.813,514.256 347.813,520.194 350.031,520.194 350.031,523.069 351.531,523.069 351.531,520.194 353.75,520.194 			"/>
			<polygon fill="#FFFFFF" points="364.258,505.251 362.039,505.251 362.039,493.694 360.539,493.694 360.539,505.251 
				358.32,505.251 358.32,511.189 360.539,511.189 360.539,523.069 362.039,523.069 362.039,511.189 364.258,511.189 			"/>
			<polygon fill="#FFFFFF" points="374.766,496.247 372.547,496.247 372.547,493.694 371.047,493.694 371.047,496.247 
				368.828,496.247 368.828,502.184 371.047,502.184 371.047,523.069 372.547,523.069 372.547,502.184 374.766,502.184 			"/>
		</g>
		<g>
			<path fill="none" stroke="#00A19B" stroke-width="2.4362" stroke-miterlimit="10" d="M182.767-305.064
				c0,12.782-10.362,23.143-23.144,23.143c-12.785,0-23.144-10.361-23.144-23.143s10.358-23.143,23.144-23.143
				C172.404-328.207,182.767-317.846,182.767-305.064z"/>
			<path fill="#00A19B" d="M141.486-283.275c0,2.018-1.639,3.655-3.656,3.655c-2.015,0-3.652-1.638-3.652-3.655
				c0-2.017,1.638-3.653,3.652-3.653C139.847-286.928,141.486-285.292,141.486-283.275z"/>
			<path fill="#00A19B" d="M185.201-326.99c0,1.944-1.577,3.519-3.518,3.519c-1.945,0-3.521-1.575-3.521-3.519
				s1.575-3.518,3.521-3.518C183.624-330.508,185.201-328.934,185.201-326.99z"/>
			
				<ellipse transform="matrix(0.7071 0.7071 -0.7071 0.7071 -169.1744 -201.9672)" fill="none" stroke="#7FCBC6" stroke-width="1.0656" stroke-miterlimit="10" cx="159.214" cy="-305.2" rx="10.557" ry="18.948"/>
			
				<ellipse transform="matrix(0.7071 -0.7071 0.7071 0.7071 262.4534 23.1885)" fill="none" stroke="#7FCBC6" stroke-width="1.0656" stroke-miterlimit="10" cx="159.216" cy="-305.2" rx="5.144" ry="18.949"/>
			
				<ellipse transform="matrix(0.7071 -0.7072 0.7072 0.7071 262.4666 23.1837)" fill="#7FCBC6" stroke="#7FCBC6" stroke-width="1.0656" stroke-miterlimit="10" cx="159.216" cy="-305.2" rx="2.304" ry="8.489"/>
			
				<line fill="none" stroke="#00A19B" stroke-width="1.6241" stroke-miterlimit="10" x1="138.373" y1="-283.275" x2="143.526" y2="-288.429"/>
			
				<line fill="none" stroke="#00A19B" stroke-width="1.6241" stroke-miterlimit="10" x1="181.684" y1="-326.99" x2="176.034" y2="-321.339"/>
		</g>
		<g>
			<path fill="#00A19B" d="M189.653-68.815c0-2.797-2.268-5.064-5.064-5.064c-0.812,0-1.576,0.196-2.257,0.536
				c1.031-2.004,1.624-4.27,1.624-6.679c0-8.076-6.548-14.624-14.625-14.624c-7.332,0-13.387,5.401-14.444,12.438
				c-2.92,0.186-5.458,1.759-6.962,4.075c-1.514-2.566-4.3-4.294-7.497-4.294c-4.808,0-8.706,3.897-8.706,8.706
				c0,1.25,0.269,2.438,0.745,3.514h-0.221c-0.464-0.235-0.981-0.38-1.536-0.38c-1.889,0-3.419,1.531-3.419,3.419
				c0,1.888,1.53,3.418,3.419,3.418h54.892v-0.101C187.914-64.322,189.653-66.366,189.653-68.815z"/>
			<g>
				<defs>
					<path id="SVGID_5_" d="M189.613-68.829c0-2.793-2.266-5.058-5.058-5.058c-0.813,0-1.575,0.195-2.255,0.535
						c1.03-2.001,1.622-4.264,1.622-6.669c0-8.066-6.54-14.606-14.605-14.606c-7.322,0-13.37,5.395-14.426,12.422
						c-2.917,0.187-5.451,1.757-6.953,4.071c-1.512-2.564-4.295-4.29-7.487-4.29c-4.802,0-8.694,3.893-8.694,8.695
						c0,1.249,0.269,2.436,0.744,3.509h-0.221c-0.464-0.235-0.98-0.38-1.534-0.38c-1.886,0-3.415,1.529-3.415,3.415
						c0,1.886,1.528,3.415,3.415,3.415h54.821v-0.101C187.875-64.342,189.613-66.382,189.613-68.829z"/>
				</defs>
				<clipPath id="SVGID_6_">
					<use xlink:href="#SVGID_5_"  overflow="visible"/>
				</clipPath>
				<path clip-path="url(#SVGID_6_)" fill="#7FCBC6" d="M168.114-68.134c0-2.793-2.265-5.058-5.058-5.058
					c-0.81,0-1.574,0.196-2.253,0.535c1.029-2,1.621-4.264,1.621-6.669c0-8.066-6.539-14.605-14.606-14.605
					c-7.323,0-13.369,5.395-14.425,12.422c-2.916,0.187-5.451,1.757-6.952,4.07c-1.513-2.564-4.295-4.29-7.487-4.29
					c-4.802,0-8.695,3.893-8.695,8.694c0,1.25,0.269,2.435,0.744,3.509h-0.221c-0.463-0.234-0.979-0.379-1.534-0.379
					c-1.886,0-3.415,1.528-3.415,3.414s1.529,3.415,3.415,3.415h54.82v-0.101C166.377-63.646,168.114-65.687,168.114-68.134z"/>
			</g>
		</g>
		<g>
			<path fill="#00A19B" d="M375.909-197.962h-9.299v8.917c2.383,1.563,3.96,4.254,3.96,7.316c0,4.832-3.917,8.749-8.748,8.749
				c-4.832,0-8.749-3.917-8.749-8.749c0-3.062,1.576-5.752,3.959-7.315v-8.918h-9.756c-1.129,0-2.045,0.916-2.045,2.045v28.633
				c0,1.129,0.916,2.045,2.045,2.045h28.633c1.13,0,2.046-0.916,2.046-2.045v-28.633
				C377.955-197.046,377.039-197.962,375.909-197.962z"/>
			<path fill="#7FCBC6" d="M362.946-186.051v-19.125c0-0.748-0.605-1.353-1.353-1.353s-1.353,0.605-1.353,1.353v19.125
				c-1.91,0.58-3.3,2.353-3.3,4.451c0,2.569,2.082,4.652,4.652,4.652c2.568,0,4.651-2.083,4.651-4.652
				C366.245-183.699,364.855-185.471,362.946-186.051z"/>
			<path fill="#00A19B" d="M355.151-208.371l1.841,1.841c2.576-2.577,6.625-2.577,9.201,0l1.842-1.841
				C364.446-211.96,358.74-211.96,355.151-208.371z"/>
			<path fill="#00A19B" d="M351.47-212.052l1.841,1.841c4.601-4.601,11.964-4.601,16.564,0l1.841-1.84
				C366.103-217.666,357.084-217.666,351.47-212.052z"/>
		</g>
		<rect x="342.386" y="23.312" fill="#00A19B" width="38.416" height="38.416"/>
		<g>
			<polygon fill="#FFFFFF" points="354.055,48.395 351.836,48.395 351.836,27.832 350.336,27.832 350.336,48.395 348.117,48.395 
				348.117,54.332 350.336,54.332 350.336,57.207 351.836,57.207 351.836,54.332 354.055,54.332 			"/>
			<polygon fill="#FFFFFF" points="364.563,39.39 362.344,39.39 362.344,27.832 360.844,27.832 360.844,39.39 358.625,39.39 
				358.625,45.327 360.844,45.327 360.844,57.207 362.344,57.207 362.344,45.327 364.563,45.327 			"/>
			<polygon fill="#FFFFFF" points="375.07,30.385 372.852,30.385 372.852,27.832 371.352,27.832 371.352,30.385 369.133,30.385 
				369.133,36.322 371.352,36.322 371.352,57.207 372.852,57.207 372.852,36.322 375.07,36.322 			"/>
		</g>
	</g>
</g>
<g display="none">
	<polygon display="inline" fill="#FFFFFF" points="403.809,570.53 159.189,429.299 403.809,288.068 	"/>
	<polygon display="inline" fill="#FFFFFF" points="403.809,570.53 159.19,711.761 159.189,429.299 	"/>
	<polygon display="inline" fill="#FFFFFF" points="403.81,288.067 159.19,429.299 159.189,146.837 	"/>
	<polygon display="inline" fill="#FFFFFF" points="-85.431,570.531 159.188,429.299 159.189,711.761 	"/>
	<polygon display="inline" fill="#FFFFFF" points="-85.43,288.068 159.189,429.299 -85.43,570.531 	"/>
	<polygon display="inline" fill="#FFFFFF" points="-85.43,288.068 159.188,146.837 159.189,429.299 	"/>
</g>
</svg>
